<?xml version="1.0" encoding="UTF-8" standalone="no"?>
<!-- Created with Inkscape (http://www.inkscape.org/) -->

<svg
   xmlns:dc="http://purl.org/dc/elements/1.1/"
   xmlns:cc="http://creativecommons.org/ns#"
   xmlns:rdf="http://www.w3.org/1999/02/22-rdf-syntax-ns#"
   xmlns:svg="http://www.w3.org/2000/svg"
   xmlns="http://www.w3.org/2000/svg"
   xmlns:sodipodi="http://sodipodi.sourceforge.net/DTD/sodipodi-0.dtd"
   xmlns:inkscape="http://www.inkscape.org/namespaces/inkscape"
   width="50"
   height="50"
   viewBox="0 0 13.229166 13.229167"
   version="1.1"
   id="svg8"
   inkscape:version="0.92.1 r"
   sodipodi:docname="supaero.svg">
  <defs
     id="defs2" />
  <sodipodi:namedview
     id="base"
     pagecolor="#ffffff"
     bordercolor="#666666"
     borderopacity="1.0"
     inkscape:pageopacity="0.0"
     inkscape:pageshadow="2"
     inkscape:zoom="3.959798"
     inkscape:cx="-105.51972"
     inkscape:cy="64.913966"
     inkscape:document-units="mm"
     inkscape:current-layer="layer1"
     showgrid="false"
     units="px"
     inkscape:pagecheckerboard="true"
     inkscape:window-width="1920"
     inkscape:window-height="1035"
     inkscape:window-x="0"
     inkscape:window-y="23"
     inkscape:window-maximized="0" />
  <metadata
     id="metadata5">
    <rdf:RDF>
      <cc:Work
         rdf:about="">
        <dc:format>image/svg+xml</dc:format>
        <dc:type
           rdf:resource="http://purl.org/dc/dcmitype/StillImage" />
        <dc:title></dc:title>
      </cc:Work>
    </rdf:RDF>
  </metadata>
  <g
     inkscape:label="Layer 1"
     inkscape:groupmode="layer"
     id="layer1"
     transform="translate(0,-283.77082)">
    <path
       style="fill:#666666;fill-opacity:1;stroke-width:0.1692683"
       d="m 0.80435097,291.32411 c -0.37648733,-0.41571 -0.53945613,-0.52525 -0.53945613,-0.52525 0,0 0.70344707,0.24734 0.35813687,-0.1356 -0.25114404,-0.27893 -0.6819495,-0.91464 -0.6819495,-0.91464 0,0 0.60746411,0.37971 0.81675121,0.45618 0.34029618,0.12422 0.32420548,0.0786 -0.15220909,-0.43287 l -0.53272861,-0.57191 0.83614235,0.50576 c 0.76614743,0.46342 1.01779173,0.51118 3.00611423,0.57047 2.0937358,0.0625 2.1699711,0.0513 2.1699711,-0.31597 0,-0.9187 1.14346,-1.3416 1.5736643,-0.58199 0.1215783,0.21467 0.2602128,0.31195 0.3080778,0.21614 0.047865,-0.0957 0.4146065,-0.32551 0.8149834,-0.51054 1.4252551,-0.65868 2.9073321,-2.04567 3.7314081,-3.49202 l 0.263703,-0.46282 -0.158349,0.55856 c -0.0871,0.30718 -0.237387,0.68837 -0.333992,0.84707 -0.09659,0.15869 0.04435,0.0398 0.31322,-0.26434 0.222946,-0.25216 0.477258,-0.71908 0.477258,-0.71908 0,0 -0.0086,0.66558 -0.252132,1.1374 -0.256645,0.4973 -0.255966,0.50344 0.02524,0.22867 0.273642,-0.26736 0.282974,-0.25239 0.175768,0.28237 -0.143811,0.71732 -0.621181,1.67744 -1.304531,2.62377 -0.294444,0.40773 -0.449734,0.67805 -0.34509,0.60066 0.104643,-0.0775 0.492684,-0.33863 0.492684,-0.33863 0,0 -0.643907,0.82974 -1.061272,1.11442 -0.417368,0.28468 -0.761041,0.61497 -0.761041,0.61497 l -1.1649644,0.49784 c 0,0 -0.7916488,0.49972 -0.272523,1.09472 0.2278587,0.26115 0.3457957,0.47483 0.2620803,0.47483 -0.08371,0 -0.3177198,0.1906 -0.5200091,0.42355 -0.3284765,0.37825 -0.4358977,0.40312 -1.0046633,0.23257 -0.5088737,-0.1526 -0.6081272,-0.24718 -0.4938978,-0.47061 0.078627,-0.1538 0.1440068,-0.47928 0.1452887,-0.72329 0.00177,-0.34949 -0.054223,-0.41471 -0.2640344,-0.30728 -0.1465004,0.075 -0.9432102,0.18067 -1.770467,0.23475 -1.2751695,0.0834 -2.3019305,-0.43659 -2.3019305,-0.43659 0,0 0.6153952,0.0775 0.5136399,0.004 -0.9540546,-0.34464 -1.6449373,-0.71611 -2.36889126,-1.51547 z"
       id="path4555"
       inkscape:connector-curvature="0"
       sodipodi:nodetypes="cccccccccscccccccccccccccccccscccccccccc" />
  </g>
</svg>
