<?xml version="1.0" encoding="UTF-8" standalone="no"?>
<!-- Created with Inkscape (http://www.inkscape.org/) -->

<svg
   xmlns:dc="http://purl.org/dc/elements/1.1/"
   xmlns:cc="http://creativecommons.org/ns#"
   xmlns:rdf="http://www.w3.org/1999/02/22-rdf-syntax-ns#"
   xmlns:svg="http://www.w3.org/2000/svg"
   xmlns="http://www.w3.org/2000/svg"
   xmlns:sodipodi="http://sodipodi.sourceforge.net/DTD/sodipodi-0.dtd"
   xmlns:inkscape="http://www.inkscape.org/namespaces/inkscape"
   width="50"
   height="50"
   viewBox="0 0 13.229166 13.229167"
   version="1.1"
   id="svg8"
   inkscape:version="0.92.1 r"
   sodipodi:docname="home.svg">
  <defs
     id="defs2" />
  <sodipodi:namedview
     id="base"
     pagecolor="#ffffff"
     bordercolor="#666666"
     borderopacity="1.0"
     inkscape:pageopacity="0.0"
     inkscape:pageshadow="2"
     inkscape:zoom="3.959798"
     inkscape:cx="15.899891"
     inkscape:cy="35.230663"
     inkscape:document-units="mm"
     inkscape:current-layer="layer1"
     showgrid="false"
     units="px"
     inkscape:pagecheckerboard="true"
     inkscape:window-width="1920"
     inkscape:window-height="1035"
     inkscape:window-x="0"
     inkscape:window-y="23"
     inkscape:window-maximized="0" />
  <metadata
     id="metadata5">
    <rdf:RDF>
      <cc:Work
         rdf:about="">
        <dc:format>image/svg+xml</dc:format>
        <dc:type
           rdf:resource="http://purl.org/dc/dcmitype/StillImage" />
        <dc:title></dc:title>
      </cc:Work>
    </rdf:RDF>
  </metadata>
  <g
     inkscape:label="Layer 1"
     inkscape:groupmode="layer"
     id="layer1"
     transform="translate(0,-283.77082)">
    <path
       style="fill:#ffffff;fill-opacity:1;stroke-width:0.02032761"
       d="m 2.532535,295.36927 c -0.043341,-0.0121 2.1437634,-0.0105 2.8217734,0.003 0.1621117,0.003 -0.3958807,0.007 -1.2399852,0.009 -0.8441046,9.5e-4 -1.5559081,-0.003 -1.5817882,-0.0108 z m 5.3423964,0.003 c 0.6780071,-0.0128 2.8651116,-0.0149 2.8217706,-0.003 -0.02588,0.008 -0.7376837,0.0121 -1.581789,0.0108 -0.8441038,-9.6e-4 -1.4020962,-0.005 -1.2399816,-0.009 z m -5.3133522,-0.0407 c -0.00805,-0.009 -0.046737,-0.0158 -0.08599,-0.0171 -0.044881,-9.5e-4 -0.087861,-0.0194 -0.115813,-0.0482 l -0.044445,-0.0458 0.071145,0.0425 c 0.039133,0.0234 0.080296,0.042 0.091476,0.0417 0.011181,-3.3e-4 -0.013372,-0.0187 -0.054586,-0.0404 -0.041201,-0.0219 -0.080618,-0.0488 -0.087591,-0.0601 -0.00695,-0.0113 -0.03045,-0.0205 -0.052137,-0.0205 -0.021716,0 -0.039455,-0.01 -0.039455,-0.0215 0,-0.0118 0.010569,-0.015 0.023457,-0.008 0.014661,0.01 0.017947,0.005 0.00876,-0.01 -0.00809,-0.0131 -0.023232,-0.0184 -0.033671,-0.012 -0.019366,0.0119 -0.054029,-0.0594 -0.061327,-0.12628 -0.00225,-0.0204 -0.00703,-0.91082 -0.010633,-1.97853 l -0.00658,-1.94128 0.095885,-0.0769 c 0.052736,-0.0423 0.1324745,-0.10936 0.1771945,-0.14908 0.067594,-0.06 0.071026,-0.0663 0.020332,-0.0372 l -0.060981,0.0351 0.060981,-0.0521 c 0.033539,-0.0287 0.064377,-0.0427 0.068524,-0.031 0.00416,0.0116 0.013308,0.013 0.020332,0.003 0.00703,-0.01 0.074531,-0.0673 0.1499965,-0.12781 0.1404724,-0.11263 0.1838516,-0.15922 0.078172,-0.084 -0.032473,0.0231 -0.066267,0.042 -0.075096,0.042 -0.00883,0 0.014951,-0.0228 0.052824,-0.0509 0.037883,-0.0279 0.078537,-0.0509 0.090342,-0.0509 0.011795,-7e-5 0.0489,-0.0237 0.082441,-0.0524 l 0.060981,-0.0525 -0.071146,0.0442 -0.071147,0.0443 0.058435,-0.0539 c 0.032949,-0.0305 0.071613,-0.0488 0.088657,-0.0423 0.020621,0.009 0.026579,0.002 0.018724,-0.0183 -0.00706,-0.0184 0.01099,-0.046 0.046613,-0.0714 0.066216,-0.0472 0.091673,-0.053 0.069549,-0.016 -0.00835,0.0139 0.043705,-0.0257 0.1156844,-0.0882 0.071976,-0.0624 0.1561639,-0.12992 0.1870764,-0.14991 0.030934,-0.0201 0.053787,-0.0505 0.050818,-0.0676 -0.00287,-0.0174 0.024033,-0.0488 0.060675,-0.0705 0.036334,-0.0215 0.066066,-0.0346 0.066066,-0.029 0,0.005 -0.02974,0.029 -0.066066,0.0523 -0.036334,0.0233 -0.056654,0.0425 -0.045152,0.0427 0.03045,3.2e-4 0.3856378,-0.30261 0.3856378,-0.32911 0,-0.0124 0.015951,-0.0247 0.035432,-0.0277 0.039555,-0.005 0.1771141,-0.10951 0.2196366,-0.1656 0.023521,-0.031 0.023392,-0.0327 -9.553e-4,-0.0109 -0.015658,0.0139 -0.037589,0.0254 -0.048708,0.0254 -0.011119,0 0.010791,-0.0228 0.048669,-0.0509 0.037884,-0.0279 0.078539,-0.0509 0.090342,-0.0509 0.011795,-7e-5 0.0489,-0.0237 0.082445,-0.0524 l 0.060981,-0.0524 -0.071147,0.0442 -0.071145,0.0442 0.058435,-0.0538 c 0.032949,-0.0304 0.071613,-0.0488 0.088654,-0.0422 0.02062,0.009 0.026586,0.002 0.018723,-0.0183 -0.00713,-0.0185 0.011952,-0.0467 0.050156,-0.0738 0.033911,-0.0242 0.082673,-0.0633 0.10835,-0.0871 0.1282602,-0.11872 0.258106,-0.21601 0.288297,-0.21601 0.00926,0 -0.017044,0.0229 -0.058441,0.0511 -0.041398,0.0281 -0.096545,0.0716 -0.1225505,0.0965 -0.046409,0.0446 -0.1479955,0.12774 -0.228336,0.18694 -0.022361,0.0164 -0.031514,0.0302 -0.020334,0.0305 0.011181,2.3e-4 0.1020679,-0.0686 0.2019756,-0.15312 0.099909,-0.0845 0.1985322,-0.16265 0.2191698,-0.17368 0.020621,-0.011 0.03494,-0.035 0.031801,-0.0528 -0.00334,-0.0192 0.02172,-0.0491 0.060334,-0.0719 0.036334,-0.0215 0.066066,-0.0346 0.066066,-0.029 0,0.005 -0.02974,0.029 -0.066066,0.0523 -0.036334,0.0233 -0.056463,0.0425 -0.044722,0.0427 0.031767,6.5e-4 0.4585022,-0.36597 0.4472766,-0.38413 -0.00532,-0.009 0.016758,-0.0351 0.049016,-0.0589 0.032266,-0.0238 0.061637,-0.0353 0.065269,-0.0255 0.00362,0.01 0.043194,-0.0148 0.087915,-0.0546 l 0.08131,-0.0725 -0.08131,0.0457 c -0.044722,0.0252 -0.063016,0.0306 -0.040654,0.0118 0.022361,-0.0187 0.079069,-0.0523 0.1260146,-0.0746 0.046947,-0.0224 0.097257,-0.0556 0.1118011,-0.0737 0.016402,-0.0205 -6.443e-4,-0.0153 -0.044701,0.0137 l -0.071145,0.0468 0.058435,-0.0538 c 0.032121,-0.0296 0.070549,-0.0492 0.085354,-0.0436 0.016402,0.007 0.022845,-3.1e-4 0.016499,-0.0168 -0.00976,-0.0255 0.089688,-0.11347 0.1274287,-0.11273 0.00944,1.6e-4 -0.012921,0.0196 -0.049725,0.0432 -0.036805,0.0235 -0.062681,0.0471 -0.0575,0.0523 0.018075,0.0182 0.1312212,-0.0809 0.1214836,-0.10627 -0.00539,-0.014 0.020491,-0.0468 0.057541,-0.0729 0.037051,-0.026 0.076503,-0.0577 0.087683,-0.0703 0.045862,-0.0518 0.1537762,-0.1122 0.1760992,-0.0984 0.016047,0.01 0.019753,0.004 0.011215,-0.0182 -0.00851,-0.0222 0.00649,-0.0468 0.045426,-0.0745 0.066216,-0.0472 0.091678,-0.0531 0.06954,-0.0159 -0.00835,0.014 0.00713,0.005 0.034374,-0.0189 0.1306738,-0.11685 0.1993853,-0.16911 0.2223527,-0.16911 0.022975,0 0.091676,0.0523 0.2223527,0.16911 0.027262,0.0244 0.042729,0.033 0.034374,0.0189 -0.022136,-0.0371 0.00334,-0.0311 0.069541,0.0159 0.038934,0.0277 0.05393,0.0523 0.045419,0.0745 -0.00851,0.0223 -0.00484,0.0282 0.011215,0.0182 0.022327,-0.0138 0.1302383,0.0465 0.1760986,0.0984 0.011181,0.0126 0.05064,0.0442 0.087684,0.0703 0.037043,0.026 0.062941,0.0587 0.057541,0.0729 -0.00974,0.0253 0.1034108,0.12434 0.1214871,0.10627 0.00519,-0.006 -0.02069,-0.0288 -0.0575,-0.0523 -0.036805,-0.0235 -0.05918,-0.043 -0.049726,-0.0432 0.037739,-6.4e-4 0.1372115,0.0873 0.1274323,0.11273 -0.00634,0.0165 7.43e-5,0.0231 0.016499,0.0168 0.014826,-0.005 0.053221,0.014 0.085357,0.0436 l 0.058435,0.0538 -0.071148,-0.0468 c -0.044156,-0.029 -0.061118,-0.0343 -0.044701,-0.0137 0.014533,0.0181 0.064858,0.0513 0.1118013,0.0737 0.046947,0.0224 0.1036521,0.056 0.1260111,0.0746 0.022361,0.0186 0.00403,0.0133 -0.040654,-0.0118 l -0.08131,-0.0457 0.08131,0.0725 c 0.044722,0.0398 0.084282,0.0644 0.087913,0.0546 0.00362,-0.01 0.033003,9.6e-4 0.065269,0.0255 0.032266,0.0238 0.05432,0.0503 0.049016,0.0589 -0.011215,0.0181 0.4155004,0.38464 0.4472771,0.38413 0.011727,-1.5e-4 -0.00837,-0.0194 -0.044729,-0.0427 -0.036334,-0.0233 -0.066066,-0.0468 -0.066066,-0.0523 0,-0.005 0.02974,0.008 0.066066,0.029 0.038606,0.0228 0.063684,0.0527 0.060339,0.0719 -0.00321,0.0181 0.011147,0.0418 0.031801,0.0528 0.020621,0.011 0.1192612,0.0891 0.2191692,0.17368 0.099906,0.0844 0.1907957,0.15339 0.2019763,0.15312 0.011181,-3.1e-4 0.00191,-0.014 -0.020334,-0.0305 -0.080341,-0.0591 -0.1819243,-0.14237 -0.2283361,-0.18694 -0.025999,-0.0249 -0.081149,-0.0684 -0.1225471,-0.0965 -0.041398,-0.0281 -0.067698,-0.0511 -0.058441,-0.0511 0.03019,0 0.1600361,0.0973 0.2882935,0.21601 0.025679,0.0237 0.074437,0.063 0.1083535,0.0871 0.038189,0.0272 0.057282,0.0554 0.050156,0.0738 -0.00787,0.0204 -0.00191,0.0264 0.018724,0.0183 0.017044,-0.008 0.055704,0.0119 0.088656,0.0422 l 0.058435,0.0538 -0.071148,-0.0442 -0.071146,-0.0442 0.060981,0.0524 c 0.033542,0.0288 0.070638,0.0524 0.082441,0.0524 0.011795,5e-5 0.052455,0.0229 0.090342,0.0509 0.037884,0.0279 0.059786,0.0509 0.048668,0.0509 -0.011112,0 -0.03303,-0.0115 -0.048709,-0.0254 -0.024327,-0.0217 -0.024457,-0.0201 -9.553e-4,0.0109 0.042524,0.0562 0.1800848,0.1598 0.219636,0.1656 0.019494,0.003 0.035432,0.0153 0.035432,0.0277 0,0.0265 0.3551786,0.3296 0.3856373,0.32911 0.011502,-1.7e-4 -0.00883,-0.0194 -0.045146,-0.0427 -0.036334,-0.0233 -0.066066,-0.0468 -0.066066,-0.0523 0,-0.005 0.02974,0.008 0.066066,0.029 0.036647,0.0217 0.063665,0.0531 0.060675,0.0705 -0.00287,0.0173 0.019911,0.0478 0.050818,0.0676 0.030903,0.0201 0.1151011,0.0875 0.1870806,0.14991 0.07198,0.0624 0.1240364,0.10208 0.1156844,0.0882 -0.02213,-0.0371 0.0033,-0.0311 0.06954,0.016 0.03562,0.0253 0.05367,0.053 0.04662,0.0714 -0.0078,0.0204 -0.0019,0.0264 0.01872,0.0183 0.01704,-0.008 0.0557,0.0118 0.08865,0.0423 l 0.05843,0.0539 -0.07115,-0.0443 -0.07115,-0.0442 0.06099,0.0525 c 0.03354,0.0288 0.07064,0.0524 0.08244,0.0524 0.0118,7e-5 0.05245,0.0229 0.09034,0.0509 0.03789,0.0279 0.06165,0.0509 0.05283,0.0509 -0.0088,0 -0.04263,-0.0189 -0.0751,-0.042 -0.105683,-0.0752 -0.0623,-0.0287 0.07817,0.084 0.07547,0.0606 0.142961,0.11802 0.149995,0.12781 0.0071,0.01 0.01618,0.009 0.02033,-0.003 0.0042,-0.0116 0.03499,0.003 0.06853,0.031 l 0.06099,0.0521 -0.06099,-0.0351 c -0.0507,-0.0291 -0.04728,-0.0229 0.02033,0.0372 0.04473,0.0397 0.124461,0.10681 0.177199,0.14908 l 0.09589,0.0769 -0.0065,1.94128 c -0.0036,1.06771 -0.0084,1.95806 -0.01064,1.97853 -0.0073,0.067 -0.04195,0.13825 -0.06133,0.12628 -0.01038,-0.007 -0.02557,-6.9e-4 -0.03366,0.012 -0.0092,0.0149 -0.0058,0.0183 0.0088,0.01 0.01292,-0.009 0.02346,-0.005 0.02346,0.008 0,0.0118 -0.01775,0.0215 -0.03945,0.0215 -0.02171,0 -0.04516,0.01 -0.05213,0.0205 -0.0069,0.0112 -0.04639,0.0383 -0.08759,0.0601 -0.0412,0.0218 -0.06577,0.0399 -0.05458,0.0404 0.01119,3.1e-4 0.05234,-0.0183 0.09147,-0.0417 l 0.07115,-0.0425 -0.04445,0.0458 c -0.02794,0.0288 -0.07093,0.0467 -0.115813,0.0482 -0.03926,9.6e-4 -0.07795,0.01 -0.08599,0.0171 -0.008,0.009 -0.708298,0.0146 -1.5561307,0.0146 H 7.5700267 l -0.00484,-1.45852 -0.00484,-1.45849 -0.010566,1.45341 -0.010566,1.45343 -0.00484,-1.44835 -0.00484,-1.44834 H 6.6147659 5.7000264 l -0.00484,1.44834 -0.00484,1.44835 -0.010566,-1.45343 -0.010566,-1.45341 -0.00484,1.45849 -0.00484,1.45852 H 4.1177681 c -0.8478327,0 -1.5480916,-0.008 -1.5561341,-0.0146 z m 4.5358207,-2.94811 c -0.2655297,-0.003 -0.7000338,-0.003 -0.9655628,0 -0.265529,0.003 -0.048279,0.007 0.4827814,0.007 0.5310587,0 0.7483104,-0.003 0.4827814,-0.007 z m -4.0171934,-2.05195 c 0.025296,-0.0307 0.023651,-0.0316 -0.017849,-0.01 -0.047303,0.0252 -0.058948,0.0432 -0.027905,0.0432 0.00983,0 0.030381,-0.0152 0.045733,-0.0339 z m 7.1323995,0.0244 c 0,-0.005 -0.02059,-0.0204 -0.04574,-0.0339 -0.04147,-0.0222 -0.04313,-0.0212 -0.01784,0.01 0.02597,0.0315 0.06357,0.046 0.06357,0.0244 z m -4.8150503,-1.93693 c 0.025808,-0.033 0.024838,-0.0332 -0.012757,-0.005 -0.022361,0.0163 -0.044469,0.0324 -0.049124,0.0355 -0.00463,0.003 9.553e-4,0.005 0.012757,0.005 0.011665,0 0.033781,-0.0161 0.049124,-0.0355 z m 2.4960066,0.0298 c -0.00463,-0.003 -0.026777,-0.0192 -0.049124,-0.0355 -0.037604,-0.0276 -0.038559,-0.0272 -0.012757,0.005 0.015338,0.0195 0.037453,0.0355 0.049124,0.0355 0.011665,0 0.017399,-0.003 0.012757,-0.005 z m -1.826574,-0.57556 c 0.060818,-0.0515 0.1197348,-0.10323 0.1309154,-0.11508 0.033631,-0.0356 -0.1114409,0.068 -0.1603331,0.11455 -0.024941,0.0237 -0.063091,0.0542 -0.084794,0.0675 -0.021719,0.0133 -0.029774,0.0247 -0.017918,0.0254 0.011856,6.4e-4 0.071305,-0.0409 0.1321288,-0.0923 z m 1.2094719,0.067 c -0.021719,-0.0134 -0.059863,-0.0437 -0.084795,-0.0675 -0.048892,-0.0466 -0.1939629,-0.15027 -0.1603331,-0.11456 0.057794,0.0613 0.2443439,0.20843 0.2630452,0.20741 0.011856,-6.6e-4 0.00382,-0.012 -0.017918,-0.0254 z m -0.9641616,-0.27149 c 0.025296,-0.0307 0.023617,-0.0314 -0.017849,-0.01 -0.047303,0.0252 -0.058948,0.0433 -0.027903,0.0433 0.00983,0 0.030381,-0.0152 0.045739,-0.0338 z m 0.6682183,0.0244 c 0,-0.005 -0.020586,-0.0204 -0.045739,-0.0339 -0.041474,-0.0222 -0.043139,-0.0212 -0.01785,0.01 0.025972,0.0315 0.063575,0.046 0.063575,0.0244 z m -4.8456249,7.27579 c -0.00695,-0.0181 -0.01047,-0.90357 -0.0078,-1.96758 l 0.00487,-1.93455 0.010375,1.96163 c 0.0057,1.07889 0.00921,1.96428 0.0078,1.96757 -0.00129,0.003 -0.00828,-0.009 -0.015242,-0.027 z m 8.946764,-1.3885 c 0.0029,-0.77876 0.0075,-1.66291 0.0105,-1.96477 0.0029,-0.30186 0.0074,0.32473 0.0098,1.39245 0.0026,1.0677 -0.0023,1.95184 -0.0105,1.96475 -0.0082,0.0129 -0.01263,-0.61367 -0.0098,-1.39243 z m -9.9907854,-2.27403 c 0.0309,-0.005 0.076638,-0.005 0.101639,3e-4 0.025003,0.005 -3.062e-4,0.009 -0.056181,0.009 -0.055901,-1.5e-4 -0.076358,-0.004 -0.045457,-0.009 z m 10.9565804,0 c 0.03089,-0.005 0.07664,-0.005 0.101638,3e-4 0.025,0.005 -2.77e-4,0.009 -0.05618,0.009 -0.0559,-1.5e-4 -0.07636,-0.004 -0.04546,-0.009 z m -10.9822671,-0.0463 c -0.016755,-0.0107 -0.045461,-0.0148 -0.063753,-0.01 -0.0363711,0.0114 -0.16013016,-0.0818 -0.15939872,-0.11978 2.287e-4,-0.013 0.0162392,-0.005 0.0355722,0.018 0.0193006,0.0228 0.0534164,0.0545 0.0757749,0.0703 0.0223619,0.0158 0.00957,-0.005 -0.028419,-0.0457 -0.0379923,-0.0409 -0.0780108,-0.0725 -0.088934,-0.0703 -0.0109233,0.002 -0.0244883,-0.009 -0.0301273,-0.0241 -0.007124,-0.0196 -0.001615,-0.0231 0.0177856,-0.0114 0.0237466,0.0143 0.0237466,0.0117 -7.732e-5,-0.0178 -0.015466,-0.0191 -0.0419582,-0.0323 -0.0588719,-0.0293 -0.0169158,0.003 -0.0351757,-0.008 -0.0405796,-0.0228 -0.006736,-0.0194 -9.6961e-4,-0.0232 0.0182052,-0.012 0.0165623,0.01 0.0211049,0.009 0.0111163,-0.002 -0.009316,-0.0105 -0.0268404,-0.0184 -0.0389555,-0.0184 -0.0121152,0 -0.0262603,-0.0127 -0.0314481,-0.0282 -0.00641,-0.0192 -3.2218e-4,-0.0232 0.0186238,-0.0122 0.0212015,0.012 0.0224898,0.0105 0.005287,-0.009 -0.0125022,-0.0136 -0.0394612,-0.0271 -0.0598801,-0.0302 -0.0204283,-0.003 -0.0410989,-0.0173 -0.045951,-0.0319 -0.005896,-0.0177 6.4437e-4,-0.021 0.0192365,-0.0105 0.0165623,0.01 0.0211049,0.009 0.0111163,-0.002 -0.009316,-0.0105 -0.0230384,-0.0184 -0.0304808,-0.0184 -0.0166589,0 -0.0802758,-0.0631 -0.13807147,-0.13695 -0.0344056,-0.0439 -0.0438077,-0.0861 -0.0461409,-0.20643 l -0.002906,-0.15121 0.10711969,-0.10155 c 0.058917,-0.0558 0.13456578,-0.12592 0.16810498,-0.15565 l 0.0609816,-0.0541 -0.0698917,0.0472 c -0.0384436,0.0259 -0.11390869,0.0907 -0.16770212,0.14404 -0.0537963,0.0532 -0.0978106,0.0889 -0.0978106,0.0794 0,-0.0332 0.24911893,-0.24537 0.3361487,-0.28628 0.0481426,-0.0225 0.093951,-0.0515 0.10179724,-0.0642 0.007827,-0.0127 -0.0120186,-0.008 -0.0441371,0.0124 l -0.058405,0.0354 0.0609816,-0.053 c 0.0643944,-0.0559 0.10414882,-0.071 0.0787357,-0.03 -0.008309,0.0135 0.0279037,-0.0115 0.0805082,-0.0554 0.0526048,-0.0439 0.091357,-0.0911 0.086121,-0.1048 -0.00525,-0.0137 0.00129,-0.0206 0.014854,-0.0157 0.013404,0.005 0.051818,-0.0145 0.085357,-0.0433 l 0.060982,-0.0525 -0.071145,0.0466 c -0.044536,0.0292 -0.061256,0.0343 -0.044704,0.0136 0.014532,-0.0181 0.064855,-0.0513 0.1118014,-0.0736 0.1011749,-0.048 0.2592881,-0.17992 0.2526503,-0.21065 -0.00258,-0.0118 0.00802,-0.0264 0.023553,-0.0319 0.019591,-0.008 0.023006,-0.002 0.011213,0.0173 -0.00938,0.0151 0.057959,-0.0362 0.1496259,-0.11409 0.091666,-0.078 0.1666646,-0.15176 0.1666646,-0.16408 0,-0.0321 0.075598,-0.0961 0.1171888,-0.0992 0.039143,-0.003 0.033307,9.5e-4 0.3246876,-0.2456 0.1144597,-0.0971 0.2033549,-0.18422 0.1975455,-0.19361 -0.014499,-0.0234 0.085493,-0.0865 0.1115726,-0.0704 0.012211,0.008 0.01624,6.4e-4 0.00966,-0.0165 -0.00667,-0.0174 0.010051,-0.045 0.040706,-0.0672 0.028613,-0.0206 0.085287,-0.0673 0.125924,-0.10365 0.07435,-0.0665 0.125041,-0.0878 0.096426,-0.0407 -0.00847,0.014 0.041057,-0.0234 0.1100811,-0.0829 0.069018,-0.0596 0.1234363,-0.11511 0.1209266,-0.12345 -0.00416,-0.0139 0.078987,-0.0901 0.2764167,-0.25301 0.042737,-0.0353 0.097618,-0.0835 0.1219636,-0.10731 0.024361,-0.0237 0.071709,-0.059 0.1052477,-0.0784 l 0.060981,-0.0353 -0.050818,0.0444 c -0.027973,0.0244 -0.082026,0.0688 -0.1201662,0.0987 -0.038143,0.0299 -0.088454,0.0733 -0.1118019,0.0962 -0.023358,0.0229 -0.072185,0.0624 -0.1085207,0.0878 -0.036334,0.0253 -0.066066,0.0545 -0.066066,0.0649 0,0.0105 0.020593,9.5e-4 0.045733,-0.02 0.025166,-0.0213 0.139595,-0.11802 0.2543129,-0.21489 0.1147137,-0.0969 0.2039798,-0.18356 0.1983669,-0.19266 -0.010886,-0.0176 0.083524,-0.0877 0.1276671,-0.0948 0.030381,-0.005 0.018559,0.004 0.3278037,-0.25808 0.1294036,-0.10984 0.2332405,-0.20743 0.2307498,-0.21686 -0.00539,-0.0204 0.2781239,-0.26438 0.3072747,-0.26438 0.01112,0 -0.010695,0.0227 -0.048531,0.0506 -0.037821,0.0279 -0.073896,0.0581 -0.080176,0.0671 -0.00629,0.01 -0.041153,0.0371 -0.077486,0.0624 -0.036334,0.0254 -0.066066,0.0546 -0.066066,0.065 0,0.0105 0.020586,9.5e-4 0.045733,-0.0201 0.025166,-0.0213 0.1189164,-0.10009 0.2083591,-0.17494 0.1904279,-0.15943 0.2277471,-0.1956 0.1391541,-0.13489 -0.089386,0.0612 -0.1115145,0.0552 -0.026777,-0.008 0.038204,-0.0282 0.078861,-0.0482 0.090338,-0.0447 0.011474,0.003 0.04832,-0.0203 0.081859,-0.0533 l 0.060981,-0.0599 -0.071148,0.0455 -0.071147,0.0455 0.058435,-0.054 c 0.032157,-0.0296 0.070551,-0.0492 0.085358,-0.0436 0.016402,0.007 0.022846,-3.2e-4 0.016499,-0.0168 -0.00976,-0.0255 0.089691,-0.11347 0.1274321,-0.11273 0.00944,1.5e-4 -0.012921,0.0196 -0.049725,0.0432 -0.036805,0.0235 -0.062681,0.0471 -0.0575,0.0523 0.015883,0.016 0.1337276,-0.0807 0.1218671,-0.0999 -0.013856,-0.0224 0.029964,-0.0775 0.06094,-0.0766 0.012601,3.1e-4 0.00519,0.014 -0.016532,0.0306 -0.021719,0.0163 -0.029679,0.0298 -0.01772,0.0298 0.025487,0 0.063807,-0.0422 0.0641,-0.0706 1.549e-4,-0.0109 0.011311,-0.0235 0.024874,-0.028 0.016047,-0.005 0.018819,9.5e-4 0.00792,0.0189 -0.00921,0.015 0.026102,-0.009 0.078478,-0.0524 0.052388,-0.0439 0.095252,-0.0828 0.095252,-0.0868 0,-0.0116 -0.1306056,0.0829 -0.1470645,0.10635 -0.010375,0.0148 -0.015017,0.0147 -0.015242,-3e-4 -3.222e-4,-0.0325 0.1254309,-0.11892 0.1686141,-0.11567 0.024778,0.002 0.034047,-0.008 0.026839,-0.0257 -0.011243,-0.0292 0.075582,-0.11168 0.1169602,-0.11106 0.012471,1.6e-4 -0.00706,0.0194 -0.043398,0.0427 -0.036334,0.0233 -0.066066,0.0469 -0.066066,0.0525 0,0.005 0.02974,-0.009 0.066066,-0.0318 0.036334,-0.0229 0.066141,-0.0566 0.066231,-0.0744 7.71e-5,-0.0179 0.022941,-0.0501 0.050818,-0.0714 0.056913,-0.0438 0.090942,-0.0519 0.069044,-0.0163 -0.0088,0.0141 -0.0056,0.018 0.00809,0.01 0.012436,-0.008 0.017815,-0.0264 0.012019,-0.0415 -0.00601,-0.0158 0.017079,-0.0472 0.05363,-0.0733 0.03531,-0.0251 0.087539,-0.0673 0.1160612,-0.0938 0.028518,-0.0265 0.061964,-0.0492 0.074302,-0.0504 0.01234,-9.5e-4 0.031576,-0.003 0.04277,-0.005 0.011181,-9.5e-4 0.043193,-0.0181 0.071144,-0.0367 0.027965,-0.0186 0.1011301,-0.0491 0.1626212,-0.0676 0.061493,-0.0185 0.1328163,-0.042 0.158497,-0.0525 0.060313,-0.0242 0.2731778,-0.0242 0.333493,0 0.025678,0.0105 0.097002,0.0339 0.1584936,0.0525 0.061493,0.0185 0.1346723,0.0489 0.162621,0.0675 0.027938,0.0185 0.065118,0.0349 0.082593,0.0361 0.038941,0.003 0.1410134,0.0679 0.1410134,0.0899 0,0.009 0.032908,0.0354 0.073132,0.059 0.046928,0.0276 0.069098,0.0536 0.061869,0.0725 -0.00621,0.0161 -9.553e-4,0.0356 0.01131,0.0433 0.013664,0.009 0.016853,0.005 0.00809,-0.01 -0.02178,-0.0352 0.00519,-0.0284 0.070229,0.0179 0.03219,0.023 0.053438,0.0536 0.04763,0.0687 -0.00621,0.0161 0.019078,0.0457 0.061903,0.0721 0.039814,0.0247 0.072387,0.0536 0.072387,0.0646 0,0.0109 0.0097,0.014 0.021521,0.007 0.020716,-0.0128 0.1816083,0.0846 0.1818923,0.11021 7.71e-5,0.008 0.032095,0.0343 0.071147,0.0608 0.03905,0.0266 0.071007,0.0563 0.071007,0.0659 0,0.0181 -0.054421,-0.0211 -0.134086,-0.0964 -0.052921,-0.0502 -0.1961342,-0.15081 -0.1504992,-0.10586 0.077521,0.0763 0.3107162,0.26797 0.2957432,0.243 -0.011016,-0.0184 -0.00831,-0.0253 0.00787,-0.0198 0.013563,0.005 0.024778,0.0171 0.024874,0.028 3.092e-4,0.0285 0.0386,0.0706 0.0641,0.0706 0.011952,0 0.00395,-0.0135 -0.017719,-0.0298 -0.021719,-0.0164 -0.02916,-0.0301 -0.016532,-0.0306 0.032224,-6.8e-4 0.074535,0.0545 0.059807,0.0783 -0.00675,0.0109 -0.00163,0.0265 0.01157,0.0345 0.014854,0.01 0.018368,0.007 0.0093,-0.009 -0.02191,-0.0354 0.012116,-0.0274 0.069044,0.0163 0.027869,0.0214 0.050728,0.0536 0.050818,0.0715 7.78e-5,0.0179 0.03219,0.0515 0.071309,0.0746 l 0.071147,0.042 -0.050818,-0.0455 -0.050818,-0.0453 0.050818,0.0313 c 0.027938,0.0173 0.048149,0.0424 0.044879,0.0559 -0.00328,0.0136 0.013181,0.0378 0.036517,0.0543 0.023358,0.0163 0.1079283,0.0862 0.1879433,0.15497 0.080019,0.069 0.1377788,0.11261 0.1283537,0.0971 -0.01189,-0.0194 -0.00851,-0.0251 0.011119,-0.0186 0.015529,0.005 0.028224,0.019 0.028224,0.0308 0,0.0118 0.026744,0.0476 0.059411,0.0797 0.032674,0.032 0.052722,0.0468 0.044538,0.0328 -0.00819,-0.0139 -0.00532,-0.0254 0.00634,-0.0254 0.014272,0 0.023201,-0.22591 0.027098,-0.68606 l 0.00587,-0.68607 0.00354,0.71895 c 0.00191,0.39541 0.00869,0.72406 0.014949,0.73032 0.00629,0.007 0.010312,-0.35177 0.00902,-0.7956 -0.00191,-0.62938 0.00341,-0.81386 0.023713,-0.83837 0.030484,-0.0367 0.1405362,-0.0967 0.1535373,-0.0839 0.00491,0.005 -0.019236,0.0206 -0.053664,0.035 -0.060018,0.0248 -0.1225348,0.11102 -0.1208625,0.16657 3.229e-4,0.0146 0.013631,-0.003 0.029358,-0.0393 0.015692,-0.0361 0.05879,-0.0842 0.095762,-0.10666 0.064482,-0.0394 0.1002403,-0.0409 0.8803189,-0.0404 0.666699,6.4e-4 0.822255,0.007 0.863924,0.0297 0.02794,0.0159 0.05996,0.029 0.07114,0.0288 0.01119,-8e-5 -0.0117,-0.0178 -0.05082,-0.039 -0.08286,-0.0455 -0.06629,-0.0549 0.01888,-0.0109 0.05571,0.0289 0.09481,0.0869 0.07308,0.1087 -0.0058,0.007 -0.01064,-9.6e-4 -0.01064,-0.0164 0,-0.015 -0.006,-0.0211 -0.01343,-0.0137 -0.0074,0.008 0.0017,0.0302 0.02021,0.0505 0.03058,0.0338 0.03411,0.18005 0.03908,1.61108 l 0.0054,1.57393 -2.47e-4,-1.59978 c -1.45e-4,-0.87989 0.0064,-1.59308 0.01462,-1.5849 0.0082,0.009 0.01734,0.74885 0.02033,1.6459 0.0044,1.30875 3.21e-4,1.62415 -0.01998,1.59626 -0.01399,-0.0191 -0.02542,-0.0256 -0.02542,-0.0143 0,0.0247 0.189444,0.18998 0.274422,0.23955 0.06001,0.0351 0.06018,0.035 0.01059,-9.6e-4 -0.02772,-0.0204 -0.06838,-0.0554 -0.09038,-0.0778 -0.02201,-0.0224 -0.06336,-0.0566 -0.09192,-0.076 -0.02854,-0.0195 -0.04163,-0.0354 -0.02906,-0.0355 0.01257,-7e-5 0.05609,0.0296 0.09674,0.066 0.04065,0.0363 0.09731,0.083 0.125924,0.10364 0.02861,0.0206 0.0473,0.05 0.04151,0.0651 -0.0064,0.0168 -9.9e-5,0.0235 0.01639,0.0171 0.01483,-0.005 0.05322,0.014 0.08535,0.0436 l 0.05843,0.0538 -0.07114,-0.0457 c -0.09115,-0.0586 -0.05611,-0.0246 0.188081,0.18244 0.109034,0.0924 0.192742,0.15368 0.186014,0.13615 -0.0067,-0.0175 -0.04382,-0.0514 -0.08243,-0.0752 -0.03862,-0.0239 -0.06538,-0.0481 -0.05949,-0.0542 0.01579,-0.0158 0.1948,0.13586 0.189261,0.16036 -0.0026,0.0115 0.01814,0.0351 0.0461,0.0523 l 0.05082,0.0313 -0.05082,-0.0427 c -0.02797,-0.0235 -0.04307,-0.0429 -0.03362,-0.0431 0.02277,-6.5e-4 0.191024,0.14796 0.188236,0.16621 -0.0032,0.0211 0.151692,0.15862 0.178252,0.15823 0.01257,-1.5e-4 -0.0068,-0.0194 -0.04322,-0.0427 -0.03633,-0.0233 -0.06607,-0.0469 -0.06607,-0.0525 0,-0.005 0.02974,0.009 0.06607,0.032 0.03633,0.0232 0.06353,0.0554 0.06044,0.0717 -0.0032,0.0161 0.0052,0.0361 0.01839,0.0443 0.01507,0.01 0.01859,0.007 0.0096,-0.009 -0.02485,-0.0402 0.01562,-0.0244 0.07938,0.0309 l 0.06098,0.053 -0.06098,-0.0363 -0.06099,-0.0363 0.04869,0.0531 c 0.02678,0.0292 0.05657,0.0482 0.0662,0.0423 0.03096,-0.0191 0.342474,0.23628 0.342474,0.2808 0,0.01 -0.04401,-0.0271 -0.09781,-0.0804 -0.0538,-0.0532 -0.129261,-0.11808 -0.167702,-0.14406 l -0.06989,-0.0472 0.06098,0.0541 c 0.03354,0.0298 0.109188,0.0998 0.168106,0.15565 l 0.107119,0.10156 -0.0029,0.15121 c -0.0022,0.1204 -0.01173,0.16247 -0.04614,0.20644 -0.05779,0.0738 -0.121412,0.13696 -0.13807,0.13696 -0.0075,0 -0.02117,0.009 -0.03048,0.0184 -0.01,0.0109 -0.0054,0.0119 0.01112,0.002 0.01872,-0.0108 0.0251,-0.008 0.01923,0.0105 -0.0049,0.0146 -0.02553,0.0289 -0.04595,0.0319 -0.02042,0.003 -0.04737,0.0165 -0.05989,0.0302 -0.0172,0.0187 -0.01591,0.0209 0.0053,0.009 0.01911,-0.0109 0.02503,-0.008 0.01862,0.0123 -0.0052,0.0156 -0.01933,0.0282 -0.03144,0.0282 -0.01211,0 -0.02965,0.009 -0.03897,0.0184 -0.01,0.0109 -0.0054,0.0118 0.01112,0.002 0.01924,-0.0111 0.02497,-0.008 0.0182,0.0119 -0.0053,0.0155 -0.02364,0.0259 -0.04058,0.0228 -0.01691,-0.003 -0.0434,0.0105 -0.05887,0.0294 -0.02381,0.0293 -0.02381,0.0321 -8.4e-5,0.0178 0.0195,-0.0118 0.0249,-0.009 0.0178,0.0114 -0.0056,0.0156 -0.0192,0.0265 -0.03013,0.0242 -0.01092,-0.002 -0.05095,0.0294 -0.08894,0.0703 -0.038,0.0409 -0.05078,0.0615 -0.02842,0.0457 0.02236,-0.0158 0.05646,-0.0474 0.07578,-0.0703 0.01931,-0.0228 0.03533,-0.0317 0.03557,-0.0196 9.56e-4,0.041 -0.10043,0.11676 -0.166934,0.12474 -0.167335,0.0201 -0.29535,0.005 -0.362493,-0.0415 -0.06129,-0.0429 -0.03532,-0.0441 0.03765,-0.002 0.04744,0.0276 0.04942,0.0276 0.01405,6.5e-4 -0.02262,-0.0173 -0.07637,-0.0638 -0.119437,-0.10323 -0.04306,-0.0394 -0.08858,-0.0716 -0.101156,-0.0714 -0.01257,1.4e-4 0.0073,0.0196 0.04407,0.0432 0.0368,0.0235 0.06269,0.0471 0.0575,0.0523 -0.01775,0.0178 -0.131305,-0.0807 -0.121756,-0.10556 0.0053,-0.0137 -0.0125,-0.0393 -0.03943,-0.0569 -0.02693,-0.0178 -0.06399,-0.0471 -0.08234,-0.0654 -0.01834,-0.0183 -0.03334,-0.0249 -0.03334,-0.0148 0,0.0105 0.03419,0.0429 0.07598,0.0726 0.04179,0.0298 0.06789,0.0541 0.058,0.0541 -0.0099,0 -0.0594,-0.0343 -0.110003,-0.0762 -0.05061,-0.0419 -0.115581,-0.0922 -0.144388,-0.11167 -0.02881,-0.0195 -0.04464,-0.0354 -0.03518,-0.0355 0.0095,-7e-5 0.04605,0.0196 0.0813,0.0436 0.05616,0.0383 0.05907,0.0387 0.02346,0.003 -0.08291,-0.0821 -0.444767,-0.38169 -0.428217,-0.35464 0.01134,0.0184 0.0088,0.0253 -0.0075,0.0199 -0.01356,-0.005 -0.02478,-0.0171 -0.02488,-0.028 -3.06e-4,-0.0285 -0.03859,-0.0706 -0.0641,-0.0706 -0.01195,0 -0.004,0.0134 0.01772,0.0298 0.02171,0.0163 0.02858,0.0301 0.01525,0.0306 -0.02671,6.5e-4 -0.05573,-0.0371 -0.05657,-0.0737 -6.44e-4,-0.0305 -0.0815,-0.0929 -0.179833,-0.13912 -0.04272,-0.0201 -0.102174,-0.0604 -0.13213,-0.0897 -0.02997,-0.0292 -0.07962,-0.0693 -0.110371,-0.0889 -0.03074,-0.0196 -0.0559,-0.0446 -0.0559,-0.0554 0,-0.0201 0.05177,0.0163 0.134087,0.0943 0.05291,0.0501 0.196134,0.15081 0.150498,0.10585 -0.07329,-0.0722 -0.311131,-0.26865 -0.29737,-0.24564 0.02233,0.0374 -0.0034,0.031 -0.07176,-0.0175 -0.03318,-0.0236 -0.05591,-0.0544 -0.05051,-0.0685 0.0097,-0.0254 -0.103414,-0.12435 -0.121487,-0.10627 -0.0052,0.005 0.02069,0.0288 0.0575,0.0523 0.03681,0.0236 0.05918,0.043 0.04972,0.0433 -0.0095,1.5e-4 -0.04334,-0.0182 -0.07531,-0.041 -0.03894,-0.0277 -0.05393,-0.0523 -0.04541,-0.0745 0.0084,-0.022 0.0048,-0.0283 -0.01073,-0.0187 -0.01289,0.009 -0.05772,-0.009 -0.09965,-0.0374 -0.04193,-0.0285 -0.068656,-0.0519 -0.059399,-0.0519 0.00927,0 0.045682,0.0197 0.080951,0.0439 0.08029,0.0548 0.04241,0.0173 -0.1378976,-0.13676 -0.077569,-0.0663 -0.1341992,-0.10906 -0.1258462,-0.0951 0.022268,0.0373 -0.00344,0.0311 -0.070963,-0.017 -0.032736,-0.0233 -0.057023,-0.0556 -0.05395,-0.0716 0.00321,-0.0161 -0.026457,-0.0483 -0.065575,-0.0716 l -0.071147,-0.0424 0.050818,0.0424 c 0.027938,0.0233 0.059206,0.0426 0.069453,0.0428 0.01025,2.3e-4 0.013051,0.007 0.00629,0.0128 -0.020976,0.021 -0.1399828,-0.0761 -0.12885,-0.10513 0.00634,-0.0164 -7.71e-5,-0.0231 -0.016499,-0.0168 -0.014826,0.005 -0.053221,-0.014 -0.085357,-0.0436 l -0.058435,-0.0538 0.071148,0.0468 c 0.044156,0.0289 0.061118,0.0343 0.044701,0.0137 -0.014533,-0.0181 -0.064858,-0.0511 -0.1118011,-0.0733 -0.046947,-0.0222 -0.1096465,-0.0629 -0.1393316,-0.0905 -0.029679,-0.0277 -0.082867,-0.0708 -0.1181745,-0.096 -0.03531,-0.0251 -0.059786,-0.0572 -0.054388,-0.0713 0.00974,-0.0253 -0.1034107,-0.12435 -0.1214842,-0.10628 -0.00519,0.005 0.020689,0.0288 0.0575,0.0523 0.036805,0.0235 0.059179,0.043 0.049725,0.0433 -0.037739,6.5e-4 -0.1372109,-0.0873 -0.1274289,-0.11273 0.00634,-0.0166 -7.71e-5,-0.0231 -0.016499,-0.0168 -0.014818,0.005 -0.053214,-0.0139 -0.085357,-0.0436 l -0.058435,-0.0538 0.071147,0.0442 0.071148,0.0443 -0.060988,-0.0524 c -0.033542,-0.0287 -0.070639,-0.0524 -0.082441,-0.0524 -0.011795,-5e-5 -0.052455,-0.023 -0.090342,-0.0509 -0.084233,-0.0621 -0.061753,-0.0679 0.027357,-0.008 0.079252,0.0543 0.041174,0.0161 -0.1220733,-0.12179 -0.068866,-0.0582 -0.128325,-0.0973 -0.1321303,-0.0867 -0.00382,0.0105 -0.034361,-0.004 -0.067902,-0.033 l -0.060981,-0.0521 0.060981,0.0354 0.060981,0.0355 -0.060981,-0.0604 c -0.04002,-0.0396 -0.066114,-0.0524 -0.075916,-0.0376 -0.014176,0.0214 -0.01727,0.0178 -0.023167,-0.0274 -0.0013,-0.0107 -0.1123103,-0.11206 -0.2464735,-0.2253 -0.1341596,-0.11324 -0.2645112,-0.22336 -0.2896661,-0.24471 -0.025167,-0.0214 -0.045739,-0.0294 -0.045739,-0.0181 0,0.0115 -0.027064,6.5e-4 -0.060183,-0.0237 -0.033104,-0.0245 -0.055875,-0.0515 -0.050606,-0.06 0.00525,-0.009 -0.084278,-0.0948 -0.1989922,-0.19165 -0.1147179,-0.0968 -0.2291579,-0.19357 -0.2543136,-0.21489 -0.025166,-0.0213 -0.045733,-0.0295 -0.045733,-0.018 0,0.0115 -0.027099,6.4e-4 -0.060184,-0.0237 -0.033099,-0.0245 -0.055978,-0.0513 -0.050845,-0.0596 0.00512,-0.009 -0.04735,-0.064 -0.1166441,-0.12381 -0.069289,-0.0598 -0.1190482,-0.0973 -0.110574,-0.0833 0.027869,0.046 -0.022136,0.0265 -0.086479,-0.0335 l -0.063131,-0.0589 -0.063132,0.0589 c -0.064346,0.0601 -0.114341,0.0795 -0.086479,0.0335 0.00846,-0.0139 -0.041283,0.0235 -0.110574,0.0833 -0.069291,0.0598 -0.1217805,0.11549 -0.116644,0.12381 0.00512,0.009 -0.017754,0.0352 -0.050852,0.0596 -0.033098,0.0245 -0.060182,0.0352 -0.060182,0.0237 0,-0.0115 -0.020586,-0.003 -0.045739,0.018 -0.025166,0.0213 -0.1395957,0.11802 -0.2543128,0.21489 -0.1147145,0.0969 -0.204261,0.18312 -0.1989895,0.19165 0.00525,0.009 -0.017494,0.0354 -0.050606,0.06 -0.033104,0.0245 -0.060182,0.0352 -0.060182,0.0237 0,-0.0115 -0.020586,-0.003 -0.045739,0.0181 -0.025166,0.0214 -0.1555032,0.13147 -0.2896663,0.24471 -0.1341631,0.11324 -0.2450749,0.21463 -0.2464735,0.2253 -0.00587,0.0451 -0.00899,0.0488 -0.023167,0.0274 -0.0098,-0.0148 -0.035897,-0.002 -0.075916,0.0376 l -0.060981,0.0604 0.060981,-0.0355 0.060981,-0.0354 -0.060981,0.0521 c -0.033542,0.0287 -0.064095,0.0435 -0.067902,0.033 -0.00382,-0.0105 -0.063262,0.0286 -0.1321269,0.0867 -0.1632457,0.13796 -0.201328,0.17594 -0.1220768,0.12179 0.089109,-0.0609 0.1115856,-0.0552 0.027357,0.008 -0.037884,0.0279 -0.078537,0.0509 -0.090339,0.0509 -0.011795,6e-5 -0.048907,0.0237 -0.082446,0.0524 l -0.060981,0.0524 0.071146,-0.0443 0.071147,-0.0442 -0.058435,0.0538 c -0.032121,0.0296 -0.070548,0.0492 -0.085357,0.0436 -0.016402,-0.007 -0.022846,3.2e-4 -0.016499,0.0168 0.00976,0.0255 -0.089691,0.11347 -0.1274287,0.11273 -0.00944,-1.5e-4 0.012921,-0.0196 0.049725,-0.0433 0.036805,-0.0235 0.062674,-0.0471 0.0575,-0.0523 -0.018074,-0.0181 -0.1312212,0.0809 -0.1214869,0.10628 0.00539,0.014 -0.019078,0.0461 -0.05438,0.0713 -0.03531,0.025 -0.08849,0.0683 -0.1181744,0.096 -0.029679,0.0276 -0.092388,0.0683 -0.1393315,0.0905 -0.046947,0.0222 -0.09726,0.0551 -0.1118047,0.0733 -0.016402,0.0204 6.444e-4,0.0153 0.044701,-0.0137 l 0.071147,-0.0468 -0.058435,0.0538 c -0.032157,0.0296 -0.070548,0.0492 -0.085358,0.0436 -0.016402,-0.007 -0.022846,3.1e-4 -0.016499,0.0168 0.011119,0.029 -0.1078737,0.1261 -0.1288492,0.10513 -0.00683,-0.008 -0.00403,-0.0126 0.00629,-0.0128 0.01025,-2.3e-4 0.041508,-0.0195 0.069453,-0.0428 l 0.050818,-0.0424 -0.071145,0.0424 c -0.039132,0.0233 -0.06864,0.0556 -0.065574,0.0716 0.00321,0.0161 -0.021201,0.0483 -0.053958,0.0716 -0.067521,0.0481 -0.093223,0.0543 -0.070962,0.017 0.00835,-0.0139 -0.048279,0.0289 -0.1258466,0.0951 -0.1803039,0.15406 -0.218193,0.19164 -0.1378941,0.13676 0.035261,-0.0242 0.071689,-0.0439 0.080946,-0.0439 0.00926,0 -0.017466,0.0233 -0.059397,0.0519 -0.041924,0.0285 -0.086765,0.0452 -0.099648,0.0374 -0.015467,-0.01 -0.019106,-0.003 -0.010731,0.0187 0.00851,0.0222 -0.00649,0.0468 -0.045419,0.0745 -0.031966,0.0227 -0.065855,0.0413 -0.075311,0.041 -0.00944,-1.4e-4 0.012921,-0.0196 0.049725,-0.0433 0.036805,-0.0235 0.062681,-0.0471 0.0575,-0.0523 -0.018075,-0.0181 -0.1312179,0.0809 -0.1214836,0.10627 0.00539,0.014 -0.017337,0.0449 -0.050518,0.0685 -0.068257,0.0486 -0.094092,0.0549 -0.071757,0.0175 0.013761,-0.023 -0.2240897,0.17345 -0.2973738,0.24564 -0.045635,0.0449 0.097582,-0.0558 0.1504992,-0.10585 0.082316,-0.078 0.1340859,-0.11432 0.1340859,-0.0943 0,0.0109 -0.025167,0.0357 -0.055901,0.0554 -0.030739,0.0196 -0.080411,0.0597 -0.1103676,0.0889 -0.029966,0.0292 -0.089418,0.0696 -0.1321298,0.0897 -0.098327,0.0461 -0.1791409,0.10871 -0.1798368,0.13912 -9.648e-4,0.0366 -0.029869,0.0744 -0.05656,0.0737 -0.013308,-3.2e-4 -0.00644,-0.014 0.015241,-0.0306 0.021716,-0.0164 0.029096,-0.0298 0.016434,-0.0298 -0.024391,0 -0.055072,0.0383 -0.055594,0.0694 -1.515e-4,0.0105 -0.013018,0.0228 -0.028549,0.028 -0.019622,0.008 -0.023006,6.8e-4 -0.011085,-0.0186 0.016563,-0.027 -0.345306,0.27265 -0.4282146,0.35464 -0.035608,0.0353 -0.032693,0.0349 0.023457,-0.003 0.035266,-0.0242 0.071856,-0.0437 0.08131,-0.0437 0.00944,8e-5 -0.00638,0.0161 -0.035185,0.0355 -0.028806,0.0195 -0.09378,0.0697 -0.1443869,0.11168 -0.050607,0.0418 -0.1001082,0.0762 -0.1100034,0.0762 -0.00989,0 0.016206,-0.0244 0.057995,-0.0541 0.041795,-0.0298 0.075987,-0.0624 0.075987,-0.0726 0,-0.0105 -0.015015,-0.003 -0.033343,0.0148 -0.018335,0.0183 -0.055392,0.0478 -0.082336,0.0654 -0.026937,0.0178 -0.044691,0.0433 -0.039443,0.0569 0.00953,0.0249 -0.1039877,0.12334 -0.1217545,0.10558 -0.00519,-0.005 0.020687,-0.0288 0.057498,-0.0523 0.036806,-0.0236 0.056451,-0.043 0.043656,-0.0432 -0.012792,-1.5e-4 -0.053954,0.0286 -0.091473,0.0638 -0.037518,0.0353 -0.095659,0.081 -0.1291977,0.10155 -0.033539,0.0206 -0.051297,0.0374 -0.039458,0.0375 0.011825,4e-5 0.039281,-0.0133 0.060981,-0.0298 0.021717,-0.0163 0.048354,-0.0301 0.059229,-0.0305 0.060392,-0.002 -0.089134,0.0673 -0.157836,0.0731 -0.045226,0.004 -0.096693,0.0115 -0.1143727,0.0169 -0.01769,0.005 -0.04587,9.6e-4 -0.062638,-0.01 z m -0.50819109,-0.53801 c 0,-0.005 -0.0205898,-0.0195 -0.045738,-0.0316 -0.043921,-0.0213 -0.0441686,-0.0209 -0.006284,0.01 0.0414724,0.0332 0.0520149,0.0377 0.0520149,0.0222 z m 12.19656319,-0.0428 c 0,-0.005 -0.01829,-3.2e-4 -0.04066,0.0116 -0.02235,0.0119 -0.04066,0.0264 -0.04066,0.032 0,0.005 0.01829,3.3e-4 0.04066,-0.0116 0.02235,-0.0119 0.04066,-0.0264 0.04066,-0.0319 z m -9.8474699,-0.77653 c -0.00683,-0.008 -0.028164,0.004 -0.047479,0.0244 -0.033542,0.0351 -0.032995,0.0356 0.012376,0.0124 0.026129,-0.0135 0.041903,-0.0299 0.035091,-0.0367 z m 7.4691379,0.0259 c -0.01392,-0.0168 -0.03562,-0.0302 -0.04822,-0.0298 -0.0126,3.2e-4 -0.0052,0.014 0.01654,0.0305 0.05069,0.0384 0.06382,0.0381 0.03167,-6.5e-4 z m 1.748176,-0.22128 c 0,-0.004 -0.02517,-0.024 -0.0559,-0.0438 l -0.0559,-0.036 0.03873,0.0438 c 0.03427,0.0387 0.07308,0.0579 0.07308,0.036 z m -8.6074839,-0.31276 c -0.00683,-0.008 -0.028164,0.004 -0.047479,0.0244 -0.033549,0.0352 -0.033003,0.0356 0.012376,0.0124 0.026102,-0.0135 0.041903,-0.0299 0.035091,-0.0367 z m 6.2494807,0.0259 c -0.013917,-0.0168 -0.035623,-0.0302 -0.048224,-0.0298 -0.012601,3.2e-4 -0.00519,0.014 0.016532,0.0305 0.050687,0.0384 0.06382,0.0381 0.031671,-6.4e-4 z m -7.8349199,-0.37833 c 0.0076,-0.0123 -0.010219,-0.008 -0.039523,0.0126 -0.029321,0.0192 -0.053323,0.0387 -0.053323,0.0435 0,0.0147 0.078344,-0.0327 0.092846,-0.0561 z m 2.0582351,-0.042 c 0.00354,-0.009 0.038368,-0.035 0.077298,-0.0589 0.038928,-0.0242 0.066066,-0.0484 0.060306,-0.0543 -0.0098,-0.01 -0.2762489,0.19579 -0.2762489,0.21316 0,0.012 0.1311503,-0.0824 0.1386484,-0.1 z m 5.3904611,0.0986 c 0,-0.0164 -0.2669406,-0.2211 -0.2762495,-0.21179 -0.00574,0.005 0.021365,0.0302 0.060306,0.0543 0.038928,0.0242 0.073712,0.0504 0.077299,0.0587 0.00574,0.0132 0.1204822,0.10324 0.1335673,0.10491 0.00287,3.3e-4 0.00512,-0.002 0.00512,-0.007 z m -6.847811,-0.55758 c 0.025809,-0.033 0.024842,-0.0333 -0.01276,-0.005 -0.022362,0.0163 -0.044465,0.0324 -0.049124,0.0355 -0.00467,0.003 9.648e-4,0.005 0.01276,0.005 0.011664,0 0.033781,-0.0161 0.049124,-0.0355 z m 0.2358887,-0.19296 c 0.069804,-0.0729 0.044565,-0.073 -0.030223,-1.4e-4 -0.031577,0.0308 -0.079912,0.0723 -0.1074194,0.0923 -0.048159,0.0351 -0.04753,0.0351 0.016949,1.6e-4 0.036836,-0.0201 0.091144,-0.0615 0.1206846,-0.0924 z m 0.3739411,-0.31523 c 0.025808,-0.033 0.024846,-0.0333 -0.012757,-0.005 -0.022361,0.0163 -0.044469,0.0324 -0.049124,0.0355 -0.00463,0.003 9.553e-4,0.005 0.012757,0.005 0.011665,0 0.033781,-0.0161 0.049124,-0.0355 z m 2.4658021,-0.38933 c -0.00532,-0.005 -0.025522,0.008 -0.044811,0.0268 -0.033529,0.0351 -0.033091,0.0354 0.00974,0.01 0.024648,-0.0148 0.040436,-0.0312 0.035091,-0.0366 z m 2.0646601,0.0286 c -0.013917,-0.0168 -0.035085,-0.0305 -0.047029,-0.0305 -0.011952,0 -0.00395,0.0135 0.01772,0.0298 0.050989,0.0386 0.060947,0.0387 0.029289,6.4e-4 z m -3.9206355,-0.14757 c 0.025808,-0.0329 0.024846,-0.0333 -0.012757,-0.005 -0.02236,0.0163 -0.044464,0.0324 -0.049124,0.0355 -0.00463,0.003 9.553e-4,0.005 0.012757,0.005 0.011665,0 0.033781,-0.0161 0.049124,-0.0355 z m 2.465802,-0.38932 c -0.00532,-0.005 -0.025522,0.008 -0.044811,0.0268 -0.033521,0.0351 -0.033091,0.0354 0.00974,0.01 0.024648,-0.0148 0.040436,-0.0312 0.035091,-0.0366 z m 0.8450035,0.0286 c -0.013918,-0.0168 -0.035078,-0.0306 -0.04703,-0.0306 -0.011951,0 -0.00395,0.0134 0.01772,0.0298 0.050989,0.0386 0.060947,0.0388 0.029289,6.4e-4 z m -0.4970521,-0.30789 0.049848,-0.0538 0.049848,0.0538 c 0.02742,0.0296 0.056968,0.0538 0.06567,0.0538 0.00871,0 -0.013726,-0.0296 -0.049849,-0.0657 l -0.065671,-0.0656 -0.065671,0.0656 c -0.036122,0.0361 -0.058552,0.0657 -0.049848,0.0657 0.00871,0 0.038259,-0.0243 0.065677,-0.0538 z m 1.777694,-0.30122 c 0,-0.005 -0.020593,-0.0205 -0.045739,-0.0338 -0.041474,-0.0222 -0.043132,-0.0212 -0.017849,0.01 0.025972,0.0315 0.063575,0.046 0.063575,0.0244 z m -2.6399966,-0.65457 c 0.025296,-0.0307 0.023617,-0.0316 -0.01785,-0.01 -0.047303,0.0251 -0.058947,0.0433 -0.027903,0.0433 0.00983,0 0.030388,-0.0152 0.045739,-0.0339 z m 1.8878741,0.0244 c 0,-0.005 -0.020586,-0.0204 -0.045739,-0.0338 -0.041473,-0.0222 -0.043132,-0.0212 -0.017849,0.01 0.025972,0.0315 0.063575,0.046 0.063575,0.0244 z m -1.6656472,-0.20634 c 0.1411452,-0.11975 0.1442094,-0.12343 0.064852,-0.0778 -0.036334,0.0209 -0.066066,0.0449 -0.066066,0.0532 0,0.009 -0.034143,0.0384 -0.075866,0.0667 -0.041726,0.0284 -0.066339,0.0515 -0.054688,0.0515 0.011665,0 0.070945,-0.0422 0.1317692,-0.0938 z m 1.4569277,0.0423 c -0.041727,-0.0284 -0.075868,-0.0585 -0.075868,-0.0667 0,-0.009 -0.02974,-0.0323 -0.066066,-0.0532 -0.079361,-0.0457 -0.076297,-0.042 0.064852,0.0778 0.060825,0.0516 0.1201212,0.0938 0.1317693,0.0938 0.011632,0 -0.012956,-0.0232 -0.054688,-0.0515 z m -5.1811843,5.26231 c 0.012599,-0.0242 0.054386,-0.0633 0.092869,-0.0872 0.038482,-0.0237 0.074463,-0.0544 0.079963,-0.0679 0.0077,-0.019 0.010375,-0.019 0.0116,-1.6e-4 9.648e-4,0.0135 -0.022362,0.0409 -0.051642,0.0609 -0.029289,0.0201 -0.076294,0.0594 -0.1044684,0.0874 -0.045783,0.0455 -0.048793,0.0461 -0.028323,0.008 z m 8.7924253,-0.0124 c -0.02364,-0.0249 -0.0671,-0.0618 -0.09655,-0.082 -0.02945,-0.0201 -0.05283,-0.0476 -0.05194,-0.0609 0.0012,-0.0189 0.0039,-0.0189 0.0116,1.5e-4 0.0055,0.0136 0.04148,0.044 0.07997,0.0679 0.03848,0.0237 0.07933,0.0607 0.09075,0.0821 0.02688,0.0502 0.01911,0.0485 -0.03382,-0.008 z m -9.0739233,-0.27791 c 0.027935,-0.0236 0.073687,-0.0642 0.1016388,-0.0904 0.027935,-0.0261 0.078259,-0.0633 0.1118016,-0.083 0.048049,-0.028 0.05236,-0.0286 0.020332,-0.003 -0.022362,0.0181 -0.063523,0.0538 -0.091476,0.0793 -0.027935,0.0255 -0.082834,0.0673 -0.1219641,0.0929 -0.061152,0.0399 -0.064011,0.0406 -0.020332,0.003 z m 9.3604633,-0.008 c -0.03376,-0.0247 -0.08407,-0.065 -0.111801,-0.0897 -0.02774,-0.0247 -0.06871,-0.06 -0.09108,-0.0783 -0.03342,-0.0275 -0.0298,-0.027 0.02033,0.002 0.03354,0.0196 0.08385,0.0568 0.111802,0.083 0.02797,0.0262 0.07369,0.0655 0.101638,0.0879 0.06855,0.0546 0.04576,0.051 -0.03089,-0.005 z m -8.6896514,-0.0328 c 0.027935,-0.0228 0.059967,-0.0417 0.071145,-0.0417 0.02175,-1.5e-4 -0.015015,0.028 -0.08131,0.0622 -0.027001,0.014 -0.023586,0.008 0.010156,-0.0205 z m 8.0192384,-0.002 c -0.03354,-0.0222 -0.05183,-0.0403 -0.04066,-0.04 0.0204,3e-4 0.130902,0.0795 0.111801,0.0802 -0.0056,1.6e-4 -0.0376,-0.0179 -0.07115,-0.0401 z m -8.2181501,-0.35516 c 0.041133,-0.0279 0.081971,-0.0509 0.090748,-0.0509 0.0088,0 -0.01769,0.0228 -0.058822,0.0509 -0.041133,0.0279 -0.081971,0.0509 -0.090748,0.0509 -0.00876,0 0.01769,-0.0228 0.058822,-0.0509 z m 8.4118361,-6.8e-4 c -0.09285,-0.0655 -0.0609,-0.0647 0.03573,6.8e-4 0.04114,0.0279 0.0658,0.0503 0.05481,0.0499 -0.01099,-6.4e-4 -0.05172,-0.0234 -0.09054,-0.0509 z m -7.6640799,-0.0868 c 0,-0.01 0.025167,-0.0346 0.055903,-0.0569 0.082695,-0.0602 0.1245027,-0.0781 0.066066,-0.0285 -0.1047001,0.0891 -0.1219642,0.10124 -0.1219642,0.0854 z m 6.9215489,-0.008 c -0.01118,-0.0107 -0.04777,-0.042 -0.081314,-0.0698 -0.03354,-0.0277 -0.042692,-0.041 -0.020338,-0.0296 0.061482,0.0314 0.1429788,0.0994 0.1318268,0.1097 -0.0053,0.005 -0.01901,3.1e-4 -0.03019,-0.0105 z M 3.3303407,290.0827 c 0.014497,-0.0235 0.092846,-0.0708 0.092846,-0.0562 0,0.005 -0.024007,0.0243 -0.053323,0.0435 -0.029323,0.0192 -0.047112,0.0248 -0.039521,0.0126 z m 6.5163668,-0.0244 c -0.043781,-0.0359 -0.04464,-0.0386 -0.00621,-0.0199 0.024522,0.0119 0.050219,0.031 0.057097,0.042 0.01837,0.0297 0.00602,0.0243 -0.050888,-0.0223 z m -8.91365355,-0.23258 c 0.0223619,-0.0183 0.0589487,-0.042 0.0813105,-0.0531 l 0.040654,-0.02 -0.040654,0.0331 c -0.0223619,0.0182 -0.0589521,0.042 -0.0813105,0.053 l -0.040657,0.02 z m 2.71258515,-0.003 c 0.027324,-0.0204 0.081195,-0.0669 0.1197278,-0.10312 0.038531,-0.0363 0.080212,-0.0658 0.092623,-0.0653 0.012402,3.3e-4 0.0043,0.0137 -0.018075,0.0296 -0.02236,0.016 -0.058953,0.0465 -0.08131,0.0679 -0.022361,0.0214 -0.068093,0.0546 -0.1016378,0.0737 -0.060334,0.0343 -0.060456,0.0342 -0.011311,-0.003 z m 5.9159225,3.3e-4 c -0.027644,-0.0184 -0.068554,-0.0509 -0.090916,-0.072 -0.02236,-0.0212 -0.058948,-0.0515 -0.08131,-0.0674 -0.02236,-0.0159 -0.030512,-0.0292 -0.018075,-0.0296 0.012402,-3.2e-4 0.054095,0.0291 0.092624,0.0654 0.038531,0.0363 0.092411,0.0816 0.1197279,0.10061 0.064115,0.0446 0.044189,0.0473 -0.022041,0.003 z m -6.2806709,-0.23021 c 0.1060628,-0.0904 0.1219669,-0.10114 0.1219669,-0.083 0,0.0105 -0.025167,0.0362 -0.055903,0.0575 -0.086057,0.0596 -0.1226536,0.0737 -0.066066,0.0255 z m 6.6213533,-0.0114 c -0.041727,-0.0284 -0.075868,-0.0604 -0.075868,-0.0709 0,-0.0107 0.01601,-0.007 0.035575,0.01 0.019555,0.0161 0.058444,0.0478 0.086396,0.0703 0.071398,0.0577 0.044363,0.0523 -0.046102,-0.01 z m -8.6236199,-0.0406 c 0.033539,-0.0275 0.069617,-0.0501 0.080176,-0.0501 0.010568,-5e-5 -0.011793,0.0227 -0.049686,0.0507 -0.088408,0.0652 -0.1102838,0.0648 -0.030481,-6.5e-4 z m 2.6527502,0.0462 c 0,-0.004 0.027453,-0.0278 0.060981,-0.0525 0.033542,-0.0247 0.060981,-0.0376 0.060981,-0.0286 0,0.01 -0.027453,0.0328 -0.060981,0.0525 -0.033542,0.0198 -0.060981,0.0326 -0.060981,0.0286 z m 5.3004217,-0.0307 c -0.030737,-0.019 -0.055903,-0.0419 -0.055903,-0.0509 0,-0.01 0.027453,0.004 0.060988,0.0289 0.053603,0.0396 0.072521,0.0589 0.055903,0.0571 -0.00287,-3.2e-4 -0.030259,-0.0161 -0.060988,-0.0352 z m -7.8367724,-0.11781 c 0.0193,-0.0202 0.040663,-0.0311 0.047476,-0.0244 0.00683,0.008 -0.00899,0.0233 -0.035089,0.0367 -0.045387,0.0233 -0.045931,0.0227 -0.012373,-0.0124 z m 0.1681854,-0.13826 c 0.033539,-0.0286 0.07013,-0.052 0.081311,-0.052 0.023199,-9e-5 -0.040879,0.0523 -0.1016389,0.0832 -0.022362,0.0114 -0.013211,-0.003 0.020332,-0.0312 z m 10.07741,0.005 c -0.06929,-0.0444 -0.09172,-0.0742 -0.03048,-0.0405 0.04665,0.0257 0.119704,0.0822 0.106719,0.0825 -0.0055,1.6e-4 -0.03988,-0.0186 -0.07623,-0.0419 z m -9.9364871,-0.1171 c 0.0145,-0.0235 0.092845,-0.0708 0.092845,-0.0562 0,0.005 -0.024004,0.0243 -0.053323,0.0435 -0.029321,0.0192 -0.047115,0.0248 -0.039523,0.0126 z m 0.2554667,-0.20402 c 0,-0.0105 0.025165,-0.0376 0.055901,-0.0606 0.030739,-0.0229 0.074197,-0.059 0.096554,-0.0802 0.022362,-0.0212 0.0681,-0.0543 0.1016388,-0.0737 0.047116,-0.0272 0.051741,-0.0278 0.020332,-0.003 -0.069125,0.0554 -0.195986,0.16304 -0.2361627,0.2004 -0.021041,0.0195 -0.03826,0.027 -0.03826,0.0167 z m 0.3354042,-0.2966 c 0.022362,-0.0183 0.058948,-0.042 0.081311,-0.053 l 0.040654,-0.0201 -0.040654,0.0331 c -0.022362,0.0182 -0.058951,0.042 -0.081311,0.0531 l -0.040657,0.02 z m 2.7340217,-0.003 c 0.027938,-0.0204 0.069093,-0.0559 0.091476,-0.0789 0.022396,-0.0229 0.07271,-0.0627 0.1118402,-0.0883 l 0.071148,-0.0465 -0.060981,0.053 c -0.033542,0.0291 -0.07928,0.07 -0.1016388,0.0908 -0.022361,0.0207 -0.068101,0.0533 -0.1016388,0.0724 -0.060551,0.0344 -0.060627,0.0343 -0.010208,-0.003 z m 3.1502602,3.2e-4 c -0.027644,-0.0184 -0.068554,-0.0503 -0.090916,-0.0708 -0.02236,-0.0204 -0.068093,-0.061 -0.1016387,-0.0902 l -0.060981,-0.0531 0.071148,0.0465 c 0.039132,0.0256 0.08946,0.0653 0.1118402,0.0883 0.022396,0.0229 0.063547,0.0573 0.091477,0.0762 0.027938,0.019 0.045951,0.0351 0.040054,0.0355 -0.00587,6.5e-4 -0.033336,-0.014 -0.060982,-0.0325 z m -3.5262791,-0.2383 c 0.033542,-0.0286 0.070129,-0.052 0.08131,-0.0521 0.023201,-7e-5 -0.040879,0.0523 -0.1016388,0.0832 -0.022361,0.0114 -0.013209,-0.003 0.020334,-0.0312 z m 3.8978162,0.005 c -0.065179,-0.0417 -0.080624,-0.0592 -0.050818,-0.0579 0.016819,6.5e-4 0.1433464,0.10082 0.1270485,0.10051 -0.0056,-1.5e-4 -0.039896,-0.0192 -0.076228,-0.0425 z m -5.6968115,-0.21986 c 0,-0.0105 0.025167,-0.0364 0.055903,-0.0577 0.083121,-0.0575 0.1242486,-0.0748 0.06606,-0.0276 -0.027965,0.0225 -0.066824,0.0554 -0.086392,0.0727 -0.019556,0.0173 -0.035577,0.0229 -0.035577,0.0126 z m 2.1343997,-0.0624 c 0.027938,-0.0219 0.058913,-0.0399 0.068805,-0.0402 0.00989,-2.2e-4 -0.00525,0.0179 -0.033698,0.0402 -0.028416,0.0224 -0.059391,0.0405 -0.068806,0.0402 -0.00941,-2.3e-4 0.00574,-0.0183 0.033699,-0.0402 z m 3.2145928,-6.4e-4 c -0.062333,-0.052 -0.028648,-0.0513 0.037822,6.4e-4 0.027938,0.0219 0.041671,0.0396 0.030484,0.0396 -0.011181,-1.5e-4 -0.041923,-0.0182 -0.068316,-0.0402 z m -3.0824632,-0.11172 c 0.033542,-0.0275 0.069621,-0.05 0.08018,-0.0501 0.010566,-5e-5 -0.011795,0.0227 -0.049691,0.0507 -0.088405,0.0652 -0.1102804,0.0649 -0.030484,-6.5e-4 z m 2.9576665,6.4e-4 c -0.037884,-0.0279 -0.060244,-0.0508 -0.049685,-0.0506 0.020586,8e-5 0.1487526,0.0996 0.1298608,0.10082 -0.00621,3.2e-4 -0.042293,-0.0222 -0.080176,-0.0501 z m -2.835699,-0.10168 c 0.02236,-0.0183 0.058948,-0.042 0.08131,-0.053 l 0.040654,-0.02 -0.040654,0.0331 c -0.022362,0.0182 -0.058953,0.042 -0.08131,0.0531 l -0.040654,0.02 z m 2.6984882,-0.0121 c -0.069286,-0.0443 -0.091708,-0.0741 -0.030484,-0.0405 0.046641,0.0257 0.1197054,0.0822 0.1067201,0.0825 -0.0056,1.4e-4 -0.039891,-0.0188 -0.076229,-0.0419 z m -2.5663619,-0.0943 c 0,-0.01 0.027453,-0.0328 0.060988,-0.0525 0.033542,-0.0199 0.060981,-0.0327 0.060981,-0.0286 0,0.004 -0.027453,0.0278 -0.060981,0.0525 -0.033542,0.0247 -0.060988,0.0375 -0.060988,0.0286 z m 2.4088219,-0.0384 -0.060981,-0.0523 0.066066,0.0371 c 0.036334,0.0204 0.066066,0.0443 0.066066,0.053 0,0.0223 -0.00259,0.0209 -0.071148,-0.0377 z m -2.0530857,-0.2602 c 0.033542,-0.0285 0.07013,-0.0515 0.081311,-0.0513 0.023357,6.4e-4 -0.04146,0.0536 -0.1016388,0.0831 -0.022361,0.0109 -0.013208,-0.003 0.020334,-0.0319 z m 1.7422378,0.007 c -0.036805,-0.0235 -0.062491,-0.0473 -0.05707,-0.0526 0.00992,-0.01 0.13415,0.0711 0.13415,0.0874 0,0.0136 -0.00546,0.011 -0.07708,-0.0348 z m -1.0653842,-0.0105 c 0.025678,-0.0206 0.079561,-0.0672 0.1197272,-0.10355 0.040163,-0.0363 0.079616,-0.0661 0.087668,-0.0661 0.00805,0 0.0475,0.0298 0.087671,0.0661 0.040163,0.0363 0.094042,0.0829 0.1197246,0.10355 0.045979,0.0368 0.04576,0.037 -0.014273,0.003 -0.033542,-0.0192 -0.081935,-0.0567 -0.1075419,-0.0832 -0.025617,-0.0266 -0.064115,-0.0482 -0.085569,-0.0482 -0.02146,0 -0.059957,0.0217 -0.085569,0.0482 -0.025617,0.0265 -0.074003,0.064 -0.1075419,0.0832 -0.06004,0.0343 -0.060265,0.0343 -0.014273,-0.003 z m -0.5447655,-0.10245 c 0.027938,-0.0204 0.069092,-0.0563 0.091473,-0.0796 0.022396,-0.0234 0.068142,-0.0587 0.1016776,-0.0783 0.043036,-0.0253 0.049015,-0.0265 0.020334,-0.003 -0.02236,0.0179 -0.063528,0.0541 -0.091473,0.0805 -0.027965,0.0265 -0.078262,0.0639 -0.1118018,0.0831 -0.060394,0.0346 -0.060489,0.0346 -0.010208,-0.002 z m 1.4815925,-9.5e-4 c -0.029256,-0.0195 -0.074989,-0.0561 -0.1016387,-0.0812 -0.026648,-0.0252 -0.066748,-0.0605 -0.089111,-0.0783 -0.029419,-0.0235 -0.023781,-0.0226 0.020334,0.003 0.033542,0.0197 0.079294,0.0549 0.1016776,0.0783 0.022396,0.0233 0.063548,0.0579 0.091473,0.077 0.027938,0.019 0.046204,0.035 0.040613,0.0354 -0.0056,6.4e-4 -0.034095,-0.015 -0.063343,-0.0345 z m -3.5346399,-0.0105 c 0,-0.004 0.027453,-0.0278 0.060981,-0.0525 0.033542,-0.0247 0.060981,-0.0376 0.060981,-0.0286 0,0.01 -0.027453,0.0328 -0.060981,0.0525 -0.033542,0.0198 -0.060981,0.0327 -0.060981,0.0286 z m 0.188494,-0.15742 c 0.028423,-0.0224 0.05834,-0.0407 0.06647,-0.0407 0.00812,0 -0.00846,0.0183 -0.036906,0.0407 -0.028423,0.0224 -0.058332,0.0407 -0.066462,0.0407 -0.00812,0 0.00846,-0.0182 0.036898,-0.0407 z m 0.1570724,-0.13214 c 0.037884,-0.0279 0.073967,-0.0505 0.08018,-0.0501 0.01888,9.6e-4 -0.1092621,0.10072 -0.1298642,0.10082 -0.010566,7e-5 0.011795,-0.0227 0.049685,-0.0506 z m 2.1343997,-0.0564 c 0,-0.004 0.037563,-0.0381 0.083466,-0.075 0.05393,-0.0434 0.076145,-0.0535 0.062776,-0.0288 -0.01817,0.0335 -0.146246,0.1245 -0.146246,0.10375 z m 0.5809017,-0.0339 c -0.032682,-0.0216 -0.068251,-0.055 -0.079039,-0.0743 -0.010791,-0.0192 0.018239,-0.005 0.064503,0.0325 0.074747,0.0601 0.095591,0.0814 0.079039,0.081 -0.00287,-7e-5 -0.031836,-0.0178 -0.064504,-0.0394 z m -2.5877886,-0.0216 c 0.028422,-0.0224 0.059391,-0.0405 0.068808,-0.0402 0.022197,6.4e-4 -0.078799,0.0799 -0.1025054,0.0803 -0.00989,2.2e-4 0.00525,-0.0179 0.033698,-0.0402 z m 4.6381165,0.0108 c -0.021719,-0.0164 -0.02916,-0.0301 -0.016532,-0.0304 0.0126,-3.1e-4 0.034306,0.0131 0.048224,0.0298 0.032121,0.0387 0.01901,0.0389 -0.031671,6.4e-4 z m -0.1673607,-0.13604 c -0.036805,-0.0235 -0.062483,-0.0473 -0.05707,-0.0526 0.00992,-0.01 0.1341535,0.0712 0.1341535,0.0875 0,0.0136 -0.00546,0.011 -0.077083,-0.0348 z m -0.1414388,-0.12143 c -0.065179,-0.0417 -0.080624,-0.0592 -0.050818,-0.0579 0.016819,6.8e-4 0.1433465,0.10082 0.1270453,0.10051 -0.0056,-1.6e-4 -0.039891,-0.0192 -0.076227,-0.0425 z m -0.939579,-0.78126 c -0.038811,-0.0274 -0.061684,-0.0498 -0.050818,-0.0498 0.01086,6e-5 0.047201,0.0225 0.080737,0.0502 0.078307,0.0642 0.061227,0.064 -0.029904,-3.3e-4 z m -1.5556344,-0.48119 c 0.047678,-0.035 0.1648476,-0.0771 0.2113912,-0.076 0.017883,3.3e-4 -0.013209,0.0178 -0.069098,0.0384 -0.055903,0.0206 -0.1199342,0.0443 -0.1422926,0.0525 l -0.040654,0.015 z m 0.982002,0.0141 c -0.00588,-0.007 -0.059985,-0.0285 -0.1202692,-0.0501 -0.060285,-0.0217 -0.094968,-0.0397 -0.077073,-0.0402 0.017918,-3.4e-4 0.063637,0.01 0.1016389,0.0227 0.076249,0.0259 0.1616375,0.0781 0.1278282,0.0781 -0.011795,0 -0.026259,-0.005 -0.032121,-0.0106 z m -0.7036973,-0.13481 c 0.060831,-0.0171 0.3786067,-0.0171 0.439444,0 0.025808,0.008 -0.073062,0.0132 -0.2197233,0.0132 -0.1466617,0 -0.2455364,-0.007 -0.2197207,-0.0132 z m 3.2549762,0.009 c 0.232738,-0.003 0.607784,-0.003 0.833433,10e-6 0.225649,0.003 0.03523,0.007 -0.42316,0.007 -0.4583857,0 -0.643011,-0.003 -0.410273,-0.007 z"
       id="path5136"
       inkscape:connector-curvature="0" />
  </g>
</svg>
