<?xml version="1.0" encoding="UTF-8" standalone="no"?>
<!-- Created with Inkscape (http://www.inkscape.org/) -->

<svg
   xmlns:dc="http://purl.org/dc/elements/1.1/"
   xmlns:cc="http://creativecommons.org/ns#"
   xmlns:rdf="http://www.w3.org/1999/02/22-rdf-syntax-ns#"
   xmlns:svg="http://www.w3.org/2000/svg"
   xmlns="http://www.w3.org/2000/svg"
   xmlns:sodipodi="http://sodipodi.sourceforge.net/DTD/sodipodi-0.dtd"
   xmlns:inkscape="http://www.inkscape.org/namespaces/inkscape"
   width="50"
   height="50"
   viewBox="0 0 13.229166 13.229167"
   version="1.1"
   id="svg8"
   inkscape:version="0.91 r13725"
   sodipodi:docname="petanque.svg">
  <defs
     id="defs2" />
  <sodipodi:namedview
     id="base"
     pagecolor="#ffffff"
     bordercolor="#666666"
     borderopacity="1.0"
     inkscape:pageopacity="0"
     inkscape:pageshadow="2"
     inkscape:zoom="3.959798"
     inkscape:cx="-32.0286"
     inkscape:cy="12.01222"
     inkscape:document-units="mm"
     inkscape:current-layer="layer1"
     showgrid="false"
     units="px"
     inkscape:pagecheckerboard="true"
     inkscape:window-width="1853"
     inkscape:window-height="1059"
     inkscape:window-x="67"
     inkscape:window-y="21"
     inkscape:window-maximized="1" />
  <metadata
     id="metadata5">
    <rdf:RDF>
      <cc:Work
         rdf:about="">
        <dc:format>image/svg+xml</dc:format>
        <dc:type
           rdf:resource="http://purl.org/dc/dcmitype/StillImage" />
        <dc:title></dc:title>
      </cc:Work>
    </rdf:RDF>
  </metadata>
  <g
     inkscape:label="Layer 1"
     inkscape:groupmode="layer"
     id="layer1"
     transform="translate(0,-283.77082)">
    <path
       style="fill:#808080;fill-opacity:1"
       d="m 11.450376,295.98512 c -0.167391,-0.14084 -0.209618,-0.31916 -0.124065,-0.52392 0.07498,-0.17945 0.185819,-0.25262 0.382685,-0.25262 0.187904,0 0.34269,0.11117 0.401063,0.28804 0.06477,0.19624 0.01897,0.35496 -0.141311,0.48984 -0.168613,0.14187 -0.348726,0.14141 -0.518372,-9e-4 z M 7.69648,295.67761 c -0.09328,-0.0334 -0.2110356,-0.0975 -0.2616778,-0.1426 -0.1915619,-0.17059 -0.2131367,-0.31129 -0.2131367,-1.38997 l 0,-1.02196 -1.246459,-1.26729 c -1.3918448,-1.4151 -1.4279298,-1.46536 -1.4279298,-1.98851 0,-0.24089 0.023422,-0.35482 0.1039166,-0.50549 0.057155,-0.10698 0.4477518,-0.55197 0.8679937,-0.98888 l 0.7640764,-0.79437 -1.0307312,-0.0291 c -0.5669024,-0.0161 -1.4077144,-0.0292 -1.8684716,-0.0293 l -0.8377398,-1e-4 -0.1511044,-0.15111 c -0.1285137,-0.1285 -0.1511045,-0.18199 -0.1511045,-0.35773 0,-0.2673 0.091577,-0.43895 0.2825239,-0.52956 0.1365485,-0.0648 0.4483986,-0.0727 2.8826506,-0.0727 3.0826381,0 3.043432,-0.004 3.3942502,0.31968 0.3083372,0.28422 0.3969094,0.67926 0.257834,1.14996 -0.065939,0.22318 -0.1456828,0.31685 -1.056785,1.24135 -0.5420057,0.54997 -1.0232982,1.04529 -1.0695401,1.10071 l -0.084076,0.10076 0.802386,0.81031 c 0.4413115,0.44567 0.8247051,0.854 0.8519842,0.90739 0.033635,0.0658 0.049601,0.58499 0.049601,1.61324 0,1.23704 -0.011858,1.53911 -0.06439,1.6407 -0.076894,0.1487 -0.3580087,0.40437 -0.4446061,0.40437 -0.033817,0 -0.088117,0.009 -0.1206704,0.0203 -0.032556,0.0112 -0.1355084,-0.007 -0.2287892,-0.0402 z m -6.2882479,-0.64788 c -0.1565599,-0.0955 -0.3178029,-0.38833 -0.3174824,-0.57667 4.369e-4,-0.25307 0.1935687,-0.4793 1.7473735,-2.04672 l 1.5939664,-1.60793 0.4614964,0.45993 c 0.2538236,0.25296 0.461497,0.47836 0.461497,0.50089 0,0.0505 -3.086731,3.1747 -3.2429846,3.2824 -0.1577209,0.10871 -0.5159858,0.10265 -0.7038663,-0.0119 z M 2.48219,288.67591 c -0.2633796,-0.10628 -0.3229651,-0.50007 -0.1081694,-0.71486 0.3517804,-0.35178 0.8718863,0.0538 0.6614034,0.51574 -0.089923,0.19737 -0.3371264,0.28634 -0.553234,0.19912 z m 6.745478,-1.88335 c -0.082201,-0.0298 -0.2274917,-0.1196 -0.322867,-0.19968 -0.5995966,-0.50339 -0.4868175,-1.46919 0.2114549,-1.81083 0.209231,-0.10236 0.2811276,-0.11523 0.5403366,-0.0967 0.4432505,0.0318 0.7082045,0.20295 0.9125155,0.58974 0.131703,0.24934 0.131506,0.73046 -4.03e-4,0.97831 -0.257263,0.48343 -0.8436135,0.71914 -1.3410423,0.53914 z"
       id="path4379"
       inkscape:connector-curvature="0" />
  </g>
</svg>
