<?xml version="1.0" encoding="UTF-8" standalone="no"?>
<!-- Created with Inkscape (http://www.inkscape.org/) -->

<svg
   xmlns:dc="http://purl.org/dc/elements/1.1/"
   xmlns:cc="http://creativecommons.org/ns#"
   xmlns:rdf="http://www.w3.org/1999/02/22-rdf-syntax-ns#"
   xmlns:svg="http://www.w3.org/2000/svg"
   xmlns="http://www.w3.org/2000/svg"
   xmlns:sodipodi="http://sodipodi.sourceforge.net/DTD/sodipodi-0.dtd"
   xmlns:inkscape="http://www.inkscape.org/namespaces/inkscape"
   width="50"
   height="50"
   viewBox="0 0 13.229166 13.229167"
   version="1.1"
   id="svg8"
   inkscape:version="0.91 r13725"
   sodipodi:docname="foot.svg">
  <defs
     id="defs2" />
  <sodipodi:namedview
     id="base"
     pagecolor="#ffffff"
     bordercolor="#666666"
     borderopacity="1.0"
     inkscape:pageopacity="0"
     inkscape:pageshadow="2"
     inkscape:zoom="1.4"
     inkscape:cx="225.64148"
     inkscape:cy="-24.933298"
     inkscape:document-units="mm"
     inkscape:current-layer="layer1"
     showgrid="false"
     units="px"
     inkscape:pagecheckerboard="true"
     inkscape:window-width="1853"
     inkscape:window-height="1059"
     inkscape:window-x="67"
     inkscape:window-y="21"
     inkscape:window-maximized="1" />
  <metadata
     id="metadata5">
    <rdf:RDF>
      <cc:Work
         rdf:about="">
        <dc:format>image/svg+xml</dc:format>
        <dc:type
           rdf:resource="http://purl.org/dc/dcmitype/StillImage" />
        <dc:title></dc:title>
      </cc:Work>
    </rdf:RDF>
  </metadata>
  <g
     inkscape:label="Layer 1"
     inkscape:groupmode="layer"
     id="layer1"
     transform="translate(0,-283.77082)">
    <path
       style="fill:#808080;fill-opacity:1"
       d="m 7.1174039,296.5705 c -0.0955,-0.0367 -0.187571,-0.10113 -0.288399,-0.20196 -0.412495,-0.41249 -0.416467,-1.00042 -0.0095,-1.4107 0.157363,-0.15865 0.305949,-0.23568 0.521274,-0.27024 0.654032,-0.10498 1.218172,0.45043 1.128522,1.11106 -0.04341,0.31988 -0.309748,0.66712 -0.592971,0.77308 -0.203387,0.0761 -0.55893,0.0755 -0.758897,-10e-4 z m 2.744705,-0.16714 c -0.183724,-0.0785 -0.32257,-0.22381 -0.36699,-0.38412 -0.01449,-0.0523 -0.08517,-0.78432 -0.157081,-1.62677 l -0.130744,-1.53173 -0.233648,-0.30474 c -0.801816,-1.04578 -1.435092,-1.85804 -1.447608,-1.85677 -0.007,6.8e-4 -0.08453,0.0956 -0.17223,0.21077 -0.0877,0.1152 -0.257861,0.33597 -0.378141,0.49059 -0.120279,0.15462 -0.315718,0.40763 -0.434309,0.56225 -0.11859,0.15463 -0.310699,0.40367 -0.426907,0.55344 -0.116209,0.14977 -0.320386,0.41428 -0.453728,0.58781 -0.133342,0.17353 -0.282851,0.36044 -0.332242,0.41536 -0.18085,0.20108 -0.479967,0.27343 -0.706033,0.17077 -0.108388,-0.0492 -0.33215,-0.18759 -0.993866,-0.61459 -0.210846,-0.13605 -0.498363,-0.32007 -0.638927,-0.40894 -0.433858,-0.27428 -0.548878,-0.41938 -0.547795,-0.69107 0.0015,-0.37473 0.260102,-0.63968 0.623095,-0.63836 0.193943,6.7e-4 0.277012,0.038 0.709424,0.31866 0.186883,0.12129 0.471488,0.3051 0.632455,0.40846 l 0.292668,0.18792 0.231252,-0.34144 c 0.527106,-0.77825 1.551911,-2.34564 1.559279,-2.38483 0.01366,-0.0727 0.04616,-1.46064 0.0342,-1.46064 -0.0062,0 -0.125539,0.14542 -0.265098,0.32316 -0.471377,0.60035 -0.81888,0.99724 -0.965044,1.1022 -0.312154,0.22418 -0.692292,0.10126 -0.747113,-0.24158 -0.02866,-0.17925 0.02363,-0.27608 0.293586,-0.54362 0.135422,-0.13421 0.326401,-0.34586 0.424397,-0.47033 0.340564,-0.43256 0.832042,-1.07877 1.03302,-1.35824 0.288873,-0.40169 0.436731,-0.57807 0.53047,-0.63279 0.137429,-0.0802 0.657951,-0.12863 1.209214,-0.11243 0.26031,0.008 0.491573,0.0209 0.513917,0.0295 0.05208,0.02 0.299457,-0.28822 1.178525,-1.46832 0.172317,-0.23133 0.3423261,-0.44152 0.3777971,-0.46709 0.15392,-0.11094 0.386448,-0.0883 0.533466,0.0519 0.198998,0.18979 0.194809,0.38331 -0.01451,0.67063 -0.277734,0.38122 -0.8700561,1.17402 -0.9922011,1.32802 -0.07246,0.0914 -0.221417,0.27879 -0.331006,0.4165 -0.195242,0.24534 -0.199666,0.25408 -0.219795,0.43447 -0.0113,0.10125 -0.04599,0.82238 -0.07709,1.60251 l -0.05655,1.41842 0.205857,0.30669 c 0.617664,0.92019 1.2409651,1.87201 1.2630121,1.92869 0.02304,0.0592 0.107485,0.98083 0.254158,2.77381 0.03105,0.37952 0.04828,0.73245 0.03831,0.78428 -0.02705,0.1405 -0.165944,0.32852 -0.306651,0.41512 -0.155967,0.096 -0.381652,0.11531 -0.5427861,0.0465 z m -2.134363,-10.51811 c -0.259441,-0.10902 -0.391364,-0.23158 -0.500559,-0.46502 -0.06193,-0.13239 -0.07173,-0.18477 -0.07173,-0.38336 0,-0.19853 0.0099,-0.2514 0.07225,-0.38635 0.08995,-0.19463 0.239683,-0.34358 0.438891,-0.43657 0.132264,-0.0617 0.18496,-0.0716 0.383356,-0.0716 0.198396,0 0.251092,0.01 0.383357,0.0716 0.199207,0.093 0.348944,0.24194 0.43889,0.43657 0.06236,0.13495 0.07225,0.18782 0.07225,0.38635 0,0.19962 -0.0097,0.25112 -0.07374,0.38968 -0.143231,0.31012 -0.435414,0.49801 -0.795198,0.51135 -0.168507,0.006 -0.229655,-0.003 -0.347769,-0.0526 z"
       id="path5934"
       inkscape:connector-curvature="0" />
  </g>
</svg>
