<?xml version="1.0" encoding="UTF-8" standalone="no"?>
<!-- Created with Inkscape (http://www.inkscape.org/) -->

<svg
   xmlns:dc="http://purl.org/dc/elements/1.1/"
   xmlns:cc="http://creativecommons.org/ns#"
   xmlns:rdf="http://www.w3.org/1999/02/22-rdf-syntax-ns#"
   xmlns:svg="http://www.w3.org/2000/svg"
   xmlns="http://www.w3.org/2000/svg"
   xmlns:sodipodi="http://sodipodi.sourceforge.net/DTD/sodipodi-0.dtd"
   xmlns:inkscape="http://www.inkscape.org/namespaces/inkscape"
   width="50"
   height="50"
   viewBox="0 0 13.229166 13.229167"
   version="1.1"
   id="svg8"
   inkscape:version="0.91 r13725"
   sodipodi:docname="pompoms.svg">
  <defs
     id="defs2" />
  <sodipodi:namedview
     id="base"
     pagecolor="#ffffff"
     bordercolor="#666666"
     borderopacity="1.0"
     inkscape:pageopacity="0"
     inkscape:pageshadow="2"
     inkscape:zoom="3.959798"
     inkscape:cx="-32.0286"
     inkscape:cy="12.01222"
     inkscape:document-units="mm"
     inkscape:current-layer="layer1"
     showgrid="false"
     units="px"
     inkscape:pagecheckerboard="true"
     inkscape:window-width="1853"
     inkscape:window-height="1059"
     inkscape:window-x="67"
     inkscape:window-y="21"
     inkscape:window-maximized="1" />
  <metadata
     id="metadata5">
    <rdf:RDF>
      <cc:Work
         rdf:about="">
        <dc:format>image/svg+xml</dc:format>
        <dc:type
           rdf:resource="http://purl.org/dc/dcmitype/StillImage" />
        <dc:title></dc:title>
      </cc:Work>
    </rdf:RDF>
  </metadata>
  <g
     inkscape:label="Layer 1"
     inkscape:groupmode="layer"
     id="layer1"
     transform="translate(0,-283.77082)">
    <path
       style="fill:#808080;fill-opacity:1"
       d="m 5.8528935,296.50012 c -0.07191,-0.0419 -0.07734,-0.19004 -0.07734,-2.11101 0,-1.59389 -0.01262,-2.07857 -0.05524,-2.12113 -0.04046,-0.0404 -0.06115,-0.38789 -0.07734,-1.29917 l -0.02209,-1.244 -0.229792,0.44612 c -0.20776,0.40335 -0.221804,0.4482 -0.146481,0.4679 0.05964,0.0156 0.07638,0.0483 0.05892,0.11505 -0.01786,0.0683 -0.004,0.0933 0.05184,0.0933 0.05881,0 0.07003,0.0247 0.04909,0.10814 -0.01912,0.0762 -0.0048,0.12063 0.04836,0.1504 0.06367,0.0356 0.06633,0.0532 0.01694,0.11282 -0.04864,0.0586 -0.04857,0.0826 4.17e-4,0.14162 0.04976,0.06 0.04765,0.0794 -0.0135,0.12407 -0.04959,0.0363 -0.05974,0.0731 -0.03215,0.11675 0.0618,0.0977 0.04997,0.13003 -0.04754,0.13003 -0.07311,0 -0.08421,0.02 -0.0615,0.11048 0.02058,0.082 0.0102,0.11048 -0.04027,0.11048 -0.03741,0 -0.07436,0.0447 -0.08213,0.0994 -0.01061,0.0747 -0.03885,0.096 -0.113552,0.0856 -0.0757,-0.0105 -0.09943,0.008 -0.09943,0.0782 0,0.076 -0.01913,0.0872 -0.110478,0.0642 -0.08354,-0.021 -0.110478,-0.0104 -0.110478,0.0434 0,0.0801 -0.03675,0.0885 -0.130032,0.0294 -0.04365,-0.0276 -0.08195,-0.017 -0.121526,0.0339 -0.05403,0.0693 -0.0616,0.0692 -0.116504,-9.1e-4 -0.05342,-0.0686 -0.065,-0.0691 -0.12826,-0.006 -0.06326,0.0632 -0.07409,0.0611 -0.119901,-0.0246 -0.04099,-0.0766 -0.06647,-0.0855 -0.136889,-0.0478 -0.07274,0.0389 -0.08653,0.0319 -0.08653,-0.0436 0,-0.0665 -0.02882,-0.0899 -0.110479,-0.0899 -0.08102,0 -0.110479,-0.0236 -0.110479,-0.0884 0,-0.0605 -0.02946,-0.0884 -0.09354,-0.0884 -0.07342,0 -0.08829,-0.0201 -0.06914,-0.0933 0.01762,-0.0674 6.35e-4,-0.0995 -0.06113,-0.11563 -0.09292,-0.0243 -0.111444,-0.0792 -0.04134,-0.12254 0.06678,-0.0413 0.05295,-0.11048 -0.02209,-0.11048 -0.0738,0 -0.09056,-0.11235 -0.023,-0.15411 0.02723,-0.0169 0.02313,-0.0593 -0.01105,-0.11444 -0.04374,-0.0706 -0.04264,-0.095 0.0056,-0.125 0.03773,-0.0235 0.04889,-0.0722 0.03009,-0.13145 -0.02095,-0.066 -0.0081,-0.10247 0.04302,-0.12209 0.0446,-0.0171 0.06454,-0.0599 0.05138,-0.11026 -0.01543,-0.059 0.0024,-0.0823 0.06273,-0.0823 0.0614,0 0.08425,-0.0314 0.08425,-0.11562 0,-0.0939 0.01663,-0.11129 0.08839,-0.0925 0.06687,0.0175 0.08838,9.1e-4 0.08838,-0.0663 0,-0.0727 0.02172,-0.0853 0.115945,-0.0672 0.0872,0.0167 0.121276,0.002 0.137452,-0.0601 0.01775,-0.0679 0.03726,-0.0738 0.111493,-0.0341 0.0719,0.0385 0.09837,0.0332 0.131699,-0.0264 0.0381,-0.068 0.0484,-0.0685 0.118921,-0.005 0.127608,0.11547 0.120835,0.12609 0.889829,-1.39409 0.191942,-0.37944 0.375769,-0.71213 0.408504,-0.73929 0.03858,-0.032 0.384714,-0.0536 0.983957,-0.0613 l 0.92444,-0.012 0.06031,-0.17676 c 0.05513,-0.16156 0.127761,-0.41371 0.2928,-1.01641 0.03328,-0.12152 0.08526,-0.30931 0.115502,-0.4173 0.04169,-0.14885 0.04248,-0.20052 0.0033,-0.21359 -0.02845,-0.01 -0.05173,-0.0531 -0.05173,-0.0968 0,-0.044 -0.04206,-0.0905 -0.09412,-0.10417 -0.06242,-0.0163 -0.0853,-0.0476 -0.06794,-0.0929 0.01612,-0.042 -0.0083,-0.0867 -0.0634,-0.11619 -0.07255,-0.0388 -0.07939,-0.0602 -0.03599,-0.11254 0.0431,-0.0519 0.03748,-0.0764 -0.02863,-0.12471 -0.06979,-0.0511 -0.07331,-0.0709 -0.02324,-0.13119 0.04864,-0.0586 0.04884,-0.0833 0.0012,-0.14073 -0.04577,-0.0552 -0.04636,-0.0768 -0.0028,-0.10362 0.03485,-0.0215 0.04418,-0.0769 0.02551,-0.1513 -0.02334,-0.093 -0.01365,-0.11733 0.04678,-0.11733 0.05581,0 0.0697,-0.025 0.05184,-0.0933 -0.01744,-0.0667 -7.35e-4,-0.0995 0.05865,-0.11499 0.04567,-0.012 0.08913,-0.0644 0.09657,-0.11664 0.01001,-0.0702 0.03945,-0.0913 0.112962,-0.0811 0.07632,0.0106 0.09943,-0.008 0.09943,-0.0803 0,-0.0729 0.01927,-0.088 0.0851,-0.0671 0.05563,0.0177 0.100064,3.3e-4 0.128297,-0.0502 0.03684,-0.0659 0.05377,-0.0684 0.11514,-0.0175 0.06149,0.051 0.08138,0.0476 0.136884,-0.0242 0.06098,-0.0787 0.06774,-0.0792 0.110879,-0.007 0.03845,0.0641 0.06045,0.0677 0.134994,0.0221 0.07414,-0.0454 0.09602,-0.0423 0.130688,0.0187 0.02581,0.0454 0.07526,0.0644 0.130122,0.0501 0.06158,-0.0161 0.08849,-9.1e-4 0.08849,0.0483 0,0.0467 0.0382,0.0715 0.110479,0.0715 0.07873,0 0.110478,0.0239 0.110478,0.0832 0,0.0473 0.03991,0.0937 0.09235,0.10738 0.06992,0.0183 0.08529,0.0464 0.06331,0.11563 -0.02152,0.0678 -0.0098,0.0915 0.04538,0.0915 0.05465,0 0.06775,0.0255 0.04928,0.0961 -0.01608,0.0614 0.0014,0.11548 0.04841,0.14988 0.06498,0.0475 0.06602,0.0629 0.0089,0.13203 -0.04955,0.06 -0.05174,0.0826 -0.0094,0.0969 0.0786,0.0265 0.06841,0.12928 -0.01602,0.16168 -0.05998,0.0231 -0.06199,0.0385 -0.01272,0.0979 0.04947,0.0596 0.04596,0.0797 -0.02266,0.12993 -0.0452,0.033 -0.06995,0.0887 -0.05582,0.12553 0.0158,0.0412 -0.0072,0.0765 -0.06074,0.0935 -0.04737,0.0151 -0.08613,0.0658 -0.08613,0.11275 0,0.055 -0.03046,0.0854 -0.0854,0.0854 -0.04697,0 -0.09713,0.0369 -0.111453,0.0821 -0.0189,0.0595 -0.05612,0.0763 -0.135553,0.0611 -0.08002,-0.0153 -0.109504,-0.002 -0.109504,0.0505 0,0.085 -0.05015,0.092 -0.124837,0.0173 -0.07576,-0.0757 -0.253856,0.1377 -0.294168,0.35258 -0.01681,0.0896 -0.0568,0.24307 -0.08886,0.34102 -0.03206,0.0979 -0.141455,0.47638 -0.243104,0.84096 -0.101649,0.36457 -0.202957,0.68175 -0.225128,0.70484 -0.0229,0.0239 -0.04031,0.7979 -0.04031,1.79236 0,1.47063 -0.01037,1.76409 -0.06488,1.83616 -0.05482,0.0725 -0.0651,0.40144 -0.06629,2.1208 -0.0011,1.52227 -0.01477,2.04838 -0.05444,2.08805 -0.07194,0.072 -0.838403,0.072 -0.910345,0 -0.0397,-0.0397 -0.05303,-0.56173 -0.05303,-2.077 0,-1.99452 -0.0013,-2.02397 -0.08839,-2.02397 -0.08709,0 -0.08839,0.0295 -0.08839,2.01071 0,2.37224 0.04368,2.18834 -0.51925,2.18614 -0.188367,-6.7e-4 -0.377285,-0.0216 -0.41982,-0.0464 z m 0.67392,-8.61751 c -0.262738,-0.11911 -0.390713,-0.24282 -0.491432,-0.47501 -0.115889,-0.26717 -0.105655,-0.51917 0.03233,-0.79606 0.159129,-0.31933 0.45371,-0.49188 0.840789,-0.49247 0.233757,-3.3e-4 0.300231,0.0194 0.48144,0.14322 0.634867,0.4337 0.530137,1.34733 -0.188885,1.64776 -0.212357,0.0887 -0.438268,0.0796 -0.674236,-0.0275 z"
       id="path4347"
       inkscape:connector-curvature="0" />
  </g>
</svg>
