<?xml version="1.0" encoding="UTF-8" standalone="no"?>
<!-- Created with Inkscape (http://www.inkscape.org/) -->

<svg
   xmlns:dc="http://purl.org/dc/elements/1.1/"
   xmlns:cc="http://creativecommons.org/ns#"
   xmlns:rdf="http://www.w3.org/1999/02/22-rdf-syntax-ns#"
   xmlns:svg="http://www.w3.org/2000/svg"
   xmlns="http://www.w3.org/2000/svg"
   xmlns:sodipodi="http://sodipodi.sourceforge.net/DTD/sodipodi-0.dtd"
   xmlns:inkscape="http://www.inkscape.org/namespaces/inkscape"
   width="50"
   height="50"
   viewBox="0 0 13.229166 13.229167"
   version="1.1"
   id="svg8"
   inkscape:version="0.91 r13725"
   sodipodi:docname="volley.svg">
  <defs
     id="defs2" />
  <sodipodi:namedview
     id="base"
     pagecolor="#ffffff"
     bordercolor="#666666"
     borderopacity="1.0"
     inkscape:pageopacity="0"
     inkscape:pageshadow="2"
     inkscape:zoom="3.959798"
     inkscape:cx="-63.800837"
     inkscape:cy="-10.3181"
     inkscape:document-units="mm"
     inkscape:current-layer="layer1"
     showgrid="false"
     units="px"
     inkscape:pagecheckerboard="true"
     inkscape:window-width="1853"
     inkscape:window-height="1059"
     inkscape:window-x="67"
     inkscape:window-y="21"
     inkscape:window-maximized="1" />
  <metadata
     id="metadata5">
    <rdf:RDF>
      <cc:Work
         rdf:about="">
        <dc:format>image/svg+xml</dc:format>
        <dc:type
           rdf:resource="http://purl.org/dc/dcmitype/StillImage" />
        <dc:title />
      </cc:Work>
    </rdf:RDF>
  </metadata>
  <g
     inkscape:label="Layer 1"
     inkscape:groupmode="layer"
     id="layer1"
     transform="translate(0,-283.77082)">
    <path
       style="fill:#808080;fill-opacity:1"
       d="m 4.1644694,296.591 c -0.038323,-0.0189 -0.1102517,-0.0922 -0.1597943,-0.1628 -0.095306,-0.13587 -0.1111791,-0.21628 -0.06339,-0.32116 0.014657,-0.0322 0.4582066,-0.44678 0.985629,-0.92126 1.2552753,-1.12925 1.1256597,-0.99892 1.1256597,-1.132 0,-0.0609 0.014871,-0.15301 0.033046,-0.20456 0.018176,-0.0515 0.033046,-0.13278 0.033046,-0.18054 0,-0.0478 0.0105,-0.10649 0.023346,-0.1305 0.012846,-0.0239 0.020308,-0.0754 0.016523,-0.11426 -0.00581,-0.0599 -0.022919,-0.0305 -0.1127674,0.19387 -0.058262,0.14547 -0.1152939,0.28171 -0.1267375,0.30276 -0.011459,0.021 -0.020787,0.0489 -0.020787,0.062 0,0.0385 -0.1122237,0.267 -0.1805707,0.3676 -0.072888,0.10729 -0.210243,0.19423 -0.3373962,0.21357 -0.082034,0.0124 -0.2709255,-0.006 -0.5620463,-0.0547 -0.066673,-0.0111 -0.1807361,-0.0293 -0.2534696,-0.0405 -0.072734,-0.0111 -0.2115969,-0.0363 -0.3085767,-0.0559 -0.1882673,-0.0381 -0.3812464,-0.071 -0.5951032,-0.10132 -0.1399932,-0.0198 -0.258096,-0.0406 -0.5620463,-0.0985 -0.1030455,-0.0196 -0.2518226,-0.0458 -0.3306164,-0.0582 -0.078799,-0.0123 -0.1767332,-0.0279 -0.2176305,-0.0344 -0.046957,-0.007 -0.1067445,-0.0443 -0.1621502,-0.0997 -0.087785,-0.0878 -0.087791,-0.0878 -0.079247,-0.23902 0.00954,-0.16865 0.050902,-0.24514 0.1704543,-0.31514 0.06847,-0.0401 0.090339,-0.0402 0.7581115,-0.005 0.3781869,0.02 0.8165552,0.0461 0.9741482,0.0579 0.452285,0.0338 0.627046,0.0292 0.6418795,-0.0173 0.00677,-0.0212 0.020468,-0.0584 0.030434,-0.0826 0.00997,-0.0243 0.054425,-0.14327 0.098851,-0.2645 0.077536,-0.21159 0.092135,-0.24923 0.153814,-0.39674 0.015191,-0.0364 0.038003,-0.0909 0.050635,-0.12122 0.012633,-0.0304 0.050048,-0.12453 0.083159,-0.2094 0.033099,-0.0849 0.074407,-0.18899 0.091799,-0.23143 0.03278,-0.0799 0.049889,-0.12222 0.092023,-0.22695 0.013645,-0.0339 0.024838,-0.13805 0.024891,-0.23143 6.39e-5,-0.0934 0.00975,-0.20449 0.021533,-0.24693 0.022066,-0.0795 0.059195,-0.40356 0.088378,-0.77144 0.025317,-0.31914 0.06412,-0.66034 0.088473,-0.77802 0.034272,-0.16559 0.037843,-0.16104 -0.1489264,-0.18985 -0.093947,-0.0145 -0.2102537,-0.0368 -0.2584584,-0.0496 -0.048184,-0.0128 -0.147386,-0.033 -0.2204074,-0.045 -0.073027,-0.012 -0.1873239,-0.0307 -0.2539973,-0.0415 -0.066673,-0.0109 -0.1807359,-0.0293 -0.2534696,-0.0408 -0.072739,-0.0115 -0.1818392,-0.0307 -0.2424523,-0.0426 -0.1885338,-0.0371 -0.5038317,-0.0957 -0.5730688,-0.1065 -0.2062029,-0.0322 -0.3857183,-0.22277 -0.3857183,-0.40949 0,-0.0798 0.070954,-0.26982 0.1870468,-0.50076 0.1926858,-0.38331 0.2649877,-0.52939 0.4691118,-0.94782 0.7032442,-1.44154 0.6564625,-1.35562 0.7875279,-1.44632 0.1574918,-0.109 0.3413192,-0.10851 0.5288509,0.002 0.1434898,0.0841 0.2095235,0.19851 0.2095235,0.36306 0,0.12581 -0.017269,0.16634 -0.4154278,0.97575 -0.3804042,0.77329 -0.5532251,1.12624 -0.5726744,1.1696 -0.00426,0.009 0.019561,0.0165 0.0525,0.0165 0.032939,0 0.095754,0.009 0.1395881,0.0205 0.043813,0.0112 0.1739295,0.0365 0.2890955,0.0562 0.1151606,0.0196 0.2936953,0.0509 0.3967354,0.0695 0.1030402,0.0185 0.2369412,0.042 0.2975543,0.0522 0.060613,0.0102 0.1845949,0.0311 0.2755145,0.0464 0.2081111,0.0351 0.3525655,0.036 0.5069392,0.003 0.066679,-0.0141 0.175779,-0.0369 0.2424524,-0.0506 0.2324053,-0.0477 0.3409193,-0.0716 0.6502103,-0.14317 0.1612334,-0.0373 0.2779397,-0.0619 0.4628598,-0.0973 0.1829426,-0.0351 0.3003365,-0.0599 0.4738822,-0.10008 0.090919,-0.021 0.2049827,-0.0465 0.2534752,-0.0566 0.048503,-0.01 0.1327977,-0.0287 0.1873452,-0.0415 0.090008,-0.0211 0.1518952,-0.0339 0.429803,-0.0887 0.048503,-0.01 0.1625499,-0.0347 0.2534695,-0.0557 0.090919,-0.021 0.2049823,-0.0462 0.2534749,-0.0558 0.2229392,-0.0442 0.321027,-0.0653 0.487457,-0.10495 0.175774,-0.0419 0.232827,-0.0408 0.433896,0.008 0.07517,0.0182 0.235796,0.16354 0.235796,0.21328 0,0.0198 0.0087,0.0414 0.0194,0.048 0.07836,0.0484 0.01162,0.27238 -0.112527,0.37751 -0.09338,0.0791 -0.301563,0.17125 -0.46893,0.20761 -0.07273,0.0158 -0.216549,0.051 -0.3195942,0.0783 -0.1030405,0.0273 -0.2171029,0.0561 -0.2534696,0.064 -0.03635,0.007 -0.1057958,0.0244 -0.1542884,0.0365 -0.048503,0.0122 -0.1228785,0.0306 -0.1653055,0.041 -0.042427,0.0104 -0.1316944,0.0352 -0.1983731,0.0552 -0.1304205,0.0391 -0.2456451,0.069 -0.3857129,0.10016 -0.048503,0.0109 -0.1278407,0.0295 -0.1763281,0.0418 -0.048503,0.0122 -0.1327977,0.0324 -0.1873505,0.0451 -0.054553,0.0126 -0.2281256,0.0565 -0.3857185,0.0976 l -0.2865318,0.0747 -0.014604,0.1294 c -0.00805,0.0711 -0.025157,0.23852 -0.038056,0.37186 -0.012899,0.13335 -0.03907,0.37139 -0.05814,0.52899 -0.033472,0.27646 -0.055587,0.49285 -0.095727,0.93674 -0.024038,0.2661 -0.065251,0.579 -0.092156,0.70011 -0.011459,0.0517 -0.020894,0.14026 -0.020894,0.19681 0,0.0565 -0.00917,0.13328 -0.02036,0.1705 -0.021427,0.0713 -0.058396,0.2796 -0.09215,0.51953 -0.011086,0.0788 -0.028889,0.20278 -0.039549,0.27551 -0.01066,0.0727 -0.030434,0.21851 -0.043973,0.32395 -0.013538,0.10544 -0.034432,0.21766 -0.046531,0.2494 -0.012045,0.0317 -0.02196,0.0887 -0.02196,0.12656 0,0.0918 -0.041734,0.31473 -0.07945,0.42446 -0.051595,0.14999 -0.1500403,0.24204 -0.6890555,0.64409 -0.2864944,0.21369 -0.836996,0.62478 -1.2233325,0.91352 l -0.7024393,0.52499 -0.1351215,-5.1e-4 c -0.076945,-2.4e-4 -0.1651404,-0.0153 -0.2048437,-0.0349 z m 1.9724094,-7.93246 c -0.3331748,-0.0728 -0.5984876,-0.27696 -0.7447969,-0.57304 -0.073603,-0.14894 -0.076177,-0.16271 -0.074189,-0.39674 0.00213,-0.22609 0.00677,-0.25195 0.072078,-0.38317 0.234436,-0.47111 0.796445,-0.70436 1.3017958,-0.54029 0.4166538,0.13527 0.6724046,0.45891 0.7196234,0.91065 0.033632,0.32185 -0.2281787,0.71758 -0.58738,0.8878 -0.2733186,0.12953 -0.4296164,0.15109 -0.6871315,0.0948 z m 3.2218488,-2.01587 c -0.4944137,-0.0577 -0.9025554,-0.37844 -1.0807544,-0.84944 -0.064349,-0.17007 -0.080201,-0.50385 -0.033525,-0.70531 0.062815,-0.27101 0.3358134,-0.61426 0.6108643,-0.76808 0.27011,-0.15105 0.367788,-0.1751 0.7127849,-0.17554 0.2832965,-3.3e-4 0.3218857,0.005 0.4710686,0.0604 0.430213,0.16078 0.735837,0.47981 0.847565,0.88472 0.04733,0.17154 0.0492,0.50942 0.0032,0.57032 -0.01781,0.0236 -0.03246,0.0582 -0.03262,0.0771 -1.6e-4,0.019 -0.02873,0.0904 -0.06347,0.15894 -0.271709,0.53568 -0.8161768,0.81906 -1.4350415,0.74689 z m 0.5280992,-0.265 c 0.018658,-0.009 0.098419,-0.0465 0.1772122,-0.0833 0.0788,-0.0369 0.200298,-0.11839 0.270004,-0.18115 0.124728,-0.11228 0.165392,-0.17473 0.08817,-0.13537 -0.07275,0.0371 -0.148825,0.0656 -0.20388,0.0764 -0.03032,0.006 -0.139406,0.0311 -0.2424516,0.0559 -0.1030405,0.0248 -0.243668,0.056 -0.3125,0.0693 l -0.1251491,0.0241 0.011299,0.0814 c 0.020147,0.14497 0.016683,0.14237 0.1666008,0.12496 0.075201,-0.008 0.152013,-0.0232 0.170684,-0.0322 z m -0.5892507,-0.045 c -0.0032,-0.03 -0.017322,-0.0978 -0.031128,-0.15074 -0.019028,-0.0731 -0.018495,-0.13921 0.00213,-0.27551 0.030168,-0.19848 0.08527,-0.40617 0.119542,-0.4507 0.01615,-0.0209 0.00757,-0.0424 -0.031181,-0.0782 -0.059329,-0.0548 -0.3192688,-0.23449 -0.3392137,-0.23449 -0.015564,0 -0.1285017,0.24669 -0.1614466,0.35266 -0.039816,0.12813 -0.076886,0.437 -0.065032,0.54218 0.014497,0.12852 0.055384,0.17031 0.2691505,0.275 0.1985862,0.0973 0.2461034,0.10123 0.2370744,0.0198 z m 0.4909541,-0.41895 c 0.3551828,-0.0588 0.6750968,-0.19324 0.7927678,-0.33309 0.06015,-0.0715 0.06666,-0.12903 0.04162,-0.36828 -0.0092,-0.0877 -0.02409,-0.13548 -0.04227,-0.13548 -0.01546,0 -0.0314,0.008 -0.03545,0.0192 -0.0185,0.0483 -0.420556,0.26734 -0.49071,0.26734 -0.01759,0 -0.03715,0.008 -0.04344,0.0186 -0.0063,0.0102 -0.08871,0.0364 -0.183134,0.0582 -0.094427,0.0218 -0.1829802,0.0485 -0.1967903,0.0593 -0.024998,0.0195 -0.034645,0.0496 -0.076246,0.23867 -0.055006,0.24977 -0.058684,0.22925 0.037737,0.21051 0.047118,-0.009 0.1352442,-0.0249 0.1958574,-0.035 z m -1.2248299,-0.25338 c 0.00213,-0.089 0.102102,-0.39423 0.1686474,-0.51461 0.029315,-0.053 0.053316,-0.10379 0.053316,-0.11278 0,-0.009 -0.049036,-0.0367 -0.1089511,-0.0616 -0.1245255,-0.0518 -0.1266255,-0.0505 -0.1893386,0.11654 -0.059185,0.15761 -0.059387,0.49475 -3.731e-4,0.62568 0.035551,0.0788 0.045785,0.0882 0.059062,0.0544 0.00885,-0.0225 0.016789,-0.071 0.017643,-0.10765 z m 1.3129945,-0.47826 c 0.2117932,-0.0714 0.2087512,-0.0631 0.075314,-0.20489 -0.2628294,-0.2793 -0.6505411,-0.54974 -0.7827472,-0.54599 -0.074247,0.002 -0.2748909,0.11873 -0.3911123,0.22736 -0.063225,0.0591 -0.06493,0.0645 -0.024678,0.0786 0.068709,0.0241 0.3893746,0.17854 0.4620016,0.22252 0.03635,0.022 0.1388047,0.0967 0.2276402,0.16587 0.1802031,0.14039 0.1834384,0.14081 0.4335924,0.0566 z m 0.5265432,-0.26656 c 0.102523,-0.0867 0.0958,-0.11097 -0.07287,-0.26261 -0.148676,-0.13367 -0.3692853,-0.23924 -0.5638903,-0.26984 -0.048503,-0.007 -0.1055186,-0.019 -0.1267321,-0.0252 -0.072445,-0.0212 -0.037577,0.0246 0.077408,0.10184 0.1401582,0.0941 0.4120704,0.34928 0.4825384,0.45277 0.02841,0.0417 0.06656,0.0758 0.08475,0.0757 0.01817,-9e-5 0.07163,-0.0328 0.118786,-0.0727 z"
       id="path5921"
       inkscape:connector-curvature="0" />
  </g>
</svg>
