<?xml version="1.0" encoding="UTF-8" standalone="no"?>
<!-- Created with Inkscape (http://www.inkscape.org/) -->

<svg
   xmlns:dc="http://purl.org/dc/elements/1.1/"
   xmlns:cc="http://creativecommons.org/ns#"
   xmlns:rdf="http://www.w3.org/1999/02/22-rdf-syntax-ns#"
   xmlns:svg="http://www.w3.org/2000/svg"
   xmlns="http://www.w3.org/2000/svg"
   xmlns:sodipodi="http://sodipodi.sourceforge.net/DTD/sodipodi-0.dtd"
   xmlns:inkscape="http://www.inkscape.org/namespaces/inkscape"
   width="50"
   height="50"
   viewBox="0 0 13.229166 13.229167"
   version="1.1"
   id="svg8"
   inkscape:version="0.91 r13725"
   sodipodi:docname="escalade.svg">
  <defs
     id="defs2" />
  <sodipodi:namedview
     id="base"
     pagecolor="#ffffff"
     bordercolor="#666666"
     borderopacity="1.0"
     inkscape:pageopacity="0"
     inkscape:pageshadow="2"
     inkscape:zoom="3.959798"
     inkscape:cx="-32.0286"
     inkscape:cy="12.01222"
     inkscape:document-units="mm"
     inkscape:current-layer="layer1"
     showgrid="false"
     units="px"
     inkscape:pagecheckerboard="true"
     inkscape:window-width="1853"
     inkscape:window-height="1059"
     inkscape:window-x="67"
     inkscape:window-y="21"
     inkscape:window-maximized="1" />
  <metadata
     id="metadata5">
    <rdf:RDF>
      <cc:Work
         rdf:about="">
        <dc:format>image/svg+xml</dc:format>
        <dc:type
           rdf:resource="http://purl.org/dc/dcmitype/StillImage" />
        <dc:title></dc:title>
      </cc:Work>
    </rdf:RDF>
  </metadata>
  <g
     inkscape:label="Layer 1"
     inkscape:groupmode="layer"
     id="layer1"
     transform="translate(0,-283.77082)">
    <path
       style="fill:#808080;fill-opacity:1"
       d="m 12.431358,296.59302 c -0.288899,-0.13117 -0.343319,-0.24818 -0.383719,-0.82508 -0.02623,-0.37452 -0.07234,-0.60928 -0.183134,-0.93235 -0.401171,-1.16977 -0.617528,-1.44718 -1.691097,-2.16829 -0.3673698,-0.24677 -0.617868,-0.52929 -0.6826686,-0.76993 -0.037197,-0.13814 -0.043766,-0.44858 -0.02145,-1.01369 l 0.032165,-0.81459 -0.2340467,-0.46413 c -0.1287254,-0.25527 -0.2968473,-0.54898 -0.3736037,-0.65269 -0.2165356,-0.29258 -0.6209329,-0.46197 -2.3094459,-0.96742 -0.4632928,-0.13868 -0.964556,-0.30309 -1.1139185,-0.36534 -0.3722309,-0.15516 -1.2604477,-0.536 -1.438915,-0.61696 -0.080439,-0.0365 -0.1575257,-0.0663 -0.1713019,-0.0663 -0.089721,0 -0.8666517,-0.40087 -0.973717,-0.50241 -0.072017,-0.0683 -0.1957315,-0.2456 -0.2749192,-0.39401 -0.2240899,-0.41997 -0.304853,-0.46523 -0.777678,-0.43573 -0.5377792,0.0336 -0.6334346,0.007 -0.88704636,-0.24668 -0.43162167,-0.43162 -0.51915766,-0.78373 -0.25941396,-1.04348 0.13102976,-0.13103 0.19629212,-0.15747 0.45252972,-0.18341 0.1646796,-0.0167 2.8620856,-0.0344 5.9942352,-0.0394 4.6194909,-0.008 5.7062259,0.002 5.7552449,0.0511 0.04886,0.0488 0.06324,1.22493 0.07512,6.14592 0.0081,3.34707 0.0034,6.13073 -0.01048,6.1859 -0.02183,0.0869 -0.198755,0.21111 -0.296465,0.20805 -0.01794,-5.3e-4 -0.119763,-0.0405 -0.226265,-0.0889 z M 8.6347589,295.8156 c -0.1455757,-0.0788 -0.3425279,-0.238 -1.2704971,-1.02714 -0.6396719,-0.54397 -0.4317307,-0.45306 -1.9333242,-0.84527 -1.1928856,-0.31157 -1.4450521,-0.40122 -1.6504369,-0.58677 -0.1005883,-0.091 -0.1828878,-0.18271 -0.1828878,-0.20407 0,-0.0213 0.073685,-0.0738 0.1637452,-0.11653 0.2163461,-0.10267 0.6328772,-0.56069 1.1532881,-1.26816 0.6038006,-0.82084 1.0824756,-1.38632 1.2894333,-1.52327 0.158855,-0.10513 0.2112118,-0.11542 0.4686645,-0.0921 1.3130157,0.11877 2.0472167,0.22971 2.2760513,0.34394 0.160028,0.0799 0.3108318,0.31831 0.3110634,0.49185 4.209e-4,0.31667 -0.219154,0.51417 -0.6307508,0.56734 -0.2032373,0.0262 -0.4234263,0.0104 -1.3723221,-0.099 -0.4617501,-0.0532 -0.5342866,-0.004 -1.1204542,0.76401 -0.3846594,0.50382 -0.3880488,0.4907 0.1694535,0.65598 1.2397516,0.36755 1.1220182,0.30552 1.9729178,1.03955 1.2237161,1.05567 1.3395347,1.20748 1.2047801,1.57928 -0.1264318,0.34883 -0.5209288,0.49773 -0.8487241,0.32035 z M 3.023329,294.72202 c -0.08757,-0.13881 -0.3075682,-0.79099 -0.3075682,-0.91178 0,-0.12029 0.155562,-0.22324 0.4980313,-0.32958 0.3286493,-0.10206 0.4027894,-0.0708 0.5307404,0.22354 0.1429467,0.32886 0.2613931,0.72082 0.2370778,0.78451 -0.032561,0.0854 -0.5963758,0.33774 -0.754357,0.33774 -0.092697,0 -0.1596874,-0.0342 -0.2039243,-0.10443 z m -0.3086371,-2.37464 c -0.9107381,-1.00225 -0.9430854,-1.04893 -0.9649668,-1.39256 -0.024779,-0.38916 0.1084575,-0.69946 0.4209682,-0.98043 l 0.2313514,-0.20801 0.006,-1.41373 c 0.00586,-1.3782 0.00851,-1.41622 0.1052462,-1.51303 0.1345378,-0.13464 0.4849039,-0.17398 0.6406496,-0.0719 0.18632,0.12207 0.2215489,0.36918 0.2241857,1.57249 0.00178,0.8238 0.016462,1.10232 0.057996,1.10232 0.1363256,0 0.519675,-0.42986 0.9107424,-1.02122 0.4674521,-0.70689 0.6019765,-0.82436 0.8835595,-0.77154 0.2351311,0.0442 0.3855824,0.22286 0.3796003,0.45101 -0.00376,0.14252 -0.085491,0.31791 -0.3610291,0.7746 -0.5441892,0.90193 -0.6158871,0.98567 -1.1378021,1.3287 -0.25695,0.16889 -0.4671822,0.32559 -0.4671822,0.34823 0,0.0362 0.2412783,0.30854 0.8464591,0.95561 0.095498,0.10212 0.1738571,0.20278 0.1741327,0.2237 2.807e-4,0.0209 -0.1984147,0.27538 -0.4415327,0.56547 -0.4249877,0.50706 -0.6688134,0.71926 -0.8264943,0.71926 -0.040717,0 -0.3475724,-0.30103 -0.6818996,-0.66895 z m -1.94736701,-1.98821 c -0.32429547,-0.16568 -0.48039967,-0.39816 -0.5027193,-0.74868 -0.0205633,-0.32289 0.0349904,-0.47754 0.24806153,-0.69061 0.38361025,-0.38361 1.01816938,-0.35019 1.33905898,0.0705 0.2813942,0.36892 0.2610333,0.85109 -0.049437,1.17077 -0.3019561,0.31092 -0.6744754,0.38219 -1.03496106,0.19801 z"
       id="path4315"
       inkscape:connector-curvature="0" />
  </g>
</svg>
