<?xml version="1.0" encoding="UTF-8" standalone="no"?>
<!-- Created with Inkscape (http://www.inkscape.org/) -->

<svg
   xmlns:dc="http://purl.org/dc/elements/1.1/"
   xmlns:cc="http://creativecommons.org/ns#"
   xmlns:rdf="http://www.w3.org/1999/02/22-rdf-syntax-ns#"
   xmlns:svg="http://www.w3.org/2000/svg"
   xmlns="http://www.w3.org/2000/svg"
   xmlns:sodipodi="http://sodipodi.sourceforge.net/DTD/sodipodi-0.dtd"
   xmlns:inkscape="http://www.inkscape.org/namespaces/inkscape"
   width="50"
   height="50"
   viewBox="0 0 13.229166 13.229167"
   version="1.1"
   id="svg8"
   inkscape:version="0.91 r13725"
   sodipodi:docname="basket.svg">
  <defs
     id="defs2" />
  <sodipodi:namedview
     id="base"
     pagecolor="#ffffff"
     bordercolor="#666666"
     borderopacity="1.0"
     inkscape:pageopacity="0"
     inkscape:pageshadow="2"
     inkscape:zoom="1.4"
     inkscape:cx="88.659369"
     inkscape:cy="-100.9315"
     inkscape:document-units="mm"
     inkscape:current-layer="layer1"
     showgrid="false"
     units="px"
     inkscape:pagecheckerboard="true"
     inkscape:window-width="1853"
     inkscape:window-height="1059"
     inkscape:window-x="67"
     inkscape:window-y="21"
     inkscape:window-maximized="1" />
  <metadata
     id="metadata5">
    <rdf:RDF>
      <cc:Work
         rdf:about="">
        <dc:format>image/svg+xml</dc:format>
        <dc:type
           rdf:resource="http://purl.org/dc/dcmitype/StillImage" />
        <dc:title></dc:title>
      </cc:Work>
    </rdf:RDF>
  </metadata>
  <g
     inkscape:label="Layer 1"
     inkscape:groupmode="layer"
     id="layer1"
     transform="translate(0,-283.77082)">
    <path
       style="fill:#808080;fill-opacity:1"
       d="m 8.9733207,296.27132 c -0.050174,-0.0126 -0.1258836,-0.0437 -0.1682506,-0.0698 -0.1006009,-0.0621 -1.0782662,-1.06242 -1.3319467,-1.36271 -0.2380625,-0.2818 -0.4535789,-0.60209 -0.5242571,-0.77913 -0.048595,-0.12174 -0.051753,-0.16195 -0.046903,-0.59701 0.0029,-0.25657 0.024209,-0.6974 0.047434,-0.97963 l 0.042231,-0.51314 -0.2758213,-1.32951 c -0.1517019,-0.73122 -0.2806202,-1.34262 -0.2864863,-1.35866 -0.00594,-0.016 -0.048949,-0.0292 -0.095928,-0.0292 -0.1225118,0 -0.6427693,-0.10886 -0.8486915,-0.17761 -0.2067596,-0.0689 -0.4391126,-0.19153 -0.5782021,-0.30488 -0.251569,-0.20501 -0.522883,-0.78041 -0.646837,-1.37182 -0.057562,-0.27465 -0.1021794,-0.73893 -0.081746,-0.85068 0.015382,-0.0841 0.012742,-0.0947 -0.020257,-0.0808 -0.1324834,0.0558 -0.3260749,0.10343 -0.4199737,0.10343 -0.3557083,0 -0.7797472,-0.2539 -0.9361861,-0.56054 -0.081052,-0.15887 -0.1157175,-0.30268 -0.1159827,-0.48115 -0.00122,-0.80765 0.8977518,-1.31786 1.5657419,-0.88862 0.3479594,0.2236 0.543958,0.63286 0.4859969,1.01481 -0.029337,0.1933 -0.060126,0.28529 -0.135018,0.40339 l -0.0662,0.10444 0.087719,-0.009 c 0.121552,-0.0114 0.2438629,0.0338 0.3505432,0.13023 0.1070163,0.0966 0.1475281,0.21639 0.1835871,0.54243 0.045021,0.40709 0.1802605,0.86017 0.333512,1.11736 0.067033,0.11252 0.090536,0.13182 0.2184361,0.17964 0.3733684,0.13964 0.9606721,0.20189 1.7103098,0.18128 0.6128845,-0.0168 0.8301474,0.003 1.2478643,0.10759 0.6185801,0.15654 1.1281107,0.48469 1.4825721,0.95483 0.267176,0.35436 0.495405,0.92297 0.49836,1.24161 0.0015,0.16229 -0.0048,0.18774 -0.06832,0.2778 -0.167124,0.23682 -0.528957,0.27568 -0.7403426,0.0796 -0.086709,-0.0804 -0.1155154,-0.14353 -0.2022599,-0.44269 -0.1611621,-0.55583 -0.3664656,-0.8531 -0.7057578,-1.02191 -0.092948,-0.0462 -0.1707903,-0.082 -0.1729852,-0.0792 -0.00215,0.003 0.07768,0.47373 0.1774962,1.04677 l 0.1814856,1.0419 0.1480673,0.18011 c 0.2337763,0.28435 0.3407281,0.40633 0.513438,0.58557 l 0.1610673,0.16716 0.3548811,0.11643 c 0.326106,0.10697 0.896127,0.26862 1.696045,0.48101 0.348672,0.0926 0.458032,0.15254 0.5708,0.31295 0.06265,0.0892 0.07157,0.12288 0.07893,0.29857 0.01074,0.25477 -0.02999,0.36712 -0.18254,0.50427 -0.213384,0.19186 -0.377628,0.2004 -0.955279,0.0498 -1.035077,-0.26993 -1.7345947,-0.49331 -2.1146337,-0.6753 -0.1831273,-0.0876 -0.2379753,-0.12898 -0.4032317,-0.30356 -0.1051976,-0.11113 -0.2980277,-0.32952 -0.4285056,-0.48531 -0.1304767,-0.15579 -0.2481605,-0.29074 -0.2615179,-0.2999 -0.058143,-0.0399 -0.078336,0.0655 -0.1178139,0.61438 l -0.041309,0.57441 0.3509688,0.41689 c 0.1930333,0.22928 0.5340557,0.61196 0.7578275,0.85038 0.3281283,0.34961 0.4143046,0.45536 0.4453461,0.54646 0.078361,0.22998 0.030562,0.45042 -0.1384114,0.63837 -0.149113,0.16584 -0.3719868,0.23799 -0.5790659,0.18745 z M 1.2532425,289.7015 c -0.00682,-0.0225 -0.049126,-0.2035 -0.094034,-0.40235 -0.044921,-0.19884 -0.1343348,-0.5767 -0.19869988,-0.83968 -0.0643689,-0.26299 -0.17490726,-0.71432 -0.2456486,-1.00296 -0.0707464,-0.28865 -0.12866069,-0.56417 -0.12870994,-0.61227 l -8.84e-5,-0.0875 1.52775962,0 c 1.1612145,0 1.5277597,0.006 1.5277597,0.0277 0,0.0253 -0.5466428,2.78452 -0.5756043,2.90545 l -0.012629,0.0524 -0.8938949,0 c -0.8310681,0 -0.8947652,-0.003 -0.9062636,-0.0408 z m 0.3789618,-0.29992 -0.073828,-0.13081 0.11352,-0.23071 c 0.062437,-0.1269 0.1248102,-0.23072 0.1386109,-0.23072 0.013803,0 0.077187,0.0989 0.1408576,0.21964 l 0.1157679,0.21964 -0.064116,0.13075 c -0.035272,0.0718 -0.064129,0.13575 -0.064129,0.14188 0,0.006 0.02455,0.0114 0.054569,0.0114 0.035575,0 0.063813,-0.0203 0.08114,-0.0584 0.014611,-0.0321 0.0356,-0.0583 0.046651,-0.0583 0.010987,0 0.032039,0.0263 0.046651,0.0583 0.01811,0.0398 0.045287,0.0584 0.085383,0.0584 0.072199,0 0.072199,-0.0114 -1.061e-4,-0.12829 -0.03161,-0.0513 -0.057511,-0.11189 -0.057587,-0.13458 -1.932e-4,-0.0677 0.2091742,-0.4643 0.2397219,-0.45411 0.039755,0.0133 0.2256926,0.36836 0.2262142,0.43202 2.374e-4,0.0293 -0.025977,0.10545 -0.058269,0.16911 l -0.058711,0.11581 0.059204,0 c 0.040513,0 0.067589,-0.0184 0.085775,-0.0584 0.014612,-0.0321 0.038859,-0.0583 0.053874,-0.0583 0.015016,0 0.041347,0.0263 0.058509,0.0583 0.069686,0.13022 0.1125855,9.9e-4 0.044188,-0.13309 l -0.046537,-0.0912 0.1021415,-0.19201 c 0.060138,-0.11303 0.1139242,-0.25396 0.1307899,-0.34267 0.015761,-0.0828 0.034009,-0.16902 0.040551,-0.19146 0.00707,-0.0242 -5.898e-4,-0.0409 -0.018829,-0.0409 -0.016897,-6e-5 -0.080963,-0.0989 -0.1423781,-0.21954 l -0.111651,-0.21945 0.1110827,-0.22362 c 0.061098,-0.123 0.1242419,-0.22362 0.1403348,-0.22362 0.016089,0 0.059532,0.053 0.096547,0.11783 l 0.067286,0.11783 0.01451,-0.0726 c 0.010482,-0.0524 -0.00152,-0.10431 -0.043493,-0.18702 -0.0319,-0.0629 -0.057815,-0.12793 -0.057587,-0.14439 2.286e-4,-0.0164 0.052713,-0.12314 0.1166267,-0.23696 0.063914,-0.11391 0.1161974,-0.21096 0.1161974,-0.21576 0,-0.005 -0.026104,-0.009 -0.058017,-0.009 -0.048457,0 -0.07158,0.0269 -0.1402413,0.16328 -0.045224,0.0898 -0.092455,0.16327 -0.1049577,0.16327 -0.012503,0 -0.059734,-0.0735 -0.1049578,-0.16327 l -0.082226,-0.16328 -0.1276997,0 -0.1276983,0 -0.082226,0.16328 c -0.045224,0.0898 -0.090157,0.16327 -0.099856,0.16327 -0.00972,0 -0.054177,-0.073 -0.098833,-0.16229 l -0.081203,-0.16228 -0.1296104,-9.8e-4 -0.1296091,-10e-4 -0.078993,0.16328 c -0.043443,0.0898 -0.090081,0.16265 -0.1036318,0.16191 -0.013563,-7.1e-4 -0.060909,-0.0743 -0.1052355,-0.16326 l -0.080584,-0.16193 -0.1232064,0 -0.1232063,0 -0.082226,0.16328 c -0.045224,0.0898 -0.089967,0.1632 -0.099426,0.16311 -0.00947,-9e-5 -0.05717,-0.0735 -0.1060312,-0.16327 -0.07009,-0.12868 -0.10012089,-0.16312 -0.14231615,-0.16312 -0.0515128,0 -0.0493406,0.008 0.0589384,0.21576 0.061831,0.11871 0.1126234,0.23674 0.112876,0.2624 2.463e-4,0.0256 -0.026382,0.0936 -0.059191,0.151 -0.046322,0.0811 -0.056249,0.1225 -0.044441,0.18539 l 0.015205,0.0811 0.073626,-0.13292 c 0.040501,-0.0731 0.081506,-0.1329 0.091142,-0.1329 0.023161,0 0.2279002,0.40864 0.2279002,0.45487 0,0.0441 -0.1835214,0.41409 -0.215476,0.43445 -0.034792,0.0222 0.067084,0.42478 0.1480939,0.58525 0.061881,0.12263 0.067741,0.15217 0.054064,0.27307 -0.015344,0.1356 0.017314,0.21598 0.048204,0.11871 0.020736,-0.0653 0.073727,-0.0587 0.091319,0.0114 0.011492,0.046 0.029438,0.0584 0.08436,0.0584 l 0.069723,0 -0.073828,-0.13083 z m -0.2613942,-0.5218 -0.1132422,-0.23156 0.1132422,-0.22255 c 0.062285,-0.12238 0.1239893,-0.22261 0.1371321,-0.22266 0.013147,-8e-5 0.073512,0.0998 0.1341454,0.22183 l 0.1102492,0.22196 -0.1168667,0.23288 c -0.06428,0.12808 -0.124646,0.23261 -0.1341454,0.23228 -0.00947,-3.5e-4 -0.068233,-0.10482 -0.1305209,-0.23218 z m 0.6290506,0.017 c -0.059494,-0.11871 -0.1080518,-0.23294 -0.1079002,-0.25394 3.7e-4,-0.0515 0.2083773,-0.43997 0.2355797,-0.43997 0.011871,0 0.071024,0.0995 0.1314579,0.22122 l 0.109883,0.22122 -0.1149471,0.2336 c -0.06322,0.1285 -0.1219056,0.23362 -0.1304249,0.23362 -0.00846,0 -0.064167,-0.0971 -0.123661,-0.21575 z m 0.6546706,0.0722 c -0.045211,-0.0815 -0.1008534,-0.1877 -0.1236609,-0.23618 l -0.041473,-0.0881 0.115427,-0.22058 c 0.063485,-0.12136 0.1262246,-0.22072 0.1394141,-0.22091 0.013184,-1.8e-4 0.077743,0.10204 0.1434414,0.22708 l 0.1194555,0.22741 -0.11131,0.20578 c -0.061224,0.11315 -0.1220697,0.21653 -0.1352049,0.22968 -0.016304,0.0163 -0.049985,-0.0231 -0.1060817,-0.12414 z m -0.9789926,-0.70889 -0.1106028,-0.22265 0.1111584,-0.2195 c 0.061136,-0.12073 0.1220824,-0.21997 0.1354184,-0.22052 0.013336,-5.3e-4 0.075179,0.10242 0.1374187,0.22897 l 0.1131665,0.23 -0.1123961,0.21317 c -0.061818,0.11719 -0.1239136,0.21317 -0.1379858,0.21317 -0.014069,0 -0.075356,-0.10014 -0.1361862,-0.22264 z m 0.6198682,0.001 -0.1113606,-0.22417 0.1125603,-0.2207 c 0.061906,-0.12137 0.122095,-0.2207 0.1337514,-0.2207 0.027607,0 0.231714,0.40635 0.2311457,0.46019 -5.822e-4,0.0553 -0.1908978,0.40827 -0.2265539,0.42016 -0.016493,0.005 -0.074371,-0.0836 -0.1395442,-0.21478 z m -0.9251019,-0.58906 -0.1126109,-0.22668 0.1122447,-0.22814 c 0.061729,-0.12553 0.1231684,-0.22756 0.1365018,-0.22685 0.013336,7.1e-4 0.075432,0.10305 0.1379921,0.2274 l 0.1137348,0.22615 -0.121653,0.2274 c -0.066907,0.12503 -0.1288388,0.22742 -0.1376284,0.22742 -0.00884,0 -0.066655,-0.10204 -0.1285925,-0.2267 z m 0.6271196,0.0172 c -0.057852,-0.11518 -0.1051976,-0.22561 -0.1051976,-0.24537 0,-0.0461 0.2048058,-0.45497 0.2276488,-0.4544 0.021292,5.3e-4 0.2388416,0.40604 0.2388416,0.44521 0,0.0403 -0.2180484,0.46378 -0.2388416,0.46391 -0.00947,7e-5 -0.064596,-0.0941 -0.1224486,-0.20935 z m 0.608515,-0.0191 -0.1124466,-0.22856 0.1102492,-0.22044 c 0.060631,-0.12124 0.115187,-0.22569 0.1212236,-0.23211 0.019511,-0.0207 0.1033791,0.10065 0.1936888,0.2802 l 0.088124,0.17522 -0.050237,0.093 c -0.1159953,0.21474 -0.2057872,0.36123 -0.2214254,0.36123 -0.00922,0 -0.067311,-0.1028 -0.1291645,-0.22855 z m 4.2544243,0.46531 c -0.4064798,-0.12465 -0.7268504,-0.44687 -0.8271354,-0.83189 -0.072262,-0.27745 -0.033668,-0.64882 0.093503,-0.89981 0.081645,-0.16112 0.298423,-0.38356 0.4625806,-0.47468 0.2081727,-0.11555 0.3880785,-0.16145 0.6209139,-0.15846 0.542397,0.008 1.0063352,0.35421 1.1598746,0.86814 0.048356,0.16185 0.048381,0.5053 6.94e-5,0.66687 -0.120971,0.40446 -0.4585002,0.73142 -0.8683759,0.84118 -0.1595191,0.0427 -0.4838273,0.037 -0.6414256,-0.0114 z"
       id="path5343"
       inkscape:connector-curvature="0" />
  </g>
</svg>
