<?xml version="1.0" encoding="UTF-8" standalone="no"?>
<!-- Created with Inkscape (http://www.inkscape.org/) -->

<svg
   xmlns:dc="http://purl.org/dc/elements/1.1/"
   xmlns:cc="http://creativecommons.org/ns#"
   xmlns:rdf="http://www.w3.org/1999/02/22-rdf-syntax-ns#"
   xmlns:svg="http://www.w3.org/2000/svg"
   xmlns="http://www.w3.org/2000/svg"
   xmlns:sodipodi="http://sodipodi.sourceforge.net/DTD/sodipodi-0.dtd"
   xmlns:inkscape="http://www.inkscape.org/namespaces/inkscape"
   width="50"
   height="50"
   viewBox="0 0 13.229166 13.229167"
   version="1.1"
   id="svg8"
   inkscape:version="0.92.1 r"
   sodipodi:docname="ponts.svg">
  <defs
     id="defs2" />
  <sodipodi:namedview
     id="base"
     pagecolor="#ffffff"
     bordercolor="#666666"
     borderopacity="1.0"
     inkscape:pageopacity="0.0"
     inkscape:pageshadow="2"
     inkscape:zoom="8"
     inkscape:cx="18.759902"
     inkscape:cy="26.504161"
     inkscape:document-units="mm"
     inkscape:current-layer="layer1"
     showgrid="false"
     units="px"
     inkscape:pagecheckerboard="true"
     inkscape:window-width="1280"
     inkscape:window-height="712"
     inkscape:window-x="1080"
     inkscape:window-y="1103"
     inkscape:window-maximized="0" />
  <metadata
     id="metadata5">
    <rdf:RDF>
      <cc:Work
         rdf:about="">
        <dc:format>image/svg+xml</dc:format>
        <dc:type
           rdf:resource="http://purl.org/dc/dcmitype/StillImage" />
        <dc:title />
      </cc:Work>
    </rdf:RDF>
  </metadata>
  <g
     inkscape:label="Layer 1"
     inkscape:groupmode="layer"
     id="layer1"
     transform="translate(0,-283.77082)">
    <path
       style="fill:#666666;fill-opacity:1;stroke-width:0.09607749"
       d="m 0.09831647,295.91561 c 0.02911372,-0.076 0.44347289,-0.80777 0.92078853,-1.62642 0.4773166,-0.81868 0.9486465,-1.63209 1.0474009,-1.80761 0.098758,-0.17555 0.6464892,-1.119 1.2171903,-2.09657 1.3790726,-2.36231 2.8252292,-4.8626 3.0698239,-5.3075 0.1087087,-0.19772 0.2220523,-0.35987 0.2518835,-0.36029 0.029832,-4.2e-4 0.3540937,0.52007 0.7205818,1.15663 0.3664881,0.6366 0.739441,1.28212 0.8287857,1.43447 0.2551465,0.43514 1.8346708,3.15912 2.8425409,4.90213 0.50416,0.87192 1.190819,2.05063 1.525909,2.61934 0.335088,0.56871 0.609252,1.07672 0.609252,1.1289 0,0.0616 -2.300237,0.0949 -6.5435493,0.0949 -5.6472692,0 -6.53629691,-0.0188 -6.49060723,-0.13796 z m 5.76123713,-0.57729 c -0.054868,-0.16974 -0.843594,-1.49423 -0.8887633,-1.49246 -0.081803,0.003 -0.8720678,1.45344 -0.8295461,1.52233 0.048245,0.0782 1.7437004,0.0488 1.7183094,-0.0299 z m 3.023841,-0.4688 c -0.1630932,-0.27353 -0.3654503,-0.61593 -0.4496834,-0.76092 -0.084238,-0.14496 -0.1747694,-0.26342 -0.2011914,-0.26318 -0.048357,3.8e-4 -0.8646968,1.3952 -0.8646968,1.47743 0,0.084 0.3127026,0.10593 1.0607486,0.0751 l 0.7513582,-0.0312 z m 3.0850374,0.47567 c 0.03969,-0.0806 -0.730002,-1.47306 -0.857987,-1.55216 -0.05881,-0.0364 -0.745432,1.06761 -0.938973,1.50968 -0.01686,0.0385 0.307409,0.0827 0.72058,0.098 0.97333,0.0366 1.032503,0.0333 1.07638,-0.0557 z m -8.9240952,-0.0144 c 0,-0.0629 -0.8808638,-1.58307 -0.9172949,-1.58307 -0.037115,0 -0.9081774,1.5162 -0.9081774,1.58082 0,0.0289 0.4107311,0.0526 0.9127358,0.0526 0.5020046,0 0.9127365,-0.0225 0.9127365,-0.0502 z m 4.7542342,-1.96738 c 0.6212298,-1.08326 1.1728575,-2.02362 1.225842,-2.08968 0.06778,-0.0845 0.057238,-0.12056 -0.035521,-0.12185 -3.1339713,-0.0418 -4.7916259,-0.029 -4.7916233,0.0366 2.6e-6,0.0457 0.2105644,0.43463 0.4679182,0.8647 0.2573513,0.43009 0.7378618,1.25755 1.0677995,1.83881 0.7185765,1.26596 0.8729041,1.51619 0.9088305,1.47353 0.014991,-0.0178 0.535531,-0.91867 1.1567611,-2.00195 z m 2.398105,1.07476 c 0.293623,-0.51857 0.533944,-0.98335 0.534048,-1.03283 9.6e-5,-0.0525 -0.460995,-0.0777 -1.1048923,-0.0601 -0.6077927,0.0163 -1.1050792,0.0442 -1.1050792,0.0618 0,0.0175 0.1481725,0.2852 0.3292741,0.59467 0.1811007,0.30947 0.4265552,0.74643 0.5454565,0.97102 0.1189007,0.22457 0.2276915,0.40833 0.2417576,0.40833 0.014063,0 0.2658116,-0.42431 0.5594353,-0.94288 z m -6.0055611,-0.10323 c 0.2675955,-0.46763 0.486539,-0.87751 0.486539,-0.91088 0,-0.0332 -0.4972007,-0.0607 -1.1048921,-0.0607 -0.6076894,0 -1.1048903,0.026 -1.1048903,0.0576 0,0.16044 1.078458,1.86197 1.1515311,1.8168 0.04684,-0.029 0.3041169,-0.43523 0.5717123,-0.90284 z m 0.2203008,-1.40987 c 0.056514,-0.0565 -0.7984595,-1.57929 -0.8866925,-1.57929 -0.088229,0 -0.9431984,1.52278 -0.8866909,1.57929 0.070486,0.0705 1.7029006,0.0705 1.7733834,0 z m 6.2230423,0.01 c 0,-0.0431 -0.188625,-0.38916 -0.6989785,-1.28336 l -0.2369964,-0.41534 -0.444748,0.77105 c -0.2446127,0.42409 -0.4447504,0.81631 -0.4447504,0.87163 0,0.0629 0.3412086,0.10052 0.9127365,0.10052 0.5020058,0 0.9127368,-0.02 0.9127368,-0.0447 z m -4.6327395,-2.66991 c -0.076557,-0.11891 -0.3231813,-0.53298 -0.5480535,-0.92016 -0.2248731,-0.3872 -0.4226126,-0.68986 -0.4394195,-0.67254 -0.056547,0.0581 -1.0091342,1.72751 -1.0091342,1.76842 0,0.0223 0.4805559,0.0405 1.0679029,0.0405 h 1.0679011 z m 1.3600771,-1.0144 c 0.2789899,-0.49187 0.4882628,-0.9133 0.4650474,-0.93651 -0.055146,-0.0552 -2.3856315,-0.0697 -2.4400992,-0.0153 -0.035177,0.0352 0.6020845,1.19108 1.0891554,1.97553 0.1670806,0.2691 0.1249009,0.31784 0.8858964,-1.02382 z m 1.8315,1.1696 c 0,-0.0332 -0.2209928,-0.44683 -0.4910939,-0.91885 -0.4789235,-0.83688 -0.4947514,-0.85292 -0.6386214,-0.64753 -0.1581312,0.22576 -0.8879123,1.53449 -0.8879123,1.5923 0,0.019 0.4539658,0.0347 1.0088143,0.0347 0.5548472,0 1.0088133,-0.0273 1.0088133,-0.0607 z m -1.5080529,-2.59465 c 0.033672,-0.0338 -0.016549,-0.17417 -0.1115934,-0.31225 -0.095043,-0.13806 -0.3336711,-0.54289 -0.5302908,-0.89956 -0.1966181,-0.35671 -0.3918049,-0.64852 -0.4337485,-0.64852 -0.074833,0 -1.0672646,1.72511 -1.0672646,1.85521 0,0.0834 2.0596843,0.0882 2.1428918,0.004 z"
       id="path4502"
       inkscape:connector-curvature="0"
       sodipodi:nodetypes="ccccssscccssccccccccccscccccccccssssssccccccccccccsccscccsssccccscccsccsscccccsscccccccsccsssscscsscc" />
  </g>
</svg>
