<?xml version="1.0" encoding="UTF-8" standalone="no"?>
<!-- Created with Inkscape (http://www.inkscape.org/) -->

<svg
   xmlns:dc="http://purl.org/dc/elements/1.1/"
   xmlns:cc="http://creativecommons.org/ns#"
   xmlns:rdf="http://www.w3.org/1999/02/22-rdf-syntax-ns#"
   xmlns:svg="http://www.w3.org/2000/svg"
   xmlns="http://www.w3.org/2000/svg"
   xmlns:sodipodi="http://sodipodi.sourceforge.net/DTD/sodipodi-0.dtd"
   xmlns:inkscape="http://www.inkscape.org/namespaces/inkscape"
   width="50"
   height="50"
   viewBox="0 0 13.229166 13.229167"
   version="1.1"
   id="svg8"
   inkscape:version="0.91 r13725"
   sodipodi:docname="handball.svg">
  <defs
     id="defs2" />
  <sodipodi:namedview
     id="base"
     pagecolor="#ffffff"
     bordercolor="#666666"
     borderopacity="1.0"
     inkscape:pageopacity="0"
     inkscape:pageshadow="2"
     inkscape:zoom="1.979899"
     inkscape:cx="-83.24711"
     inkscape:cy="34.694121"
     inkscape:document-units="mm"
     inkscape:current-layer="layer1"
     showgrid="false"
     units="px"
     inkscape:pagecheckerboard="true"
     inkscape:window-width="1853"
     inkscape:window-height="1059"
     inkscape:window-x="67"
     inkscape:window-y="21"
     inkscape:window-maximized="1" />
  <metadata
     id="metadata5">
    <rdf:RDF>
      <cc:Work
         rdf:about="">
        <dc:format>image/svg+xml</dc:format>
        <dc:type
           rdf:resource="http://purl.org/dc/dcmitype/StillImage" />
        <dc:title></dc:title>
      </cc:Work>
    </rdf:RDF>
  </metadata>
  <g
     inkscape:label="Layer 1"
     inkscape:groupmode="layer"
     id="layer1"
     transform="translate(0,-283.77082)">
    <path
       style="fill:#808080;fill-opacity:1"
       d="m 3.4309642,296.58134 c -0.2704377,-0.23262 -0.2482673,-0.29436 1.0244621,-2.85269 0.6358797,-1.27818 1.1561443,-2.33188 1.1561443,-2.34154 0,-0.01 -0.4321809,0.42051 -0.9604016,0.95592 -1.1009504,1.11592 -1.2560526,1.21885 -1.5773928,1.0468 -0.1525688,-0.0817 -0.1788193,-0.12166 -0.1907095,-0.29039 -0.012205,-0.17314 0.04717,-0.29698 0.5158471,-1.0761 0.2912998,-0.48425 0.6577034,-1.07855 0.8142308,-1.32067 0.1565274,-0.24213 0.3205977,-0.50195 0.364601,-0.5774 0.044,-0.0755 0.2836096,-0.44859 0.5324581,-0.82922 0.2488493,-0.38062 0.4524801,-0.70409 0.4525122,-0.71881 3.28e-5,-0.0147 0.05506,-0.0907 0.122285,-0.1689 0.067226,-0.0782 0.1222246,-0.1569 0.1222246,-0.17496 0,-0.0181 -0.1815925,-0.0603 -0.4035391,-0.094 -0.817211,-0.12384 -0.8631688,-0.14093 -1.1078441,-0.41194 -0.1237812,-0.13711 -0.4873229,-0.52523 -0.807871,-0.86248 -0.3205481,-0.33725 -0.6231195,-0.67928 -0.6723821,-0.76006 -0.1823929,-0.29908 -0.075444,-0.56264 0.2283164,-0.56264 0.2580388,0 0.372745,0.0643 0.8445567,0.47339 0.9280082,0.80464 1.0599234,0.89619 1.2915232,0.8963 0.3169928,1.4e-4 1.6018606,0.14206 1.8256279,0.20165 0.215948,0.0575 1.6738917,0.76496 1.7765457,0.86205 0.035507,0.0336 0.1162421,0.074 0.1794059,0.0899 0.1161581,0.0292 0.415317,0.36502 1.142125,1.28227 0.386642,0.48796 0.39926,0.51211 0.39926,0.76428 0,0.25942 -0.0065,0.27736 -0.46893,1.28903 -0.06492,0.14204 -0.1180356,0.27549 -0.1180356,0.29656 0,0.0211 -0.061735,0.0975 -0.1371898,0.16976 -0.1856362,0.17785 -0.4625094,0.18321 -0.5752565,0.0112 -0.098545,-0.1504 -0.076132,-0.26191 0.2048643,-1.01925 0.1177544,-0.31737 0.2140993,-0.61007 0.2140993,-0.65045 0,-0.0893 -0.1735084,-0.25658 -0.5625094,-0.54214 -0.3430171,-0.25182 -0.2610572,-0.30343 -0.7645252,0.48144 -0.5514757,0.85971 -0.9693636,1.5049 -1.4363071,2.21755 -0.246781,0.37663 -0.5481946,0.83887 -0.6698074,1.02719 -0.2090719,0.32374 -0.3264253,0.50733 -1.000551,1.56524 -0.7228767,1.13442 -1.00607,1.54148 -1.1374956,1.63507 -0.1919797,0.1367 -0.453415,0.13169 -0.6203418,-0.0119 z m 5.090977,-9.07703 c -0.9581141,-0.24842 -1.2955031,-1.41719 -0.6076602,-2.10503 0.6195138,-0.61951 1.6526239,-0.42158 2.0199527,0.387 0.1208333,0.26599 0.1279153,0.72433 0.015176,0.9823 -0.097425,0.22292 -0.4425974,0.5692 -0.6564511,0.65855 -0.2123385,0.0887 -0.5832833,0.12586 -0.7710196,0.0772 z M 4.348415,286.02465 c -0.3575912,-0.10301 -0.693219,-0.58562 -0.6926454,-0.99598 2.398e-4,-0.17593 0.1925463,-0.60267 0.3242744,-0.71961 0.2567436,-0.22792 0.7448852,-0.29943 1.0821497,-0.15851 0.6758588,0.2824 0.8044043,1.17556 0.2404525,1.67072 -0.2689767,0.23616 -0.5974289,0.30617 -0.9542312,0.20338 z"
       id="path4251"
       inkscape:connector-curvature="0" />
  </g>
</svg>
