<?xml version="1.0" encoding="UTF-8" standalone="no"?>
<!-- Created with Inkscape (http://www.inkscape.org/) -->

<svg
   xmlns:dc="http://purl.org/dc/elements/1.1/"
   xmlns:cc="http://creativecommons.org/ns#"
   xmlns:rdf="http://www.w3.org/1999/02/22-rdf-syntax-ns#"
   xmlns:svg="http://www.w3.org/2000/svg"
   xmlns="http://www.w3.org/2000/svg"
   xmlns:sodipodi="http://sodipodi.sourceforge.net/DTD/sodipodi-0.dtd"
   xmlns:inkscape="http://www.inkscape.org/namespaces/inkscape"
   width="50"
   height="50"
   viewBox="0 0 13.229166 13.229167"
   version="1.1"
   id="svg8"
   inkscape:version="0.91 r13725"
   sodipodi:docname="tennis.svg">
  <defs
     id="defs2" />
  <sodipodi:namedview
     id="base"
     pagecolor="#ffffff"
     bordercolor="#666666"
     borderopacity="1.0"
     inkscape:pageopacity="0"
     inkscape:pageshadow="2"
     inkscape:zoom="1.979899"
     inkscape:cx="-83.24711"
     inkscape:cy="34.694121"
     inkscape:document-units="mm"
     inkscape:current-layer="layer1"
     showgrid="false"
     units="px"
     inkscape:pagecheckerboard="true"
     inkscape:window-width="1853"
     inkscape:window-height="1059"
     inkscape:window-x="67"
     inkscape:window-y="21"
     inkscape:window-maximized="1" />
  <metadata
     id="metadata5">
    <rdf:RDF>
      <cc:Work
         rdf:about="">
        <dc:format>image/svg+xml</dc:format>
        <dc:type
           rdf:resource="http://purl.org/dc/dcmitype/StillImage" />
        <dc:title></dc:title>
      </cc:Work>
    </rdf:RDF>
  </metadata>
  <g
     inkscape:label="Layer 1"
     inkscape:groupmode="layer"
     id="layer1"
     transform="translate(0,-283.77082)">
    <path
       style="fill:#808080;fill-opacity:1"
       d="m 6.6201327,296.02743 c -0.065132,-0.0604 -0.1382848,-0.16199 -0.1625562,-0.22583 -0.026222,-0.069 -0.044064,-0.77995 -0.043961,-1.75165 1.333e-4,-1.52075 0.00602,-1.64498 0.08362,-1.76934 0.045905,-0.0735 0.4067074,-0.47483 0.8017905,-0.89169 0.3950832,-0.41686 0.7100208,-0.78083 0.6998617,-0.80883 -0.01016,-0.0279 -0.072841,-0.32341 -0.1393017,-0.65648 -0.066458,-0.33306 -0.1388921,-0.59441 -0.1609655,-0.58077 -0.022075,0.0137 -0.1301447,0.2136 -0.2401586,0.44435 -0.1118463,0.23462 -0.2466418,0.45012 -0.3057721,0.48886 -0.096732,0.0634 -1.7910943,0.42181 -1.9939765,0.42181 -0.2723051,0 -0.5104937,-0.29177 -0.4720671,-0.57825 l 0.021791,-0.16249 -0.53588,-0.37642 c -0.2947337,-0.20703 -0.6174011,-0.41407 -0.7170391,-0.46009 -0.1751955,-0.0809 -0.1960619,-0.0811 -0.6338248,-0.006 -0.3656672,0.0626 -0.4969218,0.0681 -0.6829371,0.0282 -0.6869625,-0.14733 -1.22130081,-0.69806 -1.28606174,-1.32553 -0.070019,-0.67841 0.39947064,-1.17506 1.11176684,-1.17609 0.4189373,-6.8e-4 0.7321725,0.12624 1.0591025,0.42893 0.3139553,0.29066 0.4282981,0.50972 0.5115664,0.98005 0.1081549,0.6109 0.1054364,0.60741 0.9329694,1.19429 l 0.6182691,0.43846 0.4963454,-0.0981 c 0.2729898,-0.0539 0.5920491,-0.11822 0.7090211,-0.14286 l 0.2126767,-0.0448 0.4861,-0.96608 c 0.267355,-0.53133 0.555271,-1.05666 0.6398126,-1.16738 0.2833615,-0.3711 0.7918654,-0.55546 1.1906839,-0.43167 0.2380449,0.0739 1.9795546,1.05697 2.1400586,1.20806 0.06131,0.0577 0.329508,0.5204 0.596009,1.0282 0.425929,0.81159 0.481427,0.94249 0.458758,1.0822 -0.05127,0.31593 -0.355235,0.50828 -0.659293,0.41717 -0.209105,-0.0626 -0.236706,-0.10289 -0.760068,-1.10829 -0.302321,-0.58076 -0.381087,-0.69791 -0.534231,-0.79459 -0.098796,-0.0623 -0.1909832,-0.10203 -0.2048598,-0.0881 -0.013881,0.0139 0.068796,0.45169 0.1837248,0.97293 0.114926,0.52124 0.314587,1.56025 0.443692,2.30891 l 0.234736,1.3612 0.806959,0.94655 c 0.844469,0.99054 0.903706,1.09008 0.836895,1.40627 -0.06129,0.29004 -0.383292,0.50348 -0.676577,0.44845 -0.104188,-0.0195 -0.225628,-0.0952 -0.343181,-0.21377 -0.221154,-0.22309 -1.8533753,-2.14434 -1.9543845,-2.30045 -0.040253,-0.0622 -0.1357323,-0.48575 -0.216098,-0.95857 -0.079189,-0.46591 -0.1530587,-0.85714 -0.164152,-0.8694 -0.011089,-0.0123 -0.3287024,0.29872 -0.7057968,0.69106 l -0.6856282,0.71335 -1.849e-4,1.3012 c -8.95e-5,0.75017 -0.018858,1.35035 -0.044305,1.41727 -0.024269,0.0638 -0.097422,0.16546 -0.162557,0.22582 -0.099383,0.0921 -0.1629115,0.10976 -0.3951994,0.10976 -0.2322869,0 -0.2958151,-0.0177 -0.3952044,-0.10976 z m -3.8316039,-7.3785 c 0.5309247,-0.32372 0.3591739,-1.11587 -0.3168018,-1.46113 -0.4571032,-0.23348 -0.9887781,-0.1282 -1.158466,0.22939 -0.09779,0.20608 -0.089393,0.36494 0.033207,0.62821 0.1168996,0.25103 0.3579366,0.48384 0.6278983,0.60645 0.2454408,0.11148 0.6287922,0.11012 0.8141607,-0.003 z m -1.0976159,2.31301 c -0.1872335,-0.18723 -0.1902042,-0.42081 -0.00783,-0.61605 0.2792985,-0.29898 0.762342,-0.10422 0.762342,0.30738 0,0.41 -0.463539,0.59964 -0.7545081,0.30867 z m 6.0224836,-4.48591 c -0.081977,-0.0403 -0.2102369,-0.13463 -0.2850228,-0.20942 -0.3599446,-0.35994 -0.3631345,-0.98103 -0.00688,-1.33769 0.6185504,-0.61921 1.6670163,-0.20132 1.6670163,0.66445 0,0.37809 -0.1973041,0.69451 -0.5443848,0.87304 -0.2082496,0.10712 -0.6231074,0.11192 -0.8307385,0.01 z"
       id="path4155"
       inkscape:connector-curvature="0" />
  </g>
</svg>
