<?xml version="1.0" encoding="UTF-8" standalone="no"?>
<!-- Created with Inkscape (http://www.inkscape.org/) -->

<svg
   xmlns:dc="http://purl.org/dc/elements/1.1/"
   xmlns:cc="http://creativecommons.org/ns#"
   xmlns:rdf="http://www.w3.org/1999/02/22-rdf-syntax-ns#"
   xmlns:svg="http://www.w3.org/2000/svg"
   xmlns="http://www.w3.org/2000/svg"
   xmlns:sodipodi="http://sodipodi.sourceforge.net/DTD/sodipodi-0.dtd"
   xmlns:inkscape="http://www.inkscape.org/namespaces/inkscape"
   width="50"
   height="50"
   viewBox="0 0 13.229166 13.229167"
   version="1.1"
   id="svg8"
   inkscape:version="0.91 r13725"
   sodipodi:docname="waterpolo.svg">
  <defs
     id="defs2" />
  <sodipodi:namedview
     id="base"
     pagecolor="#ffffff"
     bordercolor="#666666"
     borderopacity="1.0"
     inkscape:pageopacity="0"
     inkscape:pageshadow="2"
     inkscape:zoom="1.979899"
     inkscape:cx="-83.24711"
     inkscape:cy="34.694121"
     inkscape:document-units="mm"
     inkscape:current-layer="layer1"
     showgrid="false"
     units="px"
     inkscape:pagecheckerboard="true"
     inkscape:window-width="1853"
     inkscape:window-height="1059"
     inkscape:window-x="67"
     inkscape:window-y="21"
     inkscape:window-maximized="1" />
  <metadata
     id="metadata5">
    <rdf:RDF>
      <cc:Work
         rdf:about="">
        <dc:format>image/svg+xml</dc:format>
        <dc:type
           rdf:resource="http://purl.org/dc/dcmitype/StillImage" />
        <dc:title></dc:title>
      </cc:Work>
    </rdf:RDF>
  </metadata>
  <g
     inkscape:label="Layer 1"
     inkscape:groupmode="layer"
     id="layer1"
     transform="translate(0,-283.77082)">
    <path
       style="fill:#808080;fill-opacity:1"
       d="m 0.71591966,294.89047 c 0.0159343,-0.27503 0.0189683,-0.27952 0.22049345,-0.32695 0.12362269,-0.0291 0.30231469,-0.14064 0.45237889,-0.28239 0.1364231,-0.12888 0.2742772,-0.23431 0.3063424,-0.23431 0.032065,0 0.1411935,0.0862 0.2425075,0.19164 0.2485574,0.2586 0.4258863,0.34288 0.7213657,0.34288 0.3138955,0 0.5795977,-0.1249 0.7550703,-0.35496 0.1741986,-0.22839 0.2724581,-0.22602 0.5013176,0.0121 0.250194,0.2603 0.4261333,0.34293 0.7294441,0.34261 0.2876377,-4e-4 0.5760571,-0.14647 0.7641794,-0.38726 0.1433958,-0.18354 0.2918161,-0.18761 0.4074243,-0.0112 0.1426649,0.21773 0.5009843,0.3987 0.789429,0.3987 0.2988028,0 0.4755459,-0.0836 0.7247478,-0.34288 0.2288593,-0.2381 0.3271188,-0.24047 0.5013172,-0.0121 0.1754728,0.23006 0.4411748,0.35496 0.7550706,0.35496 0.2954795,0 0.4728081,-0.0843 0.7213659,-0.34288 0.1013138,-0.1054 0.2108505,-0.19164 0.2434149,-0.19164 0.032565,0 0.1421011,0.0871 0.2434151,0.19346 0.4415212,0.46369 1.1082642,0.45721 1.4845922,-0.0145 0.07856,-0.0985 0.176427,-0.17902 0.217477,-0.17902 0.04105,0 0.189308,0.10726 0.329463,0.23836 0.140154,0.13109 0.323052,0.25337 0.406439,0.27173 0.28277,0.0622 0.285245,0.0653 0.285245,0.3503 l 0,0.27578 -0.227175,-0.0363 c -0.220594,-0.0353 -0.642422,-0.245 -0.708814,-0.35243 -0.01911,-0.0309 -0.126312,0.0105 -0.256663,0.0991 -0.539761,0.3669 -1.02744,0.36883 -1.5612179,0.006 l -0.2148611,-0.14598 -0.1593084,0.12716 c -0.205717,0.16421 -0.5747411,0.28897 -0.8503539,0.28748 -0.2413615,-0.001 -0.6359542,-0.16034 -0.8151207,-0.32854 l -0.1163928,-0.10926 -0.1804748,0.13766 c -0.5283843,0.40301 -1.2356637,0.38957 -1.6847618,-0.032 l -0.1202689,-0.1129 -0.1202687,0.1129 c -0.1973745,0.18529 -0.5797507,0.33101 -0.8686082,0.33101 -0.2888572,0 -0.6712335,-0.14572 -0.8686079,-0.33101 l -0.1202689,-0.1129 -0.1202687,0.1129 c -0.1970678,0.18501 -0.5798613,0.33092 -0.8714762,0.33218 -0.2742848,10e-4 -0.7450274,-0.18472 -0.8802315,-0.34763 -0.053841,-0.0649 -0.096701,-0.0537 -0.2850216,0.0743 -0.2367872,0.16093 -0.52092803,0.27451 -0.68677032,0.27451 -0.0890606,0 -0.0997115,-0.0347 -0.085566,-0.27886 z m 3.46376164,-1.01738 c -0.2047662,-0.1041 -0.2447141,-0.15303 -0.2971943,-0.36403 -0.080338,-0.32301 -0.3436599,-0.72214 -0.8574955,-1.29972 -0.8457638,-0.9507 -1.0431413,-1.18562 -1.1264014,-1.34062 -0.1580823,-0.29431 -0.024226,-1.11279 0.393765,-2.40772 0.075918,-0.23519 0.1437011,-0.43456 0.1506296,-0.44304 0.00693,-0.008 0.1307589,0.058 0.2751788,0.14781 0.1444198,0.0898 0.370002,0.18197 0.5012937,0.20486 l 0.2387121,0.0416 -0.013548,0.58562 c -0.00745,0.32209 -0.033551,0.75074 -0.057999,0.95256 -0.052255,0.43136 -0.072089,0.40361 0.6328018,0.88548 0.7641292,0.52237 1.0612956,0.64684 1.8173301,0.76117 1.0384949,0.15705 1.8248331,0.31267 1.976682,0.3912 0.2341649,0.12109 1.604721,1.47212 1.604721,1.58185 0,0.17058 -0.3924228,0.38712 -0.7481645,0.41285 -0.2655156,0.0192 -0.3515832,4.1e-4 -0.5898832,-0.12937 -0.1534549,-0.0835 -0.315696,-0.20785 -0.3605354,-0.27628 l -0.081527,-0.12442 -0.1923642,0.18743 c -0.4835763,0.47117 -1.1819961,0.46476 -1.6327635,-0.015 l -0.1575318,-0.16766 -0.1899114,0.18503 c -0.3712596,0.36173 -0.8564159,0.44864 -1.2857946,0.23034 z m 1.7907697,-2.57123 c -0.2820171,-0.1316 -0.6005316,-0.44408 -0.7539348,-0.73965 -0.050863,-0.098 -0.1030504,-0.35002 -0.1169943,-0.565 -0.023008,-0.35472 -0.01057,-0.41774 0.1446636,-0.73307 0.196027,-0.39819 0.4451747,-0.62648 0.8485393,-0.7775 0.5036445,-0.18857 1.0451145,-0.0965 1.4449569,0.24578 0.3905107,0.33427 0.5341722,0.77094 0.4344857,1.32068 -0.1078317,0.59465 -0.4776835,1.10769 -0.9368468,1.29954 -0.2799745,0.11699 -0.7537951,0.0944 -1.0648696,-0.0508 z m -2.7151854,-3.32375 c -1.2964021,-0.47578 -0.9626354,-2.3902 0.4167148,-2.3902 0.4017084,0 0.6870049,0.13403 0.957181,0.44967 0.2312292,0.27014 0.3214726,0.56642 0.2798671,0.91885 -0.093148,0.78904 -0.9109646,1.29428 -1.6537629,1.02168 z"
       id="path4219"
       inkscape:connector-curvature="0" />
  </g>
</svg>
