<?xml version="1.0" encoding="UTF-8" standalone="no"?>
<!-- Created with Inkscape (http://www.inkscape.org/) -->

<svg
   xmlns:dc="http://purl.org/dc/elements/1.1/"
   xmlns:cc="http://creativecommons.org/ns#"
   xmlns:rdf="http://www.w3.org/1999/02/22-rdf-syntax-ns#"
   xmlns:svg="http://www.w3.org/2000/svg"
   xmlns="http://www.w3.org/2000/svg"
   xmlns:sodipodi="http://sodipodi.sourceforge.net/DTD/sodipodi-0.dtd"
   xmlns:inkscape="http://www.inkscape.org/namespaces/inkscape"
   width="50"
   height="50"
   viewBox="0 0 13.229166 13.229167"
   version="1.1"
   id="svg8"
   inkscape:version="0.91 r13725"
   sodipodi:docname="aviron.svg">
  <defs
     id="defs2" />
  <sodipodi:namedview
     id="base"
     pagecolor="#ffffff"
     bordercolor="#666666"
     borderopacity="1.0"
     inkscape:pageopacity="0"
     inkscape:pageshadow="2"
     inkscape:zoom="3.959798"
     inkscape:cx="-32.0286"
     inkscape:cy="12.01222"
     inkscape:document-units="mm"
     inkscape:current-layer="layer1"
     showgrid="false"
     units="px"
     inkscape:pagecheckerboard="true"
     inkscape:window-width="1853"
     inkscape:window-height="1059"
     inkscape:window-x="67"
     inkscape:window-y="21"
     inkscape:window-maximized="1" />
  <metadata
     id="metadata5">
    <rdf:RDF>
      <cc:Work
         rdf:about="">
        <dc:format>image/svg+xml</dc:format>
        <dc:type
           rdf:resource="http://purl.org/dc/dcmitype/StillImage" />
        <dc:title></dc:title>
      </cc:Work>
    </rdf:RDF>
  </metadata>
  <g
     inkscape:label="Layer 1"
     inkscape:groupmode="layer"
     id="layer1"
     transform="translate(0,-283.77082)">
    <path
       style="fill:#808080;fill-opacity:1"
       d="m 9.1768441,295.0457 c -0.4158019,-0.25326 -0.9947013,-0.77161 -1.1103078,-0.99417 -0.048585,-0.0936 -0.1286653,-0.3 -0.1779545,-0.45881 -0.080423,-0.25916 -0.1372806,-0.32792 -0.5544595,-0.67069 l -0.4648452,-0.38192 -0.5677082,0.10567 c -0.4632859,0.0863 -0.807617,0.10607 -1.8720205,0.10789 -1.1676587,0.002 -1.3520203,-0.0104 -1.7596585,-0.11396 -0.9899824,-0.2526 -1.73294158,-0.6367 -2.1975311,-1.13611 -0.37530384,-0.40341 -0.30657824,-0.57873 0.11651222,-0.29722 0.29660136,0.19735 0.92751858,0.42825 1.55802118,0.57019 0.5061632,0.11395 0.6706356,0.12397 1.9632325,0.11954 0.7759331,-0.003 1.5143127,-0.0267 1.640842,-0.0535 l 0.2300539,-0.0486 -0.443003,-0.36077 -0.443003,-0.36078 -1.9002141,-6.1e-4 -1.9002132,-6.1e-4 -0.082875,-0.11895 c -0.106652,-0.15311 -0.1045695,-0.1804 0.0236,-0.30927 0.1014045,-0.10197 0.1774578,-0.10705 1.5971183,-0.10705 0.901857,0 1.4906435,-0.02 1.4906435,-0.0507 0,-0.10607 -1.0194929,-0.88618 -1.2122558,-0.92763 -0.2653591,-0.057 -0.3848624,-0.17993 -0.3848624,-0.39576 0,-0.14531 0.033221,-0.20034 0.173021,-0.28661 0.1925663,-0.11883 2.2589974,-0.95032 3.1276897,-1.25851 0.7012989,-0.24881 1.1262467,-0.27405 1.4997294,-0.0891 0.5997327,0.29705 1.5502114,1.52772 1.9873695,2.57323 l 0.1706932,0.40823 1.1709843,0.0267 c 1.242679,0.0285 1.346747,0.0509 1.346747,0.29026 0,0.0641 -0.02874,0.14546 -0.06389,0.18079 -0.04825,0.0484 -0.83162,0.0642 -3.1992736,0.0642 l -3.1353887,0 0.2312954,0.19456 c 0.569346,0.47896 0.5083332,0.45588 0.9704194,0.36699 1.2557499,-0.24157 2.8938088,-0.34351 3.9145805,-0.24359 0.72971,0.0714 1.520119,0.25306 1.860124,0.42746 0.435751,0.22352 0.329155,0.2448 -1.230021,0.24551 -1.466229,6.2e-4 -2.1133427,0.0526 -3.5456731,0.28474 l -0.5510695,0.0893 0.3449249,0.28103 c 0.3004118,0.24476 0.3754316,0.28101 0.5813331,0.28101 0.5514922,0 1.0397259,0.25683 1.6798336,0.88361 0.281195,0.27536 0.38597,0.41523 0.38597,0.5153 0,0.28185 -0.5393401,0.84927 -0.8072443,0.84927 -0.072452,0 -0.280022,-0.0903 -0.4612718,-0.20073 z m -2.0045925,-4.6719 c 0.062049,-0.10093 -0.485188,-0.92425 -0.9467814,-1.42441 L 6.070333,288.7813 5.7423854,288.858 c -0.4876663,0.11404 -1.812278,0.50639 -1.860427,0.55105 -0.023009,0.0213 0.140391,0.19036 0.3631127,0.37559 l 0.4049479,0.3368 0.1727123,-0.16832 c 0.3780396,-0.3684 0.7385536,-0.33195 1.5529496,0.15705 0.5126736,0.30782 0.7260113,0.37843 0.7965707,0.26364 z m -1.6181834,-3.05172 c -0.6516354,-0.14701 -0.9204686,-0.9637 -0.4823692,-1.4654 0.3398367,-0.38916 0.8636162,-0.44264 1.2443962,-0.12705 0.7509646,0.62238 0.1845735,1.80601 -0.762027,1.59245 z"
       id="path4411"
       inkscape:connector-curvature="0" />
  </g>
</svg>
