<?xml version="1.0" encoding="UTF-8" standalone="no"?>
<!-- Created with Inkscape (http://www.inkscape.org/) -->

<svg
   xmlns:dc="http://purl.org/dc/elements/1.1/"
   xmlns:cc="http://creativecommons.org/ns#"
   xmlns:rdf="http://www.w3.org/1999/02/22-rdf-syntax-ns#"
   xmlns:svg="http://www.w3.org/2000/svg"
   xmlns="http://www.w3.org/2000/svg"
   xmlns:sodipodi="http://sodipodi.sourceforge.net/DTD/sodipodi-0.dtd"
   xmlns:inkscape="http://www.inkscape.org/namespaces/inkscape"
   width="50"
   height="50"
   viewBox="0 0 13.229166 13.229167"
   version="1.1"
   id="svg8"
   inkscape:version="0.91 r13725"
   sodipodi:docname="back-arrow.svg">
  <defs
     id="defs2" />
  <sodipodi:namedview
     id="base"
     pagecolor="#ffffff"
     bordercolor="#666666"
     borderopacity="1.0"
     inkscape:pageopacity="0"
     inkscape:pageshadow="2"
     inkscape:zoom="3.959798"
     inkscape:cx="-32.0286"
     inkscape:cy="12.01222"
     inkscape:document-units="mm"
     inkscape:current-layer="layer1"
     showgrid="false"
     units="px"
     inkscape:pagecheckerboard="true"
     inkscape:window-width="1853"
     inkscape:window-height="1059"
     inkscape:window-x="67"
     inkscape:window-y="21"
     inkscape:window-maximized="1" />
  <metadata
     id="metadata5">
    <rdf:RDF>
      <cc:Work
         rdf:about="">
        <dc:format>image/svg+xml</dc:format>
        <dc:type
           rdf:resource="http://purl.org/dc/dcmitype/StillImage" />
        <dc:title></dc:title>
      </cc:Work>
    </rdf:RDF>
  </metadata>
  <g
     inkscape:label="Layer 1"
     inkscape:groupmode="layer"
     id="layer1"
     transform="translate(0,-283.77082)">
    <path
       style="fill:#808080;fill-opacity:1"
       d="m 4.9035773,294.25337 c -0.3188721,-0.29901 -0.6132623,-0.54463 -0.6541991,-0.54583 -0.040939,-8.8e-4 -0.1546248,-0.0824 -0.2526384,-0.18037 -0.098015,-0.098 -0.8237239,-0.71073 -1.6126897,-1.36157 -0.7889649,-0.65084 -1.46729291,-1.22937 -1.50739458,-1.28561 -0.0401034,-0.0562 -0.0735978,-0.30771 -0.0744338,-0.55879 -0.00176,-0.52382 -0.073721,-0.45069 2.62840308,-2.6705 0.8187508,-0.67261 1.5109667,-1.25161 1.5382576,-1.28666 0.3027612,-0.38889 1.0766149,-0.51821 1.4665546,-0.24509 0.2086091,0.14611 0.2205662,0.22413 0.2205662,1.43902 l 0,1.28452 2.7137846,0 c 2.5030332,0 2.7265392,0.0141 2.8780292,0.18149 0.234633,0.25926 0.24138,2.40674 0.0083,2.63983 -0.134198,0.13419 -0.535741,0.15595 -2.8780332,0.15595 l -2.7220772,0 0,1.28629 c 0,1.19543 -0.015339,1.30057 -0.2171984,1.48863 -0.1378653,0.12844 -0.3520249,0.20236 -0.5863303,0.20236 -0.3105372,0 -0.4611631,-0.0863 -0.9488999,-0.54367 z"
       id="path4157"
       inkscape:connector-curvature="0" />
  </g>
</svg>
