<?xml version="1.0" encoding="UTF-8" standalone="no"?>
<!-- Created with Inkscape (http://www.inkscape.org/) -->

<svg
   xmlns:dc="http://purl.org/dc/elements/1.1/"
   xmlns:cc="http://creativecommons.org/ns#"
   xmlns:rdf="http://www.w3.org/1999/02/22-rdf-syntax-ns#"
   xmlns:svg="http://www.w3.org/2000/svg"
   xmlns="http://www.w3.org/2000/svg"
   xmlns:sodipodi="http://sodipodi.sourceforge.net/DTD/sodipodi-0.dtd"
   xmlns:inkscape="http://www.inkscape.org/namespaces/inkscape"
   width="50"
   height="50"
   viewBox="0 0 13.229166 13.229167"
   version="1.1"
   id="svg8"
   inkscape:version="0.91 r13725"
   sodipodi:docname="badminton.svg">
  <defs
     id="defs2" />
  <sodipodi:namedview
     id="base"
     pagecolor="#ffffff"
     bordercolor="#666666"
     borderopacity="1.0"
     inkscape:pageopacity="0"
     inkscape:pageshadow="2"
     inkscape:zoom="5.6"
     inkscape:cx="5.1683844"
     inkscape:cy="10.418442"
     inkscape:document-units="mm"
     inkscape:current-layer="layer1"
     showgrid="false"
     units="px"
     inkscape:pagecheckerboard="true"
     inkscape:window-width="1853"
     inkscape:window-height="1059"
     inkscape:window-x="67"
     inkscape:window-y="21"
     inkscape:window-maximized="1" />
  <metadata
     id="metadata5">
    <rdf:RDF>
      <cc:Work
         rdf:about="">
        <dc:format>image/svg+xml</dc:format>
        <dc:type
           rdf:resource="http://purl.org/dc/dcmitype/StillImage" />
        <dc:title></dc:title>
      </cc:Work>
    </rdf:RDF>
  </metadata>
  <g
     inkscape:label="Layer 1"
     inkscape:groupmode="layer"
     id="layer1"
     transform="translate(0,-283.77082)">
    <path
       style="fill:#808080;fill-opacity:1"
       d="m 5.5734687,296.77092 c -0.2750211,-0.098 -0.4575152,-0.47405 -0.367018,-0.75624 0.067926,-0.21179 0.1936934,-0.31436 0.4901098,-0.39972 0.741815,-0.21361 1.2710855,-0.6235 1.5667572,-1.21337 0.067217,-0.1341 0.072836,-0.15744 0.034327,-0.14256 -0.2697705,0.10409 -0.569096,0.19232 -0.7746377,0.22827 -0.4550509,0.0796 -1.2601945,0.0504 -1.5169282,-0.055 -0.1182607,-0.0485 -0.1985191,-0.12652 -0.2540368,-0.24681 -0.099665,-0.21594 -0.034336,-0.4868 0.1640868,-0.68029 0.1772756,-0.17289 0.3002483,-0.20386 0.6338733,-0.1597 0.4257426,0.0563 0.8781493,-0.005 1.2420081,-0.17088 l 0.1630574,-0.0739 0.016377,-0.2104 c 0.044884,-0.57663 0.00109,-1.07326 -0.15187,-1.72229 -0.077047,-0.32693 -0.024915,-0.30048 -0.4809119,-0.24402 -0.6644891,0.0823 -1.33205,0.13357 -1.4204295,0.10917 -0.2377499,-0.0657 -0.322123,-0.24032 -0.3648209,-0.75525 -0.071955,-0.86774 0.020832,-1.93019 0.191289,-2.19033 0.039365,-0.0601 0.039365,-0.0601 -0.3439547,-1.27328 l -0.1248751,-0.39522 -0.1826533,0 c -0.2898584,0 -0.5372607,-0.10463 -0.7558039,-0.31956 -0.5510578,-0.54202 -0.5670719,-1.48387 -0.032672,-1.92176 0.4533205,-0.37147 1.1050064,-0.24104 1.4897651,0.29815 0.1709976,0.23964 0.2409698,0.44941 0.2553997,0.7657 0.012722,0.27892 -0.019623,0.45484 -0.119731,0.65106 -0.066071,0.12951 -0.2630745,0.34042 -0.3786509,0.40538 -0.054641,0.0307 -0.094889,0.0677 -0.08945,0.0822 0.00545,0.0145 0.1158347,0.36844 0.2453174,0.78657 l 0.2354246,0.76023 0.096546,-0.0163 c 0.1492467,-0.0252 0.3124796,0.0326 0.4332628,0.15334 0.1381693,0.13816 0.1518218,0.22621 0.086931,0.56062 -0.080502,0.41484 -0.1099985,0.76462 -0.09314,1.10434 0.00846,0.17119 0.021178,0.31697 0.02818,0.32399 0.011066,0.0111 1.0527214,-0.0913 1.0539326,-0.10367 2.509e-4,-0.003 0.03851,-0.0811 0.085013,-0.17453 0.2447142,-0.49168 0.8442616,-0.66641 1.2580821,-0.36663 l 0.1098577,0.0796 0.1269293,-0.0705 c 0.2891791,-0.16056 0.9518439,-0.58405 1.2613142,-0.80605 0.1822663,-0.13077 0.3679627,-0.24823 0.4126585,-0.26106 0.3517886,-0.10088 0.6590576,0.431 0.4388016,0.75959 -0.09743,0.14534 -0.6254545,0.51978 -1.3522344,0.95891 -0.2449751,0.14801 -0.4454088,0.27264 -0.4454088,0.27694 0,0.004 0.022097,0.0796 0.049101,0.16732 0.2360397,0.76664 0.3234735,1.69437 0.2420629,2.56846 -0.059265,0.6363 -0.084699,0.81663 -0.1575162,1.11666 -0.3110985,1.28187 -1.2225407,2.19016 -2.5672101,2.55832 -0.2176521,0.0596 -0.3021852,0.0623 -0.43651,0.0146 z M 4.3533051,286.20123 c 0.379972,-0.15315 0.5829049,-0.56546 0.5226589,-1.06191 -0.047448,-0.39099 -0.3111211,-0.76783 -0.6481269,-0.92629 -0.1965359,-0.0924 -0.4843092,-0.091 -0.6649765,0.003 -0.4584245,0.23924 -0.6120568,0.86467 -0.3483913,1.41829 0.229455,0.48177 0.7306484,0.73113 1.1388358,0.56661 z m 2.829186,2.85053 c -0.3337577,-0.0786 -0.6186758,-0.34954 -0.7330964,-0.69697 -0.068918,-0.20928 -0.046157,-0.52114 0.053413,-0.73164 0.344624,-0.72861 1.3572753,-0.78638 1.793637,-0.10239 0.1074853,0.16851 0.1532049,0.35771 0.1429142,0.59146 -0.027779,0.63113 -0.6360538,1.08579 -1.256871,0.93948 z m 2.082861,-3.30298 -0.4454091,-0.11357 0,-0.17905 0,-0.17904 0.4328624,-0.13476 c 0.2380744,-0.0741 0.4469775,-0.13993 0.4642292,-0.14627 0.024341,-0.009 0.031367,0.0873 0.031367,0.42972 0,0.24267 -0.00846,0.44016 -0.01882,0.43887 -0.010356,-9.1e-4 -0.2192542,-0.0534 -0.4642292,-0.1159 z"
       id="path4780"
       inkscape:connector-curvature="0" />
    <circle
       style="fill:#808080;fill-opacity:1;stroke:#808080;stroke-width:0.13229167;stroke-linejoin:miter;stroke-miterlimit:4;stroke-dasharray:none;stroke-opacity:1"
       id="path4782"
       cx="8.6580162"
       cy="285.43628"
       r="0.20079987" />
  </g>
</svg>
