<?xml version="1.0" encoding="UTF-8" standalone="no"?>
<!-- Created with Inkscape (http://www.inkscape.org/) -->

<svg
   xmlns:dc="http://purl.org/dc/elements/1.1/"
   xmlns:cc="http://creativecommons.org/ns#"
   xmlns:rdf="http://www.w3.org/1999/02/22-rdf-syntax-ns#"
   xmlns:svg="http://www.w3.org/2000/svg"
   xmlns="http://www.w3.org/2000/svg"
   xmlns:sodipodi="http://sodipodi.sourceforge.net/DTD/sodipodi-0.dtd"
   xmlns:inkscape="http://www.inkscape.org/namespaces/inkscape"
   width="50"
   height="50"
   viewBox="0 0 13.229166 13.229167"
   version="1.1"
   id="svg8"
   inkscape:version="0.92.1 r"
   sodipodi:docname="info.svg">
  <defs
     id="defs2" />
  <sodipodi:namedview
     id="base"
     pagecolor="#ffffff"
     bordercolor="#666666"
     borderopacity="1.0"
     inkscape:pageopacity="0.0"
     inkscape:pageshadow="2"
     inkscape:zoom="15.839192"
     inkscape:cx="25.637205"
     inkscape:cy="25.669859"
     inkscape:document-units="mm"
     inkscape:current-layer="layer1"
     showgrid="false"
     units="px"
     inkscape:pagecheckerboard="true"
     inkscape:window-width="1920"
     inkscape:window-height="1035"
     inkscape:window-x="0"
     inkscape:window-y="23"
     inkscape:window-maximized="0" />
  <metadata
     id="metadata5">
    <rdf:RDF>
      <cc:Work
         rdf:about="">
        <dc:format>image/svg+xml</dc:format>
        <dc:type
           rdf:resource="http://purl.org/dc/dcmitype/StillImage" />
        <dc:title></dc:title>
      </cc:Work>
    </rdf:RDF>
  </metadata>
  <g
     inkscape:label="Layer 1"
     inkscape:groupmode="layer"
     id="layer1"
     transform="translate(0,-283.77082)">
    <path
       style="fill:#ffffff;fill-opacity:1;stroke-width:0.08797317"
       d="m 6.0316268,295.21742 c -0.1563965,-0.1564 -0.1759469,-0.29325 -0.1759469,-1.23163 v -1.05567 l -0.8577383,-0.003 c -1.2387832,-0.004 -1.9685349,-0.1205 -2.5945207,-0.41365 -0.7003945,-0.32798 -1.39703,-1.03142 -1.76558494,-1.7828 -0.42046042,-1.08434 -0.43443008,-2.27569 0.0102063,-3.18961 0.53691004,-1.09789 1.56014504,-1.86918 2.77859174,-2.09442 0.3258544,-0.0602 1.6020592,-0.0824 3.5156735,-0.0611 2.7829347,0.0311 3.0373639,0.0469 3.4555695,0.21465 2.118193,0.84977 3.046851,3.13042 2.108906,5.17916 -0.28114,0.61409 -1.078978,1.41131 -1.734675,1.73334 -0.305379,0.14998 -0.757352,0.27598 -1.1840411,0.33008 l -0.6901207,0.0875 -1.2420374,1.23145 c -0.683121,0.6773 -1.2884545,1.23146 -1.3451867,1.23146 -0.056732,0 -0.1823251,-0.0792 -0.2790953,-0.17595 z m 1.3879962,-3.65588 c 0.190603,-0.1335 0.1955207,-0.1798 0.1955207,-1.84115 0,-1.43198 -0.022079,-1.72629 -0.138244,-1.84245 -0.1048649,-0.10486 -0.3263766,-0.13825 -0.9174339,-0.13825 -1.285564,0 -1.2881927,0.93807 -0.3518931,0.96771 h 0.3518931 v 1.3586 c 0,1.30421 0.00785,1.36407 0.1955204,1.49554 0.1075371,0.0753 0.2570802,0.13695 0.3323178,0.13695 0.075235,0 0.2247825,-0.0616 0.332319,-0.13695 z m -0.036277,-4.26809 c 0.441075,-0.34695 0.1931619,-1.04929 -0.3703802,-1.04929 -0.5253254,0 -0.7806922,0.73718 -0.3704433,1.06938 0.2596369,0.21024 0.4547282,0.20494 0.7408235,-0.0201 z"
       id="path4542"
       inkscape:connector-curvature="0"
       sodipodi:nodetypes="csccccccccsssccscccsccccscsccsccc" />
  </g>
</svg>
