<?xml version="1.0" encoding="UTF-8" standalone="no"?>
<!-- Created with Inkscape (http://www.inkscape.org/) -->

<svg
   xmlns:dc="http://purl.org/dc/elements/1.1/"
   xmlns:cc="http://creativecommons.org/ns#"
   xmlns:rdf="http://www.w3.org/1999/02/22-rdf-syntax-ns#"
   xmlns:svg="http://www.w3.org/2000/svg"
   xmlns="http://www.w3.org/2000/svg"
   xmlns:sodipodi="http://sodipodi.sourceforge.net/DTD/sodipodi-0.dtd"
   xmlns:inkscape="http://www.inkscape.org/namespaces/inkscape"
   width="50"
   height="50"
   viewBox="0 0 13.229166 13.229167"
   version="1.1"
   id="svg8"
   inkscape:version="0.91 r13725"
   sodipodi:docname="map.svg">
  <defs
     id="defs2" />
  <sodipodi:namedview
     id="base"
     pagecolor="#ababab"
     bordercolor="#666666"
     borderopacity="1.0"
     inkscape:pageopacity="0"
     inkscape:pageshadow="2"
     inkscape:zoom="7.919596"
     inkscape:cx="47.907827"
     inkscape:cy="20.719387"
     inkscape:document-units="mm"
     inkscape:current-layer="layer1"
     showgrid="false"
     units="px"
     inkscape:pagecheckerboard="true"
     inkscape:window-width="1853"
     inkscape:window-height="1059"
     inkscape:window-x="67"
     inkscape:window-y="21"
     inkscape:window-maximized="1" />
  <metadata
     id="metadata5">
    <rdf:RDF>
      <cc:Work
         rdf:about="">
        <dc:format>image/svg+xml</dc:format>
        <dc:type
           rdf:resource="http://purl.org/dc/dcmitype/StillImage" />
        <dc:title></dc:title>
      </cc:Work>
    </rdf:RDF>
  </metadata>
  <g
     inkscape:label="Layer 1"
     inkscape:groupmode="layer"
     id="layer1"
     transform="translate(0,-283.77082)">
    <path
       style="fill:#ffffff;fill-opacity:1;stroke:#ffffff;stroke-width:0.34339514;stroke-linejoin:miter;stroke-miterlimit:4;stroke-dasharray:none;stroke-opacity:1"
       d="m 3.3119966,294.44577 -1.6203445,-0.81145 0,-4.11325 c 0,-3.90792 0.00157,-4.11282 0.033672,-4.10445 0.018488,0.004 0.7548621,0.2793 1.6363385,0.60991 0.8814762,0.3306 1.6171188,0.59704 1.6347649,0.5921 0.017622,-0.004 0.286105,-0.11452 0.5965747,-0.24351 0.3104697,-0.12899 0.5722181,-0.2268 0.5722181,-0.2268 l -0.031783,0.12148 -0.1139008,0.58811 -0.033121,0.24736 c 0,0 -0.1473992,0.0649 -0.308676,0.127 l -0.2932327,0.1129 -5.51e-5,3.38974 c -3.93e-5,1.86436 0.0055,3.38974 0.011486,3.38974 0.00629,0 0.5710616,-0.28365 1.2549227,-0.63035 0.6838452,-0.34667 1.3212505,-0.6653 1.416459,-0.70806 l 0.1730933,-0.0777 0.0096,-0.27759 0.0096,-0.27761 0.2019422,-0.32207 0.2019422,-0.32207 0.00472,0.67074 0.00472,0.67074 1.0066266,0.51199 c 0.5536443,0.28159 1.0122293,0.51199 1.0190823,0.51199 0.0071,0 0.01242,-1.42184 0.01242,-3.15963 l 0,-3.15962 -0.237014,-0.18671 -0.02014,-0.69341 -0.02667,-0.15864 0.558907,0.25639 0.550874,0.26442 4.87e-4,4.11095 -0.01392,4.1099 c 0,0 -0.745737,-0.36733 -1.6395734,-0.815 l -1.6251509,-0.81394 -1.6299108,0.81499 c -0.8964553,0.44826 -1.6450789,0.81452 -1.6636138,0.81393 -0.018567,-5.8e-4 -0.7628631,-0.36622 -1.6540474,-0.81252 z m 1.6491933,-3.52029 0,-3.41075 -0.1202102,-0.0349 c -0.066084,-0.0192 -0.6115854,-0.21964 -1.2121646,-0.44539 -0.6005792,-0.22576 -1.1010644,-0.41047 -1.1010644,-0.41047 l -0.00913,3.24557 0,3.24557 1.2164521,0.60948 c 0.669055,0.33522 1.2212669,0.61056 1.2212669,0.61056 0,0 0.00472,-1.53375 0.00472,-3.40965 z m 3.1493668,-0.11364 c -0.3223176,-0.53139 -0.6951818,-1.23563 -0.9240848,-1.74535 -0.5568614,-1.24004 -0.6966608,-2.0258 -0.4654056,-2.6159 0.1617489,-0.41272 0.5196891,-0.77066 0.9324161,-0.93241 0.2657528,-0.10415 0.6665061,-0.13724 0.9455701,-0.0781 0.5017283,0.10634 0.9138654,0.43297 1.1419423,0.905 0.1043575,0.21598 0.1410267,0.35365 0.1562343,0.58659 0.045313,0.6939 -0.3550376,1.83799 -1.1474261,3.27916 -0.1471001,0.26753 -0.4807151,0.83661 -0.4904624,0.83661 -0.00315,0 -0.070175,-0.10602 -0.1487839,-0.2356 z m 0.4022008,-3.22725 c 0.2939488,-0.14257 0.4253304,-0.49348 0.2890475,-0.77204 -0.1494997,-0.30556 -0.5097056,-0.44371 -0.7906027,-0.30319 -0.371448,0.18581 -0.468458,0.64241 -0.1986694,0.93509 0.2012656,0.21835 0.4403173,0.26619 0.7002246,0.14014 z"
       id="path4219"
       inkscape:connector-curvature="0"
       sodipodi:nodetypes="ccscscsccccccsssccccccccsssccccccccscsccccccccccsccccscccccssccccscc" />
  </g>
</svg>
