<?xml version="1.0" encoding="UTF-8" standalone="no"?>
<!-- Created with Inkscape (http://www.inkscape.org/) -->

<svg
   xmlns:dc="http://purl.org/dc/elements/1.1/"
   xmlns:cc="http://creativecommons.org/ns#"
   xmlns:rdf="http://www.w3.org/1999/02/22-rdf-syntax-ns#"
   xmlns:svg="http://www.w3.org/2000/svg"
   xmlns="http://www.w3.org/2000/svg"
   xmlns:sodipodi="http://sodipodi.sourceforge.net/DTD/sodipodi-0.dtd"
   xmlns:inkscape="http://www.inkscape.org/namespaces/inkscape"
   width="50"
   height="50"
   viewBox="0 0 13.229166 13.229167"
   version="1.1"
   id="svg8"
   inkscape:version="0.92.1 r"
   sodipodi:docname="menu.svg">
  <defs
     id="defs2" />
  <sodipodi:namedview
     id="base"
     pagecolor="#ffffff"
     bordercolor="#666666"
     borderopacity="1.0"
     inkscape:pageopacity="0.0"
     inkscape:pageshadow="2"
     inkscape:zoom="3.959798"
     inkscape:cx="21.863115"
     inkscape:cy="88.560323"
     inkscape:document-units="mm"
     inkscape:current-layer="layer1"
     showgrid="false"
     units="px"
     inkscape:pagecheckerboard="true"
     inkscape:window-width="1920"
     inkscape:window-height="1035"
     inkscape:window-x="0"
     inkscape:window-y="23"
     inkscape:window-maximized="0" />
  <metadata
     id="metadata5">
    <rdf:RDF>
      <cc:Work
         rdf:about="">
        <dc:format>image/svg+xml</dc:format>
        <dc:type
           rdf:resource="http://purl.org/dc/dcmitype/StillImage" />
        <dc:title />
      </cc:Work>
    </rdf:RDF>
  </metadata>
  <g
     inkscape:label="Layer 1"
     inkscape:groupmode="layer"
     id="layer1"
     transform="translate(0,-283.77082)">
    <path
       style="fill:#ffffff;stroke-width:0.02457775;fill-opacity:1"
       d="m 1.2348189,296.02477 c -0.2125562,-0.0571 -0.41006898,-0.17714 -0.56594975,-0.34378 -0.15801165,-0.16892 -0.25101723,-0.3385 -0.30857282,-0.56264 -0.16159488,-0.62931 0.26330903,-1.2945 0.92680927,-1.45093 0.1331016,-0.0314 0.8519675,-0.0363 5.3274795,-0.0363 4.4755119,0 5.1943769,0.005 5.3274789,0.0363 0.458323,0.10806 0.806974,0.44993 0.926291,0.90826 0.159697,0.61345 -0.249881,1.28499 -0.884553,1.45029 -0.127647,0.0333 -0.754654,0.0375 -5.3805243,0.036 -4.4913147,-10e-4 -5.2548753,-0.006 -5.3684588,-0.0372 z m 0.169097,-4.43341 c -0.54660618,-0.0716 -0.9683049,-0.47978 -1.06104295,-1.02702 -0.0984171,-0.58075 0.28304513,-1.16786 0.87689625,-1.34965 0.1411306,-0.0432 0.3729044,-0.0451 5.3948159,-0.0451 5.0219119,0 5.2536849,0.002 5.3948149,0.0451 0.593851,0.18179 0.975314,0.7689 0.876897,1.34965 -0.07932,0.46805 -0.401321,0.83789 -0.864608,0.99307 -0.129487,0.0434 -0.352945,0.0455 -5.3087922,0.0484 -2.8454896,0.002 -5.2345307,-0.005 -5.3089809,-0.0146 z m -0.1280692,-4.48763 c -0.44843288,-0.10872 -0.79719683,-0.45446 -0.91503081,-0.90711 -0.15969739,-0.61345 0.24988101,-1.28499 0.88455231,-1.4503 0.1275455,-0.0333 0.7569974,-0.0376 5.3692169,-0.0376 5.7570199,0 5.3520659,-0.0108 5.6577929,0.15207 0.175329,0.0935 0.408317,0.33594 0.495317,0.51551 0.03496,0.0722 0.08048,0.19712 0.101175,0.27769 0.161595,0.6293 -0.263308,1.29449 -0.926809,1.45092 -0.22374,0.0528 -10.4484242,0.0516 -10.6662174,-0.001 z"
       id="path4496"
       inkscape:connector-curvature="0" />
  </g>
</svg>
