<?xml version="1.0" encoding="UTF-8" standalone="no"?>
<!-- Created with Inkscape (http://www.inkscape.org/) -->

<svg
   xmlns:dc="http://purl.org/dc/elements/1.1/"
   xmlns:cc="http://creativecommons.org/ns#"
   xmlns:rdf="http://www.w3.org/1999/02/22-rdf-syntax-ns#"
   xmlns:svg="http://www.w3.org/2000/svg"
   xmlns="http://www.w3.org/2000/svg"
   xmlns:sodipodi="http://sodipodi.sourceforge.net/DTD/sodipodi-0.dtd"
   xmlns:inkscape="http://www.inkscape.org/namespaces/inkscape"
   width="50"
   height="50"
   viewBox="0 0 13.229166 13.229167"
   version="1.1"
   id="svg8"
   inkscape:version="0.91 r13725"
   sodipodi:docname="natation.svg">
  <defs
     id="defs2" />
  <sodipodi:namedview
     id="base"
     pagecolor="#ffffff"
     bordercolor="#666666"
     borderopacity="1.0"
     inkscape:pageopacity="0"
     inkscape:pageshadow="2"
     inkscape:zoom="1.979899"
     inkscape:cx="-83.24711"
     inkscape:cy="34.694121"
     inkscape:document-units="mm"
     inkscape:current-layer="layer1"
     showgrid="false"
     units="px"
     inkscape:pagecheckerboard="true"
     inkscape:window-width="1853"
     inkscape:window-height="1059"
     inkscape:window-x="67"
     inkscape:window-y="21"
     inkscape:window-maximized="1" />
  <metadata
     id="metadata5">
    <rdf:RDF>
      <cc:Work
         rdf:about="">
        <dc:format>image/svg+xml</dc:format>
        <dc:type
           rdf:resource="http://purl.org/dc/dcmitype/StillImage" />
        <dc:title></dc:title>
      </cc:Work>
    </rdf:RDF>
  </metadata>
  <g
     inkscape:label="Layer 1"
     inkscape:groupmode="layer"
     id="layer1"
     transform="translate(0,-283.77082)">
    <path
       style="fill:#808080;fill-opacity:1"
       d="M 4.0115256,294.39504 C 2.9373214,294.24966 2.0282582,294.02327 1.017619,293.6494 l -0.58732186,-0.21727 0,-0.64766 c 0,-0.35621 0.0208516,-0.64766 0.0463313,-0.64766 0.0254797,0 0.26399263,0.0803 0.53002166,0.17836 1.505728,0.55524 2.5803383,0.81323 3.4059719,0.8177 0.7240337,0.004 1.1321042,-0.0859 1.976838,-0.43538 1.9640363,-0.81241 2.8035385,-0.93456 4.251179,-0.61861 0.521766,0.11388 1.57023,0.45132 1.937184,0.62348 l 0.200548,0.0941 0.01615,0.67294 c 0.0089,0.37011 0.0037,0.67293 -0.01161,0.67293 -0.01527,0 -0.306164,-0.11394 -0.646439,-0.25322 -1.263639,-0.51719 -2.3842153,-0.76917 -3.102205,-0.69758 -0.6024876,0.0601 -1.0600205,0.19226 -2.0287753,0.58607 -0.496331,0.20177 -1.1151671,0.41671 -1.3751918,0.47765 -0.4764715,0.11167 -1.3006976,0.18285 -1.6187653,0.13982 z m 0.00862,-2.49023 c -0.3328955,-0.0559 -0.8274143,-0.28843 -0.9969109,-0.46886 l -0.1224576,-0.13035 0.5553728,-0.31907 c 1.6856092,-0.96839 3.3083091,-1.90502 3.3260152,-1.91978 0.051871,-0.0432 -0.7706106,-1.01402 -0.9011715,-1.06365 -0.2085918,-0.0793 -0.3782111,-4.4e-4 -1.6050998,0.7459 -0.5794365,0.35251 -1.0600347,0.63369 -1.0679963,0.62485 -0.00796,-0.009 -0.1559333,-0.25017 -0.3288272,-0.53629 l -0.3143513,-0.52021 1.1531497,-0.68983 c 0.634233,-0.37942 1.2530686,-0.7221 1.3751919,-0.76152 0.3608427,-0.11648 1.094152,-0.0505 1.4469941,0.13014 0.3922223,0.20083 0.4906163,0.30637 1.4556154,1.56134 0.4559632,0.59297 1.0159653,1.30501 1.2444476,1.5823 0.2284823,0.2773 0.4154228,0.51776 0.4154228,0.53436 0,0.0166 -0.127913,0.0302 -0.2842512,0.0302 -0.5007891,0 -1.4479176,0.12306 -1.9795209,0.25721 -0.2838729,0.0716 -0.8898166,0.29941 -1.3465421,0.50618 -0.529755,0.23984 -0.9652565,0.39774 -1.202857,0.43614 -0.4137318,0.0669 -0.429304,0.0669 -0.822222,8.7e-4 z m 6.2843924,-2.46241 c -0.3126352,-0.0634 -0.5189843,-0.1748 -0.7579594,-0.40916 -0.7422825,-0.72797 -0.5597903,-2.03293 0.3461474,-2.47522 0.680244,-0.33211 1.286236,-0.23962 1.800688,0.27483 0.508293,0.5083 0.612668,1.15765 0.288807,1.79675 -0.305727,0.60332 -1.01538,0.94713 -1.677683,0.8128 z"
       id="path4187"
       inkscape:connector-curvature="0" />
  </g>
</svg>
