<?xml version="1.0" encoding="UTF-8" standalone="no"?>
<!-- Created with Inkscape (http://www.inkscape.org/) -->

<svg
   xmlns:dc="http://purl.org/dc/elements/1.1/"
   xmlns:cc="http://creativecommons.org/ns#"
   xmlns:rdf="http://www.w3.org/1999/02/22-rdf-syntax-ns#"
   xmlns:svg="http://www.w3.org/2000/svg"
   xmlns="http://www.w3.org/2000/svg"
   xmlns:sodipodi="http://sodipodi.sourceforge.net/DTD/sodipodi-0.dtd"
   xmlns:inkscape="http://www.inkscape.org/namespaces/inkscape"
   width="50"
   height="50"
   viewBox="0 0 13.229166 13.229167"
   version="1.1"
   id="svg8"
   inkscape:version="0.92.1 r"
   sodipodi:docname="ponts.svg">
  <defs
     id="defs2" />
  <sodipodi:namedview
     id="base"
     pagecolor="#ffffff"
     bordercolor="#666666"
     borderopacity="1.0"
     inkscape:pageopacity="0.0"
     inkscape:pageshadow="2"
     inkscape:zoom="3.959798"
     inkscape:cx="-112.92737"
     inkscape:cy="87.054887"
     inkscape:document-units="mm"
     inkscape:current-layer="layer1"
     showgrid="false"
     units="px"
     inkscape:pagecheckerboard="true"
     inkscape:window-width="1920"
     inkscape:window-height="1035"
     inkscape:window-x="0"
     inkscape:window-y="23"
     inkscape:window-maximized="0" />
  <metadata
     id="metadata5">
    <rdf:RDF>
      <cc:Work
         rdf:about="">
        <dc:format>image/svg+xml</dc:format>
        <dc:type
           rdf:resource="http://purl.org/dc/dcmitype/StillImage" />
        <dc:title />
      </cc:Work>
    </rdf:RDF>
  </metadata>
  <g
     inkscape:label="Layer 1"
     inkscape:groupmode="layer"
     id="layer1"
     transform="translate(0,-283.77082)">
    <path
       style="fill:#666666;fill-opacity:1;stroke-width:0.08150198"
       d="m 1.0868717,295.07665 c 0.024697,-0.0644 0.3761955,-0.68523 0.7810996,-1.37968 0.4049049,-0.69448 0.8047314,-1.38449 0.8885042,-1.53339 0.083776,-0.14891 0.548413,-0.94924 1.0325355,-1.77851 1.1698593,-2.00393 2.3966256,-4.12492 2.6041139,-4.50232 0.092217,-0.16772 0.1883657,-0.30527 0.2136713,-0.30563 0.025306,-3.6e-4 0.3003757,0.44117 0.6112654,0.98117 0.3108897,0.54002 0.6272636,1.0876 0.7030541,1.21685 0.2164393,0.36912 1.5563407,2.67986 2.4113113,4.15845 0.427676,0.73964 1.010165,1.73953 1.29442,2.22196 0.284253,0.48243 0.516825,0.91338 0.516825,0.95764 0,0.0522 -1.951278,0.0805 -5.5508556,0.0805 -4.7905459,0 -5.544703,-0.016 -5.5059447,-0.11702 z m 4.8872243,-0.48971 c -0.046544,-0.144 -0.7156159,-1.26755 -0.7539328,-1.26604 -0.069393,0.003 -0.7397701,1.23294 -0.7036992,1.29137 0.040926,0.0664 1.479171,0.0414 1.457632,-0.0253 z m 2.5651069,-0.39768 c -0.1383511,-0.23203 -0.3100094,-0.52249 -0.3814639,-0.64548 -0.071458,-0.12298 -0.1482558,-0.22346 -0.1706694,-0.22326 -0.041021,3.2e-4 -0.7335174,1.18354 -0.7335174,1.25329 0,0.0712 0.2652638,0.0899 0.899827,0.0637 l 0.6373728,-0.0264 z m 2.6170201,0.40351 c 0.03367,-0.0684 -0.619257,-1.2496 -0.727826,-1.3167 -0.04989,-0.0308 -0.6323455,0.90565 -0.7965257,1.28066 -0.014299,0.0327 0.2607739,0.0701 0.6112637,0.0832 0.825671,0.031 0.875867,0.0283 0.913088,-0.0473 z m -7.5702592,-0.0122 c 0,-0.0533 -0.7472317,-1.34291 -0.778136,-1.34291 -0.031485,0 -0.7704017,1.28618 -0.7704017,1.341 0,0.0245 0.3484209,0.0446 0.7742686,0.0446 0.4258476,0 0.7742691,-0.0191 0.7742691,-0.0426 z m 4.0329894,-1.66892 c 0.5269858,-0.91892 0.9949283,-1.71662 1.0398748,-1.77266 0.057498,-0.0717 0.048554,-0.10228 -0.030133,-0.10337 -2.6585298,-0.0354 -4.0647086,-0.0246 -4.0647064,0.031 2.2e-6,0.0387 0.1786205,0.36869 0.3969323,0.73352 0.2183096,0.36484 0.6259239,1.06677 0.9058082,1.55985 0.6095643,1.0739 0.7404795,1.28617 0.7709556,1.24999 0.012717,-0.0151 0.4542879,-0.77931 0.9812738,-1.69825 z m 2.0342989,0.91172 c 0.2490786,-0.43991 0.4529419,-0.83417 0.4530299,-0.87615 8.1e-5,-0.0445 -0.3910597,-0.0659 -0.937274,-0.0509 -0.515587,0.0139 -0.9374323,0.0375 -0.9374323,0.0524 0,0.0149 0.1256939,0.24193 0.2793213,0.50445 0.1536267,0.26252 0.3618443,0.63319 0.4627076,0.82371 0.1008628,0.1905 0.1931494,0.34638 0.2050816,0.34638 0.011929,0 0.2254864,-0.35993 0.4745659,-0.79984 z m -5.0944831,-0.0876 c 0.2269997,-0.39669 0.4127282,-0.74439 0.4127282,-0.7727 0,-0.0282 -0.4217725,-0.0515 -0.9372735,-0.0515 -0.5154995,0 -0.9372721,0.022 -0.9372721,0.0488 0,0.1361 0.9148497,1.5795 0.9768372,1.54118 0.039734,-0.0246 0.2579806,-0.3692 0.4849802,-0.76587 z m 0.18688,-1.19599 c 0.04794,-0.0479 -0.6773287,-1.3397 -0.7521762,-1.3397 -0.074845,0 -0.8001098,1.29177 -0.7521748,1.3397 0.059792,0.0598 1.4445608,0.0598 1.504351,0 z m 5.278971,0.008 c 0,-0.0365 -0.1600092,-0.33012 -0.5929396,-1.08867 l -0.2010426,-0.35233 -0.3772772,0.65408 c -0.2075036,0.35975 -0.3772792,0.69247 -0.3772792,0.7394 0,0.0533 0.2894453,0.0853 0.7742691,0.0853 0.4258492,0 0.7742695,-0.017 0.7742695,-0.0379 z m -3.9299264,-2.26459 c -0.064943,-0.10087 -0.2741528,-0.45212 -0.4649106,-0.78056 -0.1907586,-0.32846 -0.3584999,-0.5852 -0.372757,-0.57052 -0.047969,0.0493 -0.8560428,1.46545 -0.8560428,1.50014 0,0.0189 0.4076529,0.0343 0.9058959,0.0343 h 0.9058944 z m 1.1537456,-0.8605 c 0.2366655,-0.41725 0.4141906,-0.77476 0.394497,-0.79445 -0.04678,-0.0468 -2.0237174,-0.0591 -2.0699221,-0.0129 -0.029841,0.0298 0.5107449,1.01038 0.9239243,1.67583 0.1417335,0.22828 0.1059527,0.26962 0.7515008,-0.8685 z m 1.5536509,0.99216 c 0,-0.0282 -0.1874669,-0.37905 -0.4165921,-0.77945 -0.406268,-0.70992 -0.4196947,-0.72354 -0.5417389,-0.54931 -0.1341418,0.19152 -0.7532109,1.30171 -0.7532109,1.35074 0,0.0162 0.3850966,0.0295 0.8557714,0.0295 0.4706737,0 0.8557705,-0.0231 0.8557705,-0.0515 z m -1.2792726,-2.20103 c 0.028564,-0.0286 -0.014039,-0.14775 -0.094664,-0.26487 -0.080625,-0.11712 -0.2830513,-0.46053 -0.4498426,-0.7631 -0.1667901,-0.30259 -0.3323659,-0.55014 -0.3679464,-0.55014 -0.063481,0 -0.9053544,1.46341 -0.9053544,1.57377 0,0.0708 1.7472184,0.0748 1.8178027,0.004 z"
       id="path4502"
       inkscape:connector-curvature="0"
       sodipodi:nodetypes="ccccssscccssccccccccccscccccccccssssssccccccccccccsccscccsssccccscccsccsscccccsscccccccsccsssscscsscc" />
  </g>
</svg>
