<?xml version="1.0" encoding="UTF-8" standalone="no"?>
<!-- Created with Inkscape (http://www.inkscape.org/) -->

<svg
   xmlns:dc="http://purl.org/dc/elements/1.1/"
   xmlns:cc="http://creativecommons.org/ns#"
   xmlns:rdf="http://www.w3.org/1999/02/22-rdf-syntax-ns#"
   xmlns:svg="http://www.w3.org/2000/svg"
   xmlns="http://www.w3.org/2000/svg"
   xmlns:sodipodi="http://sodipodi.sourceforge.net/DTD/sodipodi-0.dtd"
   xmlns:inkscape="http://www.inkscape.org/namespaces/inkscape"
   width="50"
   height="50"
   viewBox="0 0 13.229166 13.229167"
   version="1.1"
   id="svg8"
   inkscape:version="0.91 r13725"
   sodipodi:docname="rugby.svg">
  <defs
     id="defs2" />
  <sodipodi:namedview
     id="base"
     pagecolor="#ffffff"
     bordercolor="#666666"
     borderopacity="1.0"
     inkscape:pageopacity="0"
     inkscape:pageshadow="2"
     inkscape:zoom="1.979899"
     inkscape:cx="-83.24711"
     inkscape:cy="34.694121"
     inkscape:document-units="mm"
     inkscape:current-layer="layer1"
     showgrid="false"
     units="px"
     inkscape:pagecheckerboard="true"
     inkscape:window-width="1853"
     inkscape:window-height="1059"
     inkscape:window-x="67"
     inkscape:window-y="21"
     inkscape:window-maximized="1" />
  <metadata
     id="metadata5">
    <rdf:RDF>
      <cc:Work
         rdf:about="">
        <dc:format>image/svg+xml</dc:format>
        <dc:type
           rdf:resource="http://purl.org/dc/dcmitype/StillImage" />
        <dc:title></dc:title>
      </cc:Work>
    </rdf:RDF>
  </metadata>
  <g
     inkscape:label="Layer 1"
     inkscape:groupmode="layer"
     id="layer1"
     transform="translate(0,-283.77082)">
    <path
       style="fill:#808080;fill-opacity:1"
       d="m 6.9050794,295.45908 c -0.163881,-0.16389 -0.167589,-0.28439 -0.02788,-0.90608 0.248793,-1.10711 0.420981,-1.94695 0.407168,-1.98596 -0.03787,-0.10695 -1.303513,-1.55591 -1.332589,-1.52561 -0.01811,0.0189 -0.259724,0.42804 -0.53693,0.90926 -0.300677,0.52196 -0.549166,0.9045 -0.615938,0.94821 -0.122927,0.0805 -0.02772,0.0791 -1.966478,0.0279 l -1.118262,-0.0295 -0.120877,-0.12088 c -0.155543,-0.15554 -0.163563,-0.37478 -0.01982,-0.54188 0.100792,-0.11718 0.10404,-0.11774 1.260689,-0.21581 0.637801,-0.0541 1.191597,-0.0993 1.23066,-0.10042 0.04995,-0.001 0.177843,-0.24152 0.431005,-0.80893 0.19799,-0.44374 0.437563,-0.95899 0.532384,-1.14499 0.181824,-0.35666 2.136454,-3.28958 2.253832,-3.38187 0.03769,-0.0296 0.115377,-0.0539 0.172646,-0.0539 0.08239,0 0.09757,-0.0157 0.07274,-0.0754 -0.07279,-0.17496 -0.07392,-0.48969 -0.0024,-0.67688 0.275075,-0.72027 1.298998,-0.78434 1.644318,-0.10288 0.175494,0.34632 0.11927,0.76443 -0.139062,1.03413 l -0.10948,0.1143 0.230292,0.0641 c 0.126662,0.0353 0.408357,0.1069 0.625991,0.15917 0.217634,0.0523 0.4254036,0.12785 0.4617106,0.16796 0.03631,0.0401 0.243306,0.41782 0.459998,0.83932 0.385088,0.74907 0.40837,0.82325 0.32238,1.02717 -0.02325,0.0551 0.0093,0.0935 0.134534,0.1587 0.188057,0.0979 0.344803,0.23776 0.51184,0.45675 0.150194,0.19692 0.123326,0.29991 -0.151962,0.58254 -0.273033,0.28031 -0.609019,0.43744 -0.99433,0.46501 -0.2517,0.018 -0.296655,0.0342 -0.336123,0.12079 -0.07812,0.17146 -0.2409126,0.24772 -0.4704166,0.22037 -0.318157,-0.0379 -1.966928,-0.47692 -2.087252,-0.55576 -0.109815,-0.072 -0.130913,-0.11346 -0.295288,-0.58084 l -0.09373,-0.26653 -0.16925,0.19555 c -0.109426,0.12643 -0.155901,0.21302 -0.131484,0.24498 0.167335,0.219 1.428646,2.00951 1.467416,2.08309 0.02728,0.0518 0.0496,0.13915 0.0496,0.19415 0,0.055 -0.167486,0.6139 -0.372191,1.24198 -0.204705,0.62808 -0.410732,1.26803 -0.457837,1.42211 -0.101707,0.33269 -0.217517,0.46767 -0.430979,0.50231 -0.135491,0.022 -0.175523,0.007 -0.288612,-0.10577 z m 3.9847966,-5.19722 c 0.118526,-0.056 0.273688,-0.16429 0.344804,-0.24059 l 0.129301,-0.13871 -0.184764,-0.16493 c -0.447913,-0.39983 -1.122081,-0.39983 -1.5699936,0 l -0.184765,0.16493 0.129302,0.13783 c 0.313754,0.33445 0.9110836,0.44241 1.3361156,0.24147 z M 9.0274404,289.9219 c -0.01214,-0.0635 0.02514,-0.15305 0.106187,-0.25504 0.236449,-0.29753 0.535203,-0.49281 0.9071756,-0.59297 l 0.184855,-0.0498 -0.2903296,-0.55869 c -0.320818,-0.61736 -0.246331,-0.55565 -0.83178,-0.6891 -0.223161,-0.0509 -0.238006,-0.0489 -0.301704,0.0408 -0.03685,0.0519 -0.246399,0.30764 -0.465673,0.56832 -0.219274,0.26068 -0.397356,0.50714 -0.395738,0.5477 0.0016,0.0405 0.06525,0.25658 0.141393,0.48006 l 0.138453,0.40633 0.343487,0.0947 c 0.459712,0.12673 0.486525,0.12717 0.463674,0.008 z"
       id="path4283"
       inkscape:connector-curvature="0" />
  </g>
</svg>
