<?xml version="1.0" encoding="UTF-8" standalone="no"?>
<!-- Created with Inkscape (http://www.inkscape.org/) -->

<svg
   xmlns:dc="http://purl.org/dc/elements/1.1/"
   xmlns:cc="http://creativecommons.org/ns#"
   xmlns:rdf="http://www.w3.org/1999/02/22-rdf-syntax-ns#"
   xmlns:svg="http://www.w3.org/2000/svg"
   xmlns="http://www.w3.org/2000/svg"
   xmlns:sodipodi="http://sodipodi.sourceforge.net/DTD/sodipodi-0.dtd"
   xmlns:inkscape="http://www.inkscape.org/namespaces/inkscape"
   width="50"
   height="50"
   viewBox="0 0 13.229166 13.229167"
   version="1.1"
   id="svg8"
   inkscape:version="0.91 r13725"
   sodipodi:docname="show-planning.svg">
  <defs
     id="defs2" />
  <sodipodi:namedview
     id="base"
     pagecolor="#868686"
     bordercolor="#666666"
     borderopacity="1.0"
     inkscape:pageopacity="0"
     inkscape:pageshadow="2"
     inkscape:zoom="5.6"
     inkscape:cx="-41.633736"
     inkscape:cy="5.6403896"
     inkscape:document-units="mm"
     inkscape:current-layer="layer1"
     showgrid="false"
     units="px"
     inkscape:pagecheckerboard="true"
     inkscape:window-width="1853"
     inkscape:window-height="1059"
     inkscape:window-x="67"
     inkscape:window-y="21"
     inkscape:window-maximized="1" />
  <metadata
     id="metadata5">
    <rdf:RDF>
      <cc:Work
         rdf:about="">
        <dc:format>image/svg+xml</dc:format>
        <dc:type
           rdf:resource="http://purl.org/dc/dcmitype/StillImage" />
        <dc:title></dc:title>
      </cc:Work>
    </rdf:RDF>
  </metadata>
  <g
     inkscape:label="Layer 1"
     inkscape:groupmode="layer"
     id="layer1"
     transform="translate(0,-283.77082)">
    <path
       style="fill:#808080;fill-opacity:1"
       d="m 9.5140236,295.65762 c -0.547215,-0.0515 -1.1121015,-0.25514 -1.58695,-0.57222 l -0.2040804,-0.13625 -2.645021,-0.0118 -2.6450211,-0.0118 -0.1104652,-0.0509 c -0.1511349,-0.07 -0.2926815,-0.22252 -0.3510908,-0.37864 -0.048088,-0.12861 -0.048479,-0.15898 -0.048479,-4.16908 0,-4.53139 -0.015247,-4.16026 0.1794012,-4.37671 0.061772,-0.0688 0.1546437,-0.13847 0.2291115,-0.17214 l 0.1252436,-0.0566 4.068355,0 c 4.4300116,0 4.1196386,-0.01 4.3308246,0.13287 0.05298,0.0357 0.125204,0.1085 0.160401,0.16168 0.131803,0.19916 0.134597,0.23715 0.134597,1.82863 l 0,1.46085 0.136405,0.0665 c 0.387001,0.1883 0.898102,0.61247 1.163279,0.96544 0.463227,0.61657 0.69314,1.3564 0.662919,2.13313 -0.0343,0.88243 -0.384792,1.66106 -1.021663,2.26993 -0.475015,0.4541 -1.047193,0.7481 -1.695011,0.87092 -0.202537,0.0385 -0.6941082,0.0642 -0.8827556,0.0466 z m 0.4169376,-0.33829 c 0.1624238,-0.0738 0.2226118,-0.26991 0.1296318,-0.42241 -0.08914,-0.14621 -0.2763974,-0.19103 -0.4234565,-0.10136 -0.2014805,0.12284 -0.1862723,0.41413 0.027172,0.51978 0.1202002,0.0595 0.1437066,0.0598 0.2666827,0.004 z M 6.8366996,293.852 c -0.5706236,-1.13525 -0.4439433,-2.52993 0.3195795,-3.51811 0.070274,-0.091 0.1278532,-0.17067 0.1278532,-0.17699 0,-0.006 -0.096078,-0.0115 -0.2135025,-0.0115 l -0.2134927,0 0,-0.49864 0,-0.49864 0.4922365,0.006 0.4922364,0.006 0.00685,0.24214 0.00685,0.24214 0.1593059,-0.10271 c 0.4466214,-0.28795 0.9776801,-0.46595 1.5215036,-0.50999 0.1545654,-0.0126 0.3009404,-0.0187 0.3252777,-0.0138 0.02434,0.005 0.126973,0.0148 0.2280948,0.022 l 0.183848,0.013 0,-0.52159 0,-0.52157 -3.7481105,0 -3.748101,0 0,2.989 0,2.98899 2.0641639,0 2.0641738,0 -0.068613,-0.1364 z m -3.3006684,-1.06158 0,-0.48631 0.4981595,0 0.4981693,0 0,0.48631 0,0.4863 -0.4981693,0 -0.4981595,0 0,-0.4863 z m 1.660548,0 0,-0.48631 0.4981693,0 0.4981693,0 0,0.48631 0,0.4863 -0.4981693,0 -0.4981693,0 0,-0.4863 z m -1.660548,-1.56566 0,-0.4863 0.4981595,0 0.4981693,0 0,0.4863 0,0.48631 -0.4981693,0 -0.4981595,0 0,-0.48631 z m 1.660548,0 0,-0.4863 0.4981693,0 0.4981693,0 0,0.4863 0,0.48631 -0.4981693,0 -0.4981693,0 0,-0.48631 z m 0,-1.57801 0,-0.49865 0.4922366,0.006 0.4922365,0.006 0.00685,0.49225 0.00685,0.49223 -0.4986483,0 -0.4986481,0 0,-0.49866 z m 4.8291898,3.26212 c 0.207159,-0.0838 0.348911,-0.29512 0.355372,-0.5298 l 0.0039,-0.15041 0.664463,-0.668 c 0.452358,-0.45477 0.669546,-0.6896 0.680367,-0.73564 0.0214,-0.0911 -0.02327,-0.2166 -0.09334,-0.26254 -0.07126,-0.0467 -0.183574,-0.0482 -0.267689,-0.004 -0.03519,0.0186 -0.340828,0.31157 -0.679105,0.65081 -0.602712,0.60442 -0.616268,0.61617 -0.676075,0.58616 -0.1569308,-0.0787 -0.3668073,-0.0599 -0.5303843,0.0477 -0.049359,0.0324 -0.1021087,0.0514 -0.1171704,0.0422 -0.015052,-0.01 -0.2201878,-0.1678 -0.4558285,-0.3522 -0.8103399,-0.63414 -0.8367981,-0.6527 -0.929641,-0.6527 -0.065291,0 -0.1038874,0.0191 -0.1684152,0.0837 -0.075356,0.0754 -0.082394,0.0933 -0.070764,0.18025 0.00685,0.0532 0.034503,0.11953 0.06099,0.14759 0.02639,0.0281 0.352332,0.2859 0.7242803,0.57293 0.5130941,0.39596 0.6765735,0.5344 0.6774726,0.57374 0.00293,0.14267 0.1343725,0.34204 0.2817444,0.4284 0.1709858,0.10021 0.3587144,0.11464 0.5395811,0.0414 z m -2.8197697,-0.28388 c 0.028735,-0.007 0.079071,-0.0468 0.1117358,-0.0856 0.1728527,-0.20545 0.031473,-0.49587 -0.2415147,-0.49611 -0.1844346,-1.8e-4 -0.3290112,0.19807 -0.2817638,0.38632 0.019547,0.078 0.1254684,0.17897 0.2143919,0.20447 0.073011,0.0209 0.096176,0.0199 0.1971508,-0.008 z m 5.4082387,1.7e-4 c 0.08923,-0.0257 0.19717,-0.16995 0.19717,-0.2637 0,-0.17628 -0.131166,-0.31831 -0.293805,-0.31816 -0.272068,2.7e-4 -0.410634,0.2909 -0.237038,0.49721 0.05952,0.0708 0.176977,0.12188 0.246176,0.10712 0.01955,-0.004 0.05894,-0.0143 0.08748,-0.0225 z m -2.6403588,-2.74279 c 0.2392658,-0.18822 0.1247348,-0.54353 -0.1751888,-0.54353 -0.1259474,0 -0.2151152,0.0544 -0.2732801,0.16699 -0.10205,0.19733 0.044667,0.42607 0.2732801,0.42607 0.077898,0 0.1314798,-0.0151 0.1751888,-0.0496 z m -1.859468,-3.06993 0,-0.41514 -1.5893837,0 -1.5893936,0 0,0.41514 0,0.41513 1.5893936,0 1.5893837,0 0,-0.41513 z"
       id="path4153"
       inkscape:connector-curvature="0" />
  </g>
</svg>
