<?xml version="1.0" encoding="UTF-8" standalone="no"?>
<!-- Created with Inkscape (http://www.inkscape.org/) -->

<svg
   xmlns:dc="http://purl.org/dc/elements/1.1/"
   xmlns:cc="http://creativecommons.org/ns#"
   xmlns:rdf="http://www.w3.org/1999/02/22-rdf-syntax-ns#"
   xmlns:svg="http://www.w3.org/2000/svg"
   xmlns="http://www.w3.org/2000/svg"
   xmlns:sodipodi="http://sodipodi.sourceforge.net/DTD/sodipodi-0.dtd"
   xmlns:inkscape="http://www.inkscape.org/namespaces/inkscape"
   width="50"
   height="50"
   viewBox="0 0 13.229166 13.229167"
   version="1.1"
   id="svg8"
   inkscape:version="0.91 r13725"
   sodipodi:docname="sports.svg">
  <defs
     id="defs2" />
  <sodipodi:namedview
     id="base"
     pagecolor="#868686"
     bordercolor="#666666"
     borderopacity="1.0"
     inkscape:pageopacity="0"
     inkscape:pageshadow="2"
     inkscape:zoom="2.8"
     inkscape:cx="-20.790534"
     inkscape:cy="2.5039241"
     inkscape:document-units="mm"
     inkscape:current-layer="layer1"
     showgrid="false"
     units="px"
     inkscape:pagecheckerboard="true"
     inkscape:window-width="1853"
     inkscape:window-height="1059"
     inkscape:window-x="67"
     inkscape:window-y="21"
     inkscape:window-maximized="1" />
  <metadata
     id="metadata5">
    <rdf:RDF>
      <cc:Work
         rdf:about="">
        <dc:format>image/svg+xml</dc:format>
        <dc:type
           rdf:resource="http://purl.org/dc/dcmitype/StillImage" />
        <dc:title></dc:title>
      </cc:Work>
    </rdf:RDF>
  </metadata>
  <g
     inkscape:label="Layer 1"
     inkscape:groupmode="layer"
     id="layer1"
     transform="translate(0,-283.77082)">
    <path
       style="fill:#ffffff;fill-opacity:1"
       d="m 4.3453755,295.2213 c -0.019279,-0.0768 0.00885,-0.39426 0.062473,-0.70544 0.1506863,-0.87423 0.092179,-1.40374 -0.2276744,-2.06064 -0.2895896,-0.59472 -0.3713527,-0.90751 -0.4061116,-1.55358 l -0.024755,-0.46012 -0.2177898,-0.0407 c -1.128298,-0.21065 -1.6507414,-0.5242 -2.3171954,-1.39065 -0.142357,-0.18508 -0.30295852,-0.39171 -0.35689202,-0.45919 -0.171414,-0.21444 -0.1798701,-0.39482 -0.02893,-0.61724 0.075905,-0.11184 0.1557346,-0.27402 0.17741202,-0.36038 0.041565,-0.16562 0.6684071,-0.81662 1.5998049,-1.66146 0.5377599,-0.4878 0.5633992,-0.50324 0.8327409,-0.50202 0.3165897,0.001 0.6987516,0.15553 0.9102384,0.36702 0.1141918,0.11419 0.1441527,0.20207 0.1441527,0.42284 0,0.29504 -0.070965,0.41675 -0.2429996,0.41675 -0.059817,0 -0.1291499,0.0636 -0.1612179,0.14798 -0.06985,0.18371 -0.2490852,0.16705 -0.2764754,-0.0257 -0.01364,-0.0961 -0.084659,-0.16106 -0.2444521,-0.22383 -0.1238677,-0.0486 -0.2252142,-0.11042 -0.2252142,-0.13726 0,-0.11417 -0.1235463,-0.0333 -0.2551367,0.1669 -0.1866201,0.284 -0.5148365,1.47317 -0.3937821,1.42672 0.4091565,-0.15702 0.7114123,-0.0612 0.9389183,0.2975 l 0.1646038,0.25956 0.391017,0.0124 c 0.5511375,0.0174 0.9356044,0.15891 1.1845267,0.43619 0.2315958,0.25798 0.5085138,0.31315 0.6109631,0.12172 0.07009,-0.13095 -0.021061,-0.23888 -0.201729,-0.23888 -0.2019639,0 -0.3539038,-0.17666 -0.3865796,-0.44947 -0.021968,-0.18341 -0.00809,-0.25646 0.053051,-0.27994 0.064265,-0.0247 0.067752,-0.0498 0.015585,-0.1127 -0.036952,-0.0446 -0.050494,-0.0976 -0.0301,-0.11803 0.020394,-0.0204 -0.00721,-0.086 -0.06138,-0.14589 -0.093895,-0.10372 -0.090201,-0.11527 0.079566,-0.24813 0.1163056,-0.091 0.1917362,-0.21239 0.2175602,-0.35003 0.021739,-0.1159 0.076561,-0.26724 0.1218239,-0.33631 0.04527,-0.0691 0.068353,-0.13955 0.051314,-0.15659 -0.017039,-0.017 0.023553,-0.17674 0.090212,-0.35489 l 0.1211911,-0.32392 0.2690772,0.002 c 0.4036175,0.003 1.1122766,0.14298 1.397231,0.27598 0.3370496,0.15732 0.4967734,0.30528 0.5454488,0.50529 0.022187,0.0912 0.075304,0.21682 0.1180357,0.27921 0.094867,0.13853 0.099698,0.55498 0.012306,1.06096 -0.056942,0.32973 -0.097764,0.4111 -0.3163492,0.63059 -0.1380311,0.13862 -0.250965,0.27568 -0.250965,0.30458 0,0.0289 0.063347,0.11592 0.1407679,0.19335 0.1347905,0.13479 0.1625644,0.13921 0.654072,0.10437 0.6167664,-0.0438 0.7522378,-0.0149 1.0157226,0.21644 0.197119,0.17308 0.209184,0.17583 0.4830443,0.11012 0.306463,-0.0736 0.650811,-0.015 0.909614,0.15458 0.07503,0.0492 0.146545,0.0792 0.158931,0.0669 0.04911,-0.0491 0.203961,-1.26598 0.203961,-1.60273 0,-0.31801 -0.01131,-0.35377 -0.100661,-0.31845 -0.05536,0.0219 -0.191246,0.0528 -0.301969,0.0685 -0.110722,0.0158 -0.282054,0.0695 -0.380737,0.11918 -0.244656,0.12326 -0.390749,0.0617 -0.348988,-0.14713 0.02379,-0.11893 0.0034,-0.17806 -0.07926,-0.22967 -0.157086,-0.0982 -0.138698,-0.24352 0.06664,-0.52697 l 0.177934,-0.24564 0.469143,0.0257 c 0.395941,0.0217 0.520339,0.0548 0.797271,0.21227 0.350324,0.1992 0.353112,0.20369 0.443978,0.71478 0.03276,0.1842 0.129267,0.54656 0.214481,0.80524 0.136265,0.41366 0.154898,0.56043 0.154644,1.21807 -2.84e-4,0.79357 -0.06705,1.15761 -0.241139,1.31516 -0.05882,0.0532 -0.412315,0.21264 -0.785531,0.35423 -0.916893,0.34788 -1.312195,0.34541 -1.8832403,-0.0117 l -0.2156922,-0.13489 0,0.14565 c 0,0.20484 -0.2406256,0.77328 -0.46662,1.1023 -0.1049116,0.15275 -0.3659808,0.44903 -0.5801595,0.65841 l -0.389418,0.3807 -0.072768,0.76966 -0.072768,0.76966 -1.7098479,0.0152 -1.70985,0.0152 -0.035051,-0.13966 z"
       id="path4154"
       inkscape:connector-curvature="0" />
  </g>
</svg>
